<?xml version="1.0" encoding="UTF-8" standalone="no"?>
<!DOCTYPE svg PUBLIC "-//W3C//DTD SVG 1.1//EN" "http://www.w3.org/Graphics/SVG/1.1/DTD/svg11.dtd">
<svg width="100%" height="100%" viewBox="0 0 909 254" version="1.1" xmlns="http://www.w3.org/2000/svg" xmlns:xlink="http://www.w3.org/1999/xlink" xml:space="preserve" xmlns:serif="http://www.serif.com/" style="fill-rule:evenodd;clip-rule:evenodd;stroke-linecap:round;stroke-linejoin:round;">
    <g id="Artboard1" transform="matrix(1,0,0,0.898985,0,-19.4317)">
        <rect x="0" y="21.615" width="908.24" height="281.981" style="fill:none;"/>
        <g id="items" transform="matrix(1,0,0,1.11237,0,-14.8711)">
            <g id="blend">
                <g id="g-root-ro_1uoo5p31m1mtqk-fill" transform="matrix(1,0,0,1,686,122)">
                    <g id="ro_1uoo5p31m1mtqk-fill">
                        <g>
                            <path d="M22,10L178,10C178,10 190,10 190,22L190,94C190,94 190,106 178,106L22,106C22,106 10,106 10,94L10,22C10,22 10,10 22,10" style="fill:rgb(148,67,74);"/>
                        </g>
                    </g>
                </g>
                <g id="g-root-ro_147zvtj1m1ilty-fill" transform="matrix(1,0,0,1,214,134)">
                    <g id="ro_147zvtj1m1ilty-fill">
                        <g>
                            <path d="M22,10L178,10C178,10 190,10 190,22L190,70C190,70 190,82 178,82L22,82C22,82 10,82 10,70L10,22C10,22 10,10 22,10" style="fill:rgb(90,131,122);"/>
                        </g>
                    </g>
                </g>
                <g id="g-root-ro_147zsnr1m23pj7-fill" transform="matrix(1,0,0,1,14,134)">
                    <g id="ro_147zsnr1m23pj7-fill">
                        <g>
                            <path d="M22,10L142,10C142,10 154,10 154,22L154,70C154,70 154,82 142,82L22,82C22,82 10,82 10,70L10,22C10,22 10,10 22,10" style="fill:rgb(146,93,113);"/>
                        </g>
                    </g>
                </g>
                <g id="g-root-ro_5913r1m1lert-fill" transform="matrix(1,0,0,1,450,143)">
                    <g id="ro_5913r1m1lert-fill">
                        <g>
                            <path d="M22,10L178,10C178,10 190,10 190,22L190,52C190,52 190,64 178,64L22,64C22,64 10,64 10,52L10,22C10,22 10,10 22,10" style="fill:rgb(146,129,97);"/>
                        </g>
                    </g>
                </g>
                <g transform="matrix(1,0,0,1,349.212,93.6446)">
                    <g id="g-root-tx_dnsresol_1ursj4n1m1mux2-fill">
                        <g id="tx_dnsresol_1ursj4n1m1mux2-fill">
                            <g>
                                <g>
                                    <g>
                                        <g transform="matrix(25,0,0,25,0,0)">
                                            <path d="M0.075,-0.708L0.347,-0.708C0.37,-0.708 0.395,-0.705 0.421,-0.7C0.447,-0.695 0.473,-0.686 0.499,-0.675C0.524,-0.663 0.549,-0.648 0.573,-0.629C0.596,-0.61 0.617,-0.588 0.635,-0.562C0.653,-0.535 0.667,-0.505 0.678,-0.471C0.689,-0.436 0.694,-0.397 0.694,-0.354C0.694,-0.311 0.689,-0.272 0.678,-0.238C0.667,-0.203 0.653,-0.173 0.635,-0.147C0.617,-0.12 0.596,-0.098 0.573,-0.079C0.549,-0.06 0.524,-0.045 0.499,-0.034C0.473,-0.022 0.447,-0.013 0.421,-0.008C0.395,-0.003 0.37,-0 0.347,-0L0.075,-0L0.075,-0.708ZM0.159,-0.078L0.319,-0.078C0.36,-0.078 0.397,-0.083 0.432,-0.094C0.467,-0.105 0.497,-0.121 0.522,-0.144C0.547,-0.166 0.567,-0.194 0.582,-0.229C0.597,-0.264 0.604,-0.305 0.604,-0.354C0.604,-0.403 0.597,-0.444 0.582,-0.479C0.567,-0.514 0.547,-0.542 0.522,-0.565C0.497,-0.587 0.467,-0.603 0.432,-0.614C0.397,-0.625 0.36,-0.63 0.319,-0.63L0.159,-0.63L0.159,-0.078Z" style="fill:rgb(151,140,140);fill-rule:nonzero;"/>
                                        </g>
                                        <g transform="matrix(25,0,0,25,18.525,0)">
                                            <path d="M0.088,-0.708L0.194,-0.708L0.604,-0.12L0.606,-0.12L0.606,-0.708L0.69,-0.708L0.69,-0L0.584,-0L0.174,-0.588L0.172,-0.588L0.172,-0L0.088,-0L0.088,-0.708Z" style="fill:rgb(151,140,140);fill-rule:nonzero;"/>
                                        </g>
                                        <g transform="matrix(25,0,0,25,37.975,0)">
                                            <path d="M0.424,-0.583C0.41,-0.606 0.391,-0.622 0.368,-0.633C0.345,-0.643 0.32,-0.648 0.295,-0.648C0.276,-0.648 0.258,-0.646 0.24,-0.641C0.222,-0.636 0.206,-0.629 0.192,-0.62C0.177,-0.611 0.166,-0.598 0.157,-0.583C0.148,-0.568 0.144,-0.55 0.144,-0.529C0.144,-0.513 0.147,-0.499 0.152,-0.487C0.157,-0.474 0.165,-0.463 0.176,-0.453C0.187,-0.443 0.203,-0.434 0.222,-0.425C0.241,-0.416 0.265,-0.408 0.293,-0.399C0.32,-0.39 0.347,-0.381 0.373,-0.371C0.398,-0.361 0.421,-0.348 0.441,-0.333C0.46,-0.318 0.476,-0.299 0.488,-0.276C0.499,-0.253 0.505,-0.224 0.505,-0.189C0.505,-0.154 0.498,-0.123 0.484,-0.097C0.47,-0.071 0.452,-0.05 0.429,-0.033C0.405,-0.016 0.379,-0.003 0.349,0.006C0.319,0.014 0.288,0.018 0.256,0.018C0.235,0.018 0.215,0.016 0.194,0.013C0.173,0.009 0.154,0.003 0.135,-0.005C0.116,-0.012 0.098,-0.022 0.081,-0.035C0.064,-0.047 0.05,-0.062 0.038,-0.08L0.11,-0.139C0.125,-0.113 0.147,-0.093 0.174,-0.08C0.201,-0.067 0.23,-0.06 0.261,-0.06C0.279,-0.06 0.297,-0.063 0.316,-0.068C0.334,-0.073 0.35,-0.081 0.365,-0.092C0.38,-0.102 0.392,-0.115 0.401,-0.13C0.41,-0.145 0.415,-0.163 0.415,-0.183C0.415,-0.205 0.411,-0.223 0.404,-0.237C0.397,-0.25 0.385,-0.262 0.37,-0.272C0.355,-0.282 0.335,-0.291 0.312,-0.299C0.289,-0.307 0.261,-0.316 0.23,-0.327C0.205,-0.335 0.181,-0.344 0.16,-0.355C0.139,-0.365 0.12,-0.378 0.105,-0.393C0.089,-0.408 0.077,-0.426 0.068,-0.447C0.058,-0.468 0.054,-0.493 0.054,-0.522C0.054,-0.556 0.061,-0.586 0.074,-0.611C0.087,-0.636 0.105,-0.658 0.128,-0.675C0.151,-0.692 0.176,-0.704 0.205,-0.713C0.234,-0.722 0.264,-0.726 0.295,-0.726C0.335,-0.726 0.372,-0.72 0.405,-0.708C0.438,-0.695 0.467,-0.674 0.493,-0.643L0.424,-0.583Z" style="fill:rgb(151,140,140);fill-rule:nonzero;"/>
                                        </g>
                                        <g transform="matrix(25,0,0,25,58.825,0)">
                                            <path d="M0.424,-0.583C0.41,-0.606 0.391,-0.622 0.368,-0.633C0.345,-0.643 0.32,-0.648 0.295,-0.648C0.276,-0.648 0.258,-0.646 0.24,-0.641C0.222,-0.636 0.206,-0.629 0.192,-0.62C0.177,-0.611 0.166,-0.598 0.157,-0.583C0.148,-0.568 0.144,-0.55 0.144,-0.529C0.144,-0.513 0.147,-0.499 0.152,-0.487C0.157,-0.474 0.165,-0.463 0.176,-0.453C0.187,-0.443 0.203,-0.434 0.222,-0.425C0.241,-0.416 0.265,-0.408 0.293,-0.399C0.32,-0.39 0.347,-0.381 0.373,-0.371C0.398,-0.361 0.421,-0.348 0.441,-0.333C0.46,-0.318 0.476,-0.299 0.488,-0.276C0.499,-0.253 0.505,-0.224 0.505,-0.189C0.505,-0.154 0.498,-0.123 0.484,-0.097C0.47,-0.071 0.452,-0.05 0.429,-0.033C0.405,-0.016 0.379,-0.003 0.349,0.006C0.319,0.014 0.288,0.018 0.256,0.018C0.235,0.018 0.215,0.016 0.194,0.013C0.173,0.009 0.154,0.003 0.135,-0.005C0.116,-0.012 0.098,-0.022 0.081,-0.035C0.064,-0.047 0.05,-0.062 0.038,-0.08L0.11,-0.139C0.125,-0.113 0.147,-0.093 0.174,-0.08C0.201,-0.067 0.23,-0.06 0.261,-0.06C0.279,-0.06 0.297,-0.063 0.316,-0.068C0.334,-0.073 0.35,-0.081 0.365,-0.092C0.38,-0.102 0.392,-0.115 0.401,-0.13C0.41,-0.145 0.415,-0.163 0.415,-0.183C0.415,-0.205 0.411,-0.223 0.404,-0.237C0.397,-0.25 0.385,-0.262 0.37,-0.272C0.355,-0.282 0.335,-0.291 0.312,-0.299C0.289,-0.307 0.261,-0.316 0.23,-0.327C0.205,-0.335 0.181,-0.344 0.16,-0.355C0.139,-0.365 0.12,-0.378 0.105,-0.393C0.089,-0.408 0.077,-0.426 0.068,-0.447C0.058,-0.468 0.054,-0.493 0.054,-0.522C0.054,-0.556 0.061,-0.586 0.074,-0.611C0.087,-0.636 0.105,-0.658 0.128,-0.675C0.151,-0.692 0.176,-0.704 0.205,-0.713C0.234,-0.722 0.264,-0.726 0.295,-0.726C0.335,-0.726 0.372,-0.72 0.405,-0.708C0.438,-0.695 0.467,-0.674 0.493,-0.643L0.424,-0.583Z" style="fill:rgb(151,140,140);fill-rule:nonzero;"/>
                                        </g>
                                        <g transform="matrix(25,0,0,25,72.725,0)">
                                            <path d="M0.492,-0.085C0.464,-0.049 0.433,-0.024 0.4,-0.01C0.367,0.005 0.328,0.012 0.284,0.012C0.247,0.012 0.214,0.006 0.185,-0.008C0.156,-0.021 0.131,-0.038 0.111,-0.06C0.09,-0.082 0.075,-0.108 0.064,-0.138C0.053,-0.168 0.047,-0.2 0.047,-0.234C0.047,-0.27 0.053,-0.303 0.065,-0.334C0.077,-0.364 0.094,-0.39 0.115,-0.412C0.136,-0.433 0.162,-0.45 0.191,-0.462C0.22,-0.474 0.252,-0.48 0.287,-0.48C0.32,-0.48 0.35,-0.474 0.377,-0.464C0.404,-0.452 0.428,-0.437 0.448,-0.416C0.467,-0.395 0.482,-0.369 0.493,-0.339C0.504,-0.308 0.509,-0.274 0.509,-0.235L0.509,-0.21L0.131,-0.21C0.132,-0.19 0.137,-0.171 0.146,-0.153C0.154,-0.134 0.165,-0.118 0.178,-0.105C0.191,-0.091 0.207,-0.08 0.225,-0.072C0.243,-0.064 0.263,-0.06 0.284,-0.06C0.318,-0.06 0.347,-0.066 0.37,-0.078C0.393,-0.09 0.414,-0.108 0.433,-0.131L0.492,-0.085ZM0.425,-0.276C0.424,-0.316 0.411,-0.348 0.386,-0.372C0.361,-0.396 0.327,-0.408 0.284,-0.408C0.241,-0.408 0.206,-0.396 0.179,-0.372C0.152,-0.348 0.136,-0.316 0.131,-0.276L0.425,-0.276Z" style="fill:rgb(151,140,140);fill-rule:nonzero;"/>
                                        </g>
                                        <g transform="matrix(25,0,0,25,86.625,0)">
                                            <path d="M0.074,-0.357C0.074,-0.378 0.073,-0.398 0.072,-0.417C0.071,-0.436 0.07,-0.453 0.07,-0.468L0.144,-0.468C0.144,-0.455 0.144,-0.443 0.145,-0.43C0.146,-0.417 0.146,-0.404 0.146,-0.391L0.148,-0.391C0.153,-0.402 0.161,-0.413 0.171,-0.424C0.18,-0.435 0.192,-0.444 0.205,-0.453C0.218,-0.461 0.233,-0.468 0.25,-0.473C0.267,-0.478 0.285,-0.48 0.304,-0.48C0.309,-0.48 0.315,-0.48 0.32,-0.479C0.325,-0.478 0.331,-0.477 0.336,-0.475L0.331,-0.396C0.318,-0.4 0.304,-0.402 0.289,-0.402C0.241,-0.402 0.206,-0.387 0.185,-0.356C0.163,-0.325 0.152,-0.282 0.152,-0.228L0.152,-0L0.074,-0L0.074,-0.357Z" style="fill:rgb(151,140,140);fill-rule:nonzero;"/>
                                        </g>
                                        <g transform="matrix(25,0,0,25,95.425,0)">
                                            <path d="M0.287,-0L0.201,-0L0.01,-0.468L0.101,-0.468L0.247,-0.101L0.249,-0.101L0.388,-0.468L0.472,-0.468L0.287,-0Z" style="fill:rgb(151,140,140);fill-rule:nonzero;"/>
                                        </g>
                                        <g transform="matrix(25,0,0,25,107.475,0)">
                                            <path d="M0.492,-0.085C0.464,-0.049 0.433,-0.024 0.4,-0.01C0.367,0.005 0.328,0.012 0.284,0.012C0.247,0.012 0.214,0.006 0.185,-0.008C0.156,-0.021 0.131,-0.038 0.111,-0.06C0.09,-0.082 0.075,-0.108 0.064,-0.138C0.053,-0.168 0.047,-0.2 0.047,-0.234C0.047,-0.27 0.053,-0.303 0.065,-0.334C0.077,-0.364 0.094,-0.39 0.115,-0.412C0.136,-0.433 0.162,-0.45 0.191,-0.462C0.22,-0.474 0.252,-0.48 0.287,-0.48C0.32,-0.48 0.35,-0.474 0.377,-0.464C0.404,-0.452 0.428,-0.437 0.448,-0.416C0.467,-0.395 0.482,-0.369 0.493,-0.339C0.504,-0.308 0.509,-0.274 0.509,-0.235L0.509,-0.21L0.131,-0.21C0.132,-0.19 0.137,-0.171 0.146,-0.153C0.154,-0.134 0.165,-0.118 0.178,-0.105C0.191,-0.091 0.207,-0.08 0.225,-0.072C0.243,-0.064 0.263,-0.06 0.284,-0.06C0.318,-0.06 0.347,-0.066 0.37,-0.078C0.393,-0.09 0.414,-0.108 0.433,-0.131L0.492,-0.085ZM0.425,-0.276C0.424,-0.316 0.411,-0.348 0.386,-0.372C0.361,-0.396 0.327,-0.408 0.284,-0.408C0.241,-0.408 0.206,-0.396 0.179,-0.372C0.152,-0.348 0.136,-0.316 0.131,-0.276L0.425,-0.276Z" style="fill:rgb(151,140,140);fill-rule:nonzero;"/>
                                        </g>
                                        <g transform="matrix(25,0,0,25,121.375,0)">
                                            <path d="M0.074,-0.357C0.074,-0.378 0.073,-0.398 0.072,-0.417C0.071,-0.436 0.07,-0.453 0.07,-0.468L0.144,-0.468C0.144,-0.455 0.144,-0.443 0.145,-0.43C0.146,-0.417 0.146,-0.404 0.146,-0.391L0.148,-0.391C0.153,-0.402 0.161,-0.413 0.171,-0.424C0.18,-0.435 0.192,-0.444 0.205,-0.453C0.218,-0.461 0.233,-0.468 0.25,-0.473C0.267,-0.478 0.285,-0.48 0.304,-0.48C0.309,-0.48 0.315,-0.48 0.32,-0.479C0.325,-0.478 0.331,-0.477 0.336,-0.475L0.331,-0.396C0.318,-0.4 0.304,-0.402 0.289,-0.402C0.241,-0.402 0.206,-0.387 0.185,-0.356C0.163,-0.325 0.152,-0.282 0.152,-0.228L0.152,-0L0.074,-0L0.074,-0.357Z" style="fill:rgb(151,140,140);fill-rule:nonzero;"/>
                                        </g>
                                        <g transform="matrix(25,0,0,25,137.125,0)">
                                            <path d="M0.563,-0.63L0.329,-0.63L0.329,-0L0.245,-0L0.245,-0.63L0.011,-0.63L0.011,-0.708L0.563,-0.708L0.563,-0.63Z" style="fill:rgb(151,140,140);fill-rule:nonzero;"/>
                                        </g>
                                        <g transform="matrix(1,0,0,1,148.7,0)">
                                            <g transform="matrix(25,0,0,25,0,0)">
                                                <path d="M0.246,0.107C0.238,0.127 0.23,0.145 0.222,0.162C0.213,0.178 0.203,0.192 0.192,0.204C0.18,0.215 0.166,0.224 0.15,0.231C0.133,0.237 0.113,0.24 0.09,0.24C0.079,0.24 0.067,0.239 0.055,0.238C0.042,0.237 0.031,0.233 0.02,0.228L0.03,0.16C0.038,0.163 0.046,0.166 0.055,0.167C0.064,0.168 0.074,0.168 0.085,0.168C0.11,0.168 0.129,0.161 0.141,0.147C0.153,0.133 0.163,0.114 0.172,0.091L0.204,0.003L0.01,-0.468L0.101,-0.468L0.246,-0.101L0.248,-0.101L0.387,-0.468L0.472,-0.468L0.246,0.107Z" style="fill:rgb(151,140,140);fill-rule:nonzero;"/>
                                            </g>
                                            <g transform="matrix(25,0,0,25,12.05,0)">
                                                <path d="M0.07,-0.468L0.148,-0.468L0.148,-0.4L0.15,-0.4C0.171,-0.425 0.196,-0.445 0.225,-0.459C0.253,-0.473 0.284,-0.48 0.318,-0.48C0.355,-0.48 0.388,-0.474 0.419,-0.462C0.449,-0.449 0.475,-0.432 0.496,-0.41C0.517,-0.388 0.534,-0.362 0.546,-0.332C0.558,-0.302 0.564,-0.269 0.564,-0.234C0.564,-0.199 0.558,-0.166 0.546,-0.136C0.534,-0.106 0.518,-0.08 0.497,-0.058C0.476,-0.036 0.451,-0.019 0.422,-0.007C0.393,0.006 0.363,0.012 0.33,0.012C0.288,0.012 0.251,0.003 0.22,-0.016C0.188,-0.034 0.165,-0.056 0.15,-0.083L0.148,-0.083L0.148,0.228L0.07,0.228L0.07,-0.468ZM0.148,-0.234C0.148,-0.209 0.152,-0.187 0.16,-0.166C0.167,-0.145 0.178,-0.126 0.193,-0.111C0.208,-0.095 0.225,-0.083 0.246,-0.074C0.266,-0.065 0.289,-0.06 0.314,-0.06C0.339,-0.06 0.362,-0.065 0.383,-0.074C0.403,-0.083 0.42,-0.095 0.435,-0.111C0.45,-0.126 0.461,-0.145 0.469,-0.166C0.476,-0.187 0.48,-0.209 0.48,-0.234C0.48,-0.259 0.476,-0.282 0.469,-0.303C0.461,-0.324 0.45,-0.342 0.435,-0.358C0.42,-0.373 0.403,-0.386 0.383,-0.395C0.362,-0.404 0.339,-0.408 0.314,-0.408C0.289,-0.408 0.266,-0.404 0.246,-0.395C0.225,-0.386 0.208,-0.373 0.193,-0.358C0.178,-0.342 0.167,-0.324 0.16,-0.303C0.152,-0.282 0.148,-0.259 0.148,-0.234Z" style="fill:rgb(151,140,140);fill-rule:nonzero;"/>
                                            </g>
                                            <g transform="matrix(25,0,0,25,27.325,0)">
                                                <path d="M0.492,-0.085C0.464,-0.049 0.433,-0.024 0.4,-0.01C0.367,0.005 0.328,0.012 0.284,0.012C0.247,0.012 0.214,0.006 0.185,-0.008C0.156,-0.021 0.131,-0.038 0.111,-0.06C0.09,-0.082 0.075,-0.108 0.064,-0.138C0.053,-0.168 0.047,-0.2 0.047,-0.234C0.047,-0.27 0.053,-0.303 0.065,-0.334C0.077,-0.364 0.094,-0.39 0.115,-0.412C0.136,-0.433 0.162,-0.45 0.191,-0.462C0.22,-0.474 0.252,-0.48 0.287,-0.48C0.32,-0.48 0.35,-0.474 0.377,-0.464C0.404,-0.452 0.428,-0.437 0.448,-0.416C0.467,-0.395 0.482,-0.369 0.493,-0.339C0.504,-0.308 0.509,-0.274 0.509,-0.235L0.509,-0.21L0.131,-0.21C0.132,-0.19 0.137,-0.171 0.146,-0.153C0.154,-0.134 0.165,-0.118 0.178,-0.105C0.191,-0.091 0.207,-0.08 0.225,-0.072C0.243,-0.064 0.263,-0.06 0.284,-0.06C0.318,-0.06 0.347,-0.066 0.37,-0.078C0.393,-0.09 0.414,-0.108 0.433,-0.131L0.492,-0.085ZM0.425,-0.276C0.424,-0.316 0.411,-0.348 0.386,-0.372C0.361,-0.396 0.327,-0.408 0.284,-0.408C0.241,-0.408 0.206,-0.396 0.179,-0.372C0.152,-0.348 0.136,-0.316 0.131,-0.276L0.425,-0.276Z" style="fill:rgb(151,140,140);fill-rule:nonzero;"/>
                                            </g>
                                            <g transform="matrix(25,0,0,25,41.225,0)">
                                                <path d="M0.084,-0.123C0.099,-0.104 0.116,-0.088 0.135,-0.077C0.153,-0.066 0.176,-0.06 0.204,-0.06C0.216,-0.06 0.228,-0.061 0.241,-0.064C0.253,-0.067 0.264,-0.071 0.274,-0.077C0.284,-0.083 0.292,-0.091 0.298,-0.1C0.304,-0.109 0.307,-0.119 0.307,-0.132C0.307,-0.145 0.304,-0.155 0.299,-0.163C0.293,-0.171 0.285,-0.178 0.276,-0.184C0.267,-0.189 0.256,-0.194 0.244,-0.197C0.232,-0.2 0.22,-0.203 0.207,-0.206C0.185,-0.211 0.164,-0.216 0.144,-0.222C0.124,-0.228 0.107,-0.236 0.092,-0.246C0.077,-0.255 0.065,-0.268 0.056,-0.283C0.047,-0.298 0.042,-0.318 0.042,-0.342C0.042,-0.365 0.047,-0.385 0.057,-0.402C0.067,-0.419 0.08,-0.434 0.097,-0.445C0.114,-0.456 0.132,-0.465 0.153,-0.471C0.174,-0.477 0.195,-0.48 0.217,-0.48C0.25,-0.48 0.281,-0.473 0.31,-0.46C0.338,-0.447 0.36,-0.425 0.376,-0.395L0.311,-0.352C0.301,-0.369 0.288,-0.382 0.272,-0.393C0.255,-0.403 0.235,-0.408 0.212,-0.408C0.201,-0.408 0.191,-0.407 0.18,-0.404C0.169,-0.401 0.159,-0.397 0.15,-0.392C0.141,-0.387 0.134,-0.38 0.129,-0.372C0.123,-0.363 0.12,-0.354 0.12,-0.343C0.12,-0.333 0.123,-0.325 0.13,-0.318C0.136,-0.311 0.145,-0.304 0.156,-0.299C0.167,-0.294 0.179,-0.289 0.194,-0.285C0.208,-0.281 0.223,-0.278 0.238,-0.275C0.259,-0.271 0.278,-0.266 0.297,-0.26C0.316,-0.253 0.332,-0.245 0.346,-0.234C0.36,-0.223 0.371,-0.21 0.379,-0.194C0.387,-0.178 0.391,-0.158 0.391,-0.135C0.391,-0.108 0.386,-0.086 0.375,-0.067C0.364,-0.048 0.35,-0.033 0.333,-0.022C0.315,-0.01 0.295,-0.001 0.273,0.004C0.25,0.009 0.227,0.012 0.204,0.012C0.164,0.012 0.13,0.006 0.101,-0.007C0.072,-0.019 0.045,-0.042 0.022,-0.075L0.084,-0.123Z" style="fill:rgb(151,140,140);fill-rule:nonzero;"/>
                                            </g>
                                        </g>
                                    </g>
                                </g>
                            </g>
                        </g>
                    </g>
                </g>
                <g id="g-root-ic_down_1hjge6v1m1ik91-fill" transform="matrix(1,0,0,1,226,155)">
                    <g id="ic_down_1hjge6v1m1ik91-fill">
                        <g>
                            <path d="M38.2,10C37.206,10 36.4,10.806 36.4,11.8L36.4,20.55C36.4,20.723 36.26,20.862 36.088,20.862L13.913,20.862C13.74,20.862 13.6,20.723 13.6,20.55L13.6,11.8C13.6,10.806 12.794,10 11.8,10C10.806,10 10,10.806 10,11.8L10,21.4C10.007,23.054 11.346,24.393 13,24.4L23.188,24.4C23.36,24.4 23.5,24.54 23.5,24.713L23.5,32.5C23.5,32.673 23.36,32.813 23.188,32.813L21.7,32.813C20.975,32.821 20.326,33.263 20.053,33.935C19.78,34.606 19.936,35.376 20.45,35.887L24.05,39.487C24.75,40.154 25.85,40.154 26.55,39.488L30.15,35.887C30.664,35.376 30.82,34.606 30.547,33.935C30.274,33.263 29.625,32.821 28.9,32.813L27.413,32.813C27.24,32.813 27.1,32.673 27.1,32.5L27.1,24.713C27.1,24.54 27.24,24.4 27.413,24.4L37,24.4C38.654,24.393 39.993,23.054 40,21.4L40,11.8C40,10.806 39.194,10 38.2,10Z" style="fill:rgb(229,248,255);"/>
                        </g>
                    </g>
                </g>
                <g id="g-root-tx_authorit_4hbopj1m1mu4q-fill" transform="matrix(1,0,0,1,734,134)">
                    <g id="tx_authorit_4hbopj1m1mu4q-fill">
                        <g>
                            <g>
                                <g transform="matrix(1,0,0,1,12,34)">
                                    <g transform="matrix(20,0,0,20,0,0)">
                                        <path d="M0.318,-0.708L0.397,-0.708L0.698,-0L0.6,-0L0.528,-0.174L0.174,-0.174L0.101,-0L0.006,-0L0.318,-0.708ZM0.356,-0.6L0.354,-0.6L0.207,-0.252L0.496,-0.252L0.356,-0.6Z" style="fill:rgb(244,244,244);fill-rule:nonzero;"/>
                                    </g>
                                    <g transform="matrix(20,0,0,20,14.08,0)">
                                        <path d="M0.482,-0.111C0.482,-0.09 0.483,-0.07 0.484,-0.051C0.485,-0.032 0.486,-0.015 0.486,-0L0.412,-0C0.412,-0.013 0.412,-0.025 0.411,-0.038C0.41,-0.051 0.41,-0.064 0.41,-0.077L0.408,-0.077C0.403,-0.066 0.395,-0.055 0.386,-0.044C0.376,-0.033 0.364,-0.024 0.351,-0.016C0.338,-0.007 0.323,-0 0.306,0.005C0.289,0.01 0.271,0.012 0.252,0.012C0.221,0.012 0.195,0.007 0.173,-0.002C0.15,-0.011 0.132,-0.024 0.117,-0.041C0.102,-0.058 0.092,-0.078 0.085,-0.102C0.078,-0.125 0.074,-0.151 0.074,-0.179L0.074,-0.468L0.152,-0.468L0.152,-0.187C0.152,-0.148 0.161,-0.117 0.178,-0.094C0.195,-0.071 0.222,-0.06 0.259,-0.06C0.284,-0.06 0.306,-0.064 0.325,-0.073C0.343,-0.082 0.358,-0.094 0.37,-0.11C0.381,-0.126 0.39,-0.145 0.396,-0.167C0.401,-0.189 0.404,-0.213 0.404,-0.24L0.404,-0.468L0.482,-0.468L0.482,-0.111Z" style="fill:rgb(244,244,244);fill-rule:nonzero;"/>
                                    </g>
                                    <g transform="matrix(20,0,0,20,25.2,0)">
                                        <path d="M0.33,-0.402L0.192,-0.402L0.192,-0.168C0.192,-0.153 0.192,-0.138 0.193,-0.126C0.194,-0.113 0.196,-0.101 0.201,-0.092C0.206,-0.082 0.213,-0.074 0.222,-0.069C0.231,-0.063 0.245,-0.06 0.262,-0.06C0.273,-0.06 0.285,-0.061 0.297,-0.064C0.309,-0.067 0.32,-0.071 0.331,-0.076L0.334,-0.005C0.321,0.001 0.306,0.005 0.29,0.008C0.273,0.011 0.258,0.012 0.243,0.012C0.215,0.012 0.193,0.008 0.176,0.001C0.159,-0.006 0.146,-0.017 0.137,-0.03C0.128,-0.043 0.122,-0.06 0.119,-0.08C0.116,-0.099 0.114,-0.121 0.114,-0.145L0.114,-0.402L0.012,-0.402L0.012,-0.468L0.114,-0.468L0.114,-0.601L0.192,-0.601L0.192,-0.468L0.33,-0.468L0.33,-0.402Z" style="fill:rgb(244,244,244);fill-rule:nonzero;"/>
                                    </g>
                                    <g transform="matrix(20,0,0,20,32.26,0)">
                                        <path d="M0.074,-0.756L0.152,-0.756L0.152,-0.403L0.154,-0.403C0.159,-0.412 0.167,-0.422 0.176,-0.431C0.185,-0.44 0.197,-0.448 0.21,-0.455C0.223,-0.462 0.237,-0.468 0.253,-0.473C0.269,-0.478 0.286,-0.48 0.304,-0.48C0.335,-0.48 0.361,-0.475 0.384,-0.466C0.406,-0.457 0.424,-0.444 0.439,-0.427C0.454,-0.41 0.464,-0.39 0.472,-0.367C0.478,-0.343 0.482,-0.317 0.482,-0.289L0.482,-0L0.404,-0L0.404,-0.281C0.404,-0.32 0.395,-0.351 0.378,-0.374C0.361,-0.397 0.334,-0.408 0.297,-0.408C0.272,-0.408 0.25,-0.404 0.232,-0.395C0.213,-0.386 0.198,-0.374 0.187,-0.358C0.175,-0.342 0.166,-0.323 0.161,-0.301C0.155,-0.279 0.152,-0.255 0.152,-0.228L0.152,-0L0.074,-0L0.074,-0.756Z" style="fill:rgb(244,244,244);fill-rule:nonzero;"/>
                                    </g>
                                    <g transform="matrix(20,0,0,20,43.38,0)">
                                        <path d="M0.047,-0.234C0.047,-0.271 0.053,-0.304 0.066,-0.334C0.079,-0.364 0.096,-0.39 0.118,-0.412C0.14,-0.433 0.166,-0.45 0.197,-0.462C0.228,-0.474 0.261,-0.48 0.297,-0.48C0.333,-0.48 0.366,-0.474 0.397,-0.462C0.428,-0.45 0.454,-0.433 0.476,-0.412C0.498,-0.39 0.515,-0.364 0.528,-0.334C0.541,-0.304 0.547,-0.271 0.547,-0.234C0.547,-0.197 0.541,-0.164 0.528,-0.134C0.515,-0.104 0.498,-0.078 0.476,-0.057C0.454,-0.035 0.428,-0.018 0.397,-0.006C0.366,0.006 0.333,0.012 0.297,0.012C0.261,0.012 0.228,0.006 0.197,-0.006C0.166,-0.018 0.14,-0.035 0.118,-0.057C0.096,-0.078 0.079,-0.104 0.066,-0.134C0.053,-0.164 0.047,-0.197 0.047,-0.234ZM0.131,-0.234C0.131,-0.209 0.135,-0.187 0.143,-0.166C0.15,-0.145 0.161,-0.126 0.176,-0.111C0.191,-0.095 0.208,-0.083 0.229,-0.074C0.249,-0.065 0.272,-0.06 0.297,-0.06C0.322,-0.06 0.345,-0.065 0.366,-0.074C0.386,-0.083 0.403,-0.095 0.418,-0.111C0.433,-0.126 0.444,-0.145 0.452,-0.166C0.459,-0.187 0.463,-0.209 0.463,-0.234C0.463,-0.259 0.459,-0.282 0.452,-0.303C0.444,-0.324 0.433,-0.342 0.418,-0.358C0.403,-0.373 0.386,-0.386 0.366,-0.395C0.345,-0.404 0.322,-0.408 0.297,-0.408C0.272,-0.408 0.249,-0.404 0.229,-0.395C0.208,-0.386 0.191,-0.373 0.176,-0.358C0.161,-0.342 0.15,-0.324 0.143,-0.303C0.135,-0.282 0.131,-0.259 0.131,-0.234Z" style="fill:rgb(244,244,244);fill-rule:nonzero;"/>
                                    </g>
                                    <g transform="matrix(20,0,0,20,55.26,0)">
                                        <path d="M0.074,-0.357C0.074,-0.378 0.073,-0.398 0.072,-0.417C0.071,-0.436 0.07,-0.453 0.07,-0.468L0.144,-0.468C0.144,-0.455 0.144,-0.443 0.145,-0.43C0.146,-0.417 0.146,-0.404 0.146,-0.391L0.148,-0.391C0.153,-0.402 0.161,-0.413 0.171,-0.424C0.18,-0.435 0.192,-0.444 0.205,-0.453C0.218,-0.461 0.233,-0.468 0.25,-0.473C0.267,-0.478 0.285,-0.48 0.304,-0.48C0.309,-0.48 0.315,-0.48 0.32,-0.479C0.325,-0.478 0.331,-0.477 0.336,-0.475L0.331,-0.396C0.318,-0.4 0.304,-0.402 0.289,-0.402C0.241,-0.402 0.206,-0.387 0.185,-0.356C0.163,-0.325 0.152,-0.282 0.152,-0.228L0.152,-0L0.074,-0L0.074,-0.357Z" style="fill:rgb(244,244,244);fill-rule:nonzero;"/>
                                    </g>
                                    <g transform="matrix(20,0,0,20,62.3,0)">
                                        <path d="M0.081,-0.468L0.159,-0.468L0.159,-0L0.081,-0L0.081,-0.468ZM0.063,-0.651C0.063,-0.666 0.069,-0.68 0.08,-0.691C0.091,-0.702 0.104,-0.708 0.12,-0.708C0.136,-0.708 0.15,-0.702 0.161,-0.691C0.171,-0.68 0.177,-0.666 0.177,-0.651C0.177,-0.634 0.172,-0.621 0.161,-0.61C0.15,-0.599 0.137,-0.594 0.12,-0.594C0.103,-0.594 0.09,-0.599 0.079,-0.61C0.068,-0.621 0.063,-0.634 0.063,-0.651Z" style="fill:rgb(244,244,244);fill-rule:nonzero;"/>
                                    </g>
                                    <g transform="matrix(20,0,0,20,67.1,0)">
                                        <path d="M0.33,-0.402L0.192,-0.402L0.192,-0.168C0.192,-0.153 0.192,-0.138 0.193,-0.126C0.194,-0.113 0.196,-0.101 0.201,-0.092C0.206,-0.082 0.213,-0.074 0.222,-0.069C0.231,-0.063 0.245,-0.06 0.262,-0.06C0.273,-0.06 0.285,-0.061 0.297,-0.064C0.309,-0.067 0.32,-0.071 0.331,-0.076L0.334,-0.005C0.321,0.001 0.306,0.005 0.29,0.008C0.273,0.011 0.258,0.012 0.243,0.012C0.215,0.012 0.193,0.008 0.176,0.001C0.159,-0.006 0.146,-0.017 0.137,-0.03C0.128,-0.043 0.122,-0.06 0.119,-0.08C0.116,-0.099 0.114,-0.121 0.114,-0.145L0.114,-0.402L0.012,-0.402L0.012,-0.468L0.114,-0.468L0.114,-0.601L0.192,-0.601L0.192,-0.468L0.33,-0.468L0.33,-0.402Z" style="fill:rgb(244,244,244);fill-rule:nonzero;"/>
                                    </g>
                                    <g transform="matrix(20,0,0,20,74.14,0)">
                                        <path d="M0.068,-0.408C0.092,-0.433 0.121,-0.451 0.154,-0.463C0.187,-0.474 0.22,-0.48 0.254,-0.48C0.323,-0.48 0.373,-0.464 0.404,-0.431C0.435,-0.398 0.45,-0.349 0.45,-0.282L0.45,-0.081C0.45,-0.068 0.451,-0.054 0.452,-0.04C0.453,-0.025 0.455,-0.012 0.457,-0L0.382,-0C0.379,-0.011 0.378,-0.023 0.378,-0.036C0.377,-0.049 0.377,-0.06 0.377,-0.07L0.375,-0.07C0.36,-0.046 0.339,-0.026 0.314,-0.011C0.288,0.004 0.257,0.012 0.221,0.012C0.197,0.012 0.174,0.009 0.154,0.003C0.132,-0.003 0.114,-0.012 0.099,-0.024C0.083,-0.035 0.07,-0.05 0.061,-0.067C0.052,-0.084 0.047,-0.104 0.047,-0.127C0.047,-0.166 0.057,-0.196 0.077,-0.218C0.097,-0.24 0.122,-0.256 0.152,-0.267C0.181,-0.278 0.213,-0.284 0.248,-0.287C0.282,-0.29 0.313,-0.291 0.342,-0.291L0.372,-0.291L0.372,-0.305C0.372,-0.339 0.362,-0.365 0.342,-0.382C0.321,-0.399 0.293,-0.408 0.256,-0.408C0.231,-0.408 0.206,-0.404 0.182,-0.396C0.157,-0.387 0.136,-0.374 0.117,-0.357L0.068,-0.408ZM0.294,-0.225C0.244,-0.225 0.204,-0.218 0.175,-0.204C0.146,-0.19 0.131,-0.167 0.131,-0.135C0.131,-0.106 0.141,-0.085 0.161,-0.073C0.18,-0.06 0.205,-0.054 0.234,-0.054C0.257,-0.054 0.277,-0.058 0.294,-0.066C0.311,-0.073 0.325,-0.083 0.336,-0.096C0.347,-0.109 0.356,-0.124 0.362,-0.141C0.368,-0.158 0.371,-0.176 0.372,-0.195L0.372,-0.225L0.294,-0.225Z" style="fill:rgb(244,244,244);fill-rule:nonzero;"/>
                                    </g>
                                    <g transform="matrix(20,0,0,20,84.52,0)">
                                        <path d="M0.33,-0.402L0.192,-0.402L0.192,-0.168C0.192,-0.153 0.192,-0.138 0.193,-0.126C0.194,-0.113 0.196,-0.101 0.201,-0.092C0.206,-0.082 0.213,-0.074 0.222,-0.069C0.231,-0.063 0.245,-0.06 0.262,-0.06C0.273,-0.06 0.285,-0.061 0.297,-0.064C0.309,-0.067 0.32,-0.071 0.331,-0.076L0.334,-0.005C0.321,0.001 0.306,0.005 0.29,0.008C0.273,0.011 0.258,0.012 0.243,0.012C0.215,0.012 0.193,0.008 0.176,0.001C0.159,-0.006 0.146,-0.017 0.137,-0.03C0.128,-0.043 0.122,-0.06 0.119,-0.08C0.116,-0.099 0.114,-0.121 0.114,-0.145L0.114,-0.402L0.012,-0.402L0.012,-0.468L0.114,-0.468L0.114,-0.601L0.192,-0.601L0.192,-0.468L0.33,-0.468L0.33,-0.402Z" style="fill:rgb(244,244,244);fill-rule:nonzero;"/>
                                    </g>
                                    <g transform="matrix(20,0,0,20,91.58,0)">
                                        <path d="M0.081,-0.468L0.159,-0.468L0.159,-0L0.081,-0L0.081,-0.468ZM0.063,-0.651C0.063,-0.666 0.069,-0.68 0.08,-0.691C0.091,-0.702 0.104,-0.708 0.12,-0.708C0.136,-0.708 0.15,-0.702 0.161,-0.691C0.171,-0.68 0.177,-0.666 0.177,-0.651C0.177,-0.634 0.172,-0.621 0.161,-0.61C0.15,-0.599 0.137,-0.594 0.12,-0.594C0.103,-0.594 0.09,-0.599 0.079,-0.61C0.068,-0.621 0.063,-0.634 0.063,-0.651Z" style="fill:rgb(244,244,244);fill-rule:nonzero;"/>
                                    </g>
                                    <g transform="matrix(20,0,0,20,96.38,0)">
                                        <path d="M0.287,-0L0.201,-0L0.01,-0.468L0.101,-0.468L0.247,-0.101L0.249,-0.101L0.388,-0.468L0.472,-0.468L0.287,-0Z" style="fill:rgb(244,244,244);fill-rule:nonzero;"/>
                                    </g>
                                    <g transform="matrix(20,0,0,20,106.02,0)">
                                        <path d="M0.492,-0.085C0.464,-0.049 0.433,-0.024 0.4,-0.01C0.367,0.005 0.328,0.012 0.284,0.012C0.247,0.012 0.214,0.006 0.185,-0.008C0.156,-0.021 0.131,-0.038 0.111,-0.06C0.09,-0.082 0.075,-0.108 0.064,-0.138C0.053,-0.168 0.047,-0.2 0.047,-0.234C0.047,-0.27 0.053,-0.303 0.065,-0.334C0.077,-0.364 0.094,-0.39 0.115,-0.412C0.136,-0.433 0.162,-0.45 0.191,-0.462C0.22,-0.474 0.252,-0.48 0.287,-0.48C0.32,-0.48 0.35,-0.474 0.377,-0.464C0.404,-0.452 0.428,-0.437 0.448,-0.416C0.467,-0.395 0.482,-0.369 0.493,-0.339C0.504,-0.308 0.509,-0.274 0.509,-0.235L0.509,-0.21L0.131,-0.21C0.132,-0.19 0.137,-0.171 0.146,-0.153C0.154,-0.134 0.165,-0.118 0.178,-0.105C0.191,-0.091 0.207,-0.08 0.225,-0.072C0.243,-0.064 0.263,-0.06 0.284,-0.06C0.318,-0.06 0.347,-0.066 0.37,-0.078C0.393,-0.09 0.414,-0.108 0.433,-0.131L0.492,-0.085ZM0.425,-0.276C0.424,-0.316 0.411,-0.348 0.386,-0.372C0.361,-0.396 0.327,-0.408 0.284,-0.408C0.241,-0.408 0.206,-0.396 0.179,-0.372C0.152,-0.348 0.136,-0.316 0.131,-0.276L0.425,-0.276Z" style="fill:rgb(244,244,244);fill-rule:nonzero;"/>
                                    </g>
                                </g>
                                <g transform="matrix(1,0,0,1,12,58)">
                                    <g transform="matrix(20,0,0,20,0,0)">
                                        <path d="M0.088,-0.708L0.194,-0.708L0.604,-0.12L0.606,-0.12L0.606,-0.708L0.69,-0.708L0.69,-0L0.584,-0L0.174,-0.588L0.172,-0.588L0.172,-0L0.088,-0L0.088,-0.708Z" style="fill:rgb(244,244,244);fill-rule:nonzero;"/>
                                    </g>
                                    <g transform="matrix(20,0,0,20,15.56,0)">
                                        <path d="M0.068,-0.408C0.092,-0.433 0.121,-0.451 0.154,-0.463C0.187,-0.474 0.22,-0.48 0.254,-0.48C0.323,-0.48 0.373,-0.464 0.404,-0.431C0.435,-0.398 0.45,-0.349 0.45,-0.282L0.45,-0.081C0.45,-0.068 0.451,-0.054 0.452,-0.04C0.453,-0.025 0.455,-0.012 0.457,-0L0.382,-0C0.379,-0.011 0.378,-0.023 0.378,-0.036C0.377,-0.049 0.377,-0.06 0.377,-0.07L0.375,-0.07C0.36,-0.046 0.339,-0.026 0.314,-0.011C0.288,0.004 0.257,0.012 0.221,0.012C0.197,0.012 0.174,0.009 0.154,0.003C0.132,-0.003 0.114,-0.012 0.099,-0.024C0.083,-0.035 0.07,-0.05 0.061,-0.067C0.052,-0.084 0.047,-0.104 0.047,-0.127C0.047,-0.166 0.057,-0.196 0.077,-0.218C0.097,-0.24 0.122,-0.256 0.152,-0.267C0.181,-0.278 0.213,-0.284 0.248,-0.287C0.282,-0.29 0.313,-0.291 0.342,-0.291L0.372,-0.291L0.372,-0.305C0.372,-0.339 0.362,-0.365 0.342,-0.382C0.321,-0.399 0.293,-0.408 0.256,-0.408C0.231,-0.408 0.206,-0.404 0.182,-0.396C0.157,-0.387 0.136,-0.374 0.117,-0.357L0.068,-0.408ZM0.294,-0.225C0.244,-0.225 0.204,-0.218 0.175,-0.204C0.146,-0.19 0.131,-0.167 0.131,-0.135C0.131,-0.106 0.141,-0.085 0.161,-0.073C0.18,-0.06 0.205,-0.054 0.234,-0.054C0.257,-0.054 0.277,-0.058 0.294,-0.066C0.311,-0.073 0.325,-0.083 0.336,-0.096C0.347,-0.109 0.356,-0.124 0.362,-0.141C0.368,-0.158 0.371,-0.176 0.372,-0.195L0.372,-0.225L0.294,-0.225Z" style="fill:rgb(244,244,244);fill-rule:nonzero;"/>
                                    </g>
                                    <g transform="matrix(20,0,0,20,25.94,0)">
                                        <path d="M0.074,-0.357C0.074,-0.378 0.073,-0.398 0.072,-0.417C0.071,-0.436 0.07,-0.453 0.07,-0.468L0.144,-0.468C0.144,-0.455 0.144,-0.443 0.145,-0.43C0.146,-0.417 0.146,-0.404 0.146,-0.391L0.148,-0.391C0.153,-0.402 0.161,-0.413 0.171,-0.424C0.18,-0.435 0.192,-0.444 0.205,-0.453C0.218,-0.461 0.233,-0.468 0.25,-0.473C0.267,-0.478 0.285,-0.48 0.304,-0.48C0.329,-0.48 0.351,-0.477 0.368,-0.471C0.385,-0.464 0.399,-0.456 0.41,-0.448C0.421,-0.439 0.43,-0.429 0.437,-0.419C0.443,-0.408 0.448,-0.399 0.452,-0.391C0.469,-0.419 0.489,-0.441 0.512,-0.457C0.535,-0.472 0.564,-0.48 0.6,-0.48C0.633,-0.48 0.661,-0.475 0.684,-0.467C0.707,-0.458 0.725,-0.444 0.739,-0.428C0.753,-0.411 0.763,-0.39 0.769,-0.366C0.775,-0.341 0.778,-0.314 0.778,-0.284L0.778,-0L0.7,-0L0.7,-0.28C0.7,-0.296 0.698,-0.312 0.695,-0.327C0.692,-0.342 0.686,-0.356 0.677,-0.368C0.668,-0.38 0.657,-0.39 0.642,-0.397C0.627,-0.404 0.609,-0.408 0.586,-0.408C0.569,-0.408 0.554,-0.405 0.539,-0.398C0.524,-0.391 0.511,-0.382 0.501,-0.37C0.49,-0.358 0.481,-0.343 0.475,-0.327C0.468,-0.31 0.465,-0.291 0.465,-0.27L0.465,-0L0.387,-0L0.387,-0.265C0.387,-0.317 0.38,-0.354 0.366,-0.376C0.352,-0.397 0.329,-0.408 0.297,-0.408C0.272,-0.408 0.25,-0.404 0.232,-0.395C0.213,-0.386 0.198,-0.374 0.187,-0.358C0.175,-0.342 0.166,-0.323 0.161,-0.301C0.155,-0.279 0.152,-0.255 0.152,-0.228L0.152,-0L0.074,-0L0.074,-0.357Z" style="fill:rgb(244,244,244);fill-rule:nonzero;"/>
                                    </g>
                                    <g transform="matrix(20,0,0,20,42.98,0)">
                                        <path d="M0.492,-0.085C0.464,-0.049 0.433,-0.024 0.4,-0.01C0.367,0.005 0.328,0.012 0.284,0.012C0.247,0.012 0.214,0.006 0.185,-0.008C0.156,-0.021 0.131,-0.038 0.111,-0.06C0.09,-0.082 0.075,-0.108 0.064,-0.138C0.053,-0.168 0.047,-0.2 0.047,-0.234C0.047,-0.27 0.053,-0.303 0.065,-0.334C0.077,-0.364 0.094,-0.39 0.115,-0.412C0.136,-0.433 0.162,-0.45 0.191,-0.462C0.22,-0.474 0.252,-0.48 0.287,-0.48C0.32,-0.48 0.35,-0.474 0.377,-0.464C0.404,-0.452 0.428,-0.437 0.448,-0.416C0.467,-0.395 0.482,-0.369 0.493,-0.339C0.504,-0.308 0.509,-0.274 0.509,-0.235L0.509,-0.21L0.131,-0.21C0.132,-0.19 0.137,-0.171 0.146,-0.153C0.154,-0.134 0.165,-0.118 0.178,-0.105C0.191,-0.091 0.207,-0.08 0.225,-0.072C0.243,-0.064 0.263,-0.06 0.284,-0.06C0.318,-0.06 0.347,-0.066 0.37,-0.078C0.393,-0.09 0.414,-0.108 0.433,-0.131L0.492,-0.085ZM0.425,-0.276C0.424,-0.316 0.411,-0.348 0.386,-0.372C0.361,-0.396 0.327,-0.408 0.284,-0.408C0.241,-0.408 0.206,-0.396 0.179,-0.372C0.152,-0.348 0.136,-0.316 0.131,-0.276L0.425,-0.276Z" style="fill:rgb(244,244,244);fill-rule:nonzero;"/>
                                    </g>
                                </g>
                                <g transform="matrix(1,0,0,1,12,82)">
                                    <g transform="matrix(20,0,0,20,0,0)">
                                        <path d="M0.424,-0.583C0.41,-0.606 0.391,-0.622 0.368,-0.633C0.345,-0.643 0.32,-0.648 0.295,-0.648C0.276,-0.648 0.258,-0.646 0.24,-0.641C0.222,-0.636 0.206,-0.629 0.192,-0.62C0.177,-0.611 0.166,-0.598 0.157,-0.583C0.148,-0.568 0.144,-0.55 0.144,-0.529C0.144,-0.513 0.147,-0.499 0.152,-0.487C0.157,-0.474 0.165,-0.463 0.176,-0.453C0.187,-0.443 0.203,-0.434 0.222,-0.425C0.241,-0.416 0.265,-0.408 0.293,-0.399C0.32,-0.39 0.347,-0.381 0.373,-0.371C0.398,-0.361 0.421,-0.348 0.441,-0.333C0.46,-0.318 0.476,-0.299 0.488,-0.276C0.499,-0.253 0.505,-0.224 0.505,-0.189C0.505,-0.154 0.498,-0.123 0.484,-0.097C0.47,-0.071 0.452,-0.05 0.429,-0.033C0.405,-0.016 0.379,-0.003 0.349,0.006C0.319,0.014 0.288,0.018 0.256,0.018C0.235,0.018 0.215,0.016 0.194,0.013C0.173,0.009 0.154,0.003 0.135,-0.005C0.116,-0.012 0.098,-0.022 0.081,-0.035C0.064,-0.047 0.05,-0.062 0.038,-0.08L0.11,-0.139C0.125,-0.113 0.147,-0.093 0.174,-0.08C0.201,-0.067 0.23,-0.06 0.261,-0.06C0.279,-0.06 0.297,-0.063 0.316,-0.068C0.334,-0.073 0.35,-0.081 0.365,-0.092C0.38,-0.102 0.392,-0.115 0.401,-0.13C0.41,-0.145 0.415,-0.163 0.415,-0.183C0.415,-0.205 0.411,-0.223 0.404,-0.237C0.397,-0.25 0.385,-0.262 0.37,-0.272C0.355,-0.282 0.335,-0.291 0.312,-0.299C0.289,-0.307 0.261,-0.316 0.23,-0.327C0.205,-0.335 0.181,-0.344 0.16,-0.355C0.139,-0.365 0.12,-0.378 0.105,-0.393C0.089,-0.408 0.077,-0.426 0.068,-0.447C0.058,-0.468 0.054,-0.493 0.054,-0.522C0.054,-0.556 0.061,-0.586 0.074,-0.611C0.087,-0.636 0.105,-0.658 0.128,-0.675C0.151,-0.692 0.176,-0.704 0.205,-0.713C0.234,-0.722 0.264,-0.726 0.295,-0.726C0.335,-0.726 0.372,-0.72 0.405,-0.708C0.438,-0.695 0.467,-0.674 0.493,-0.643L0.424,-0.583Z" style="fill:rgb(244,244,244);fill-rule:nonzero;"/>
                                    </g>
                                    <g transform="matrix(20,0,0,20,11.12,0)">
                                        <path d="M0.492,-0.085C0.464,-0.049 0.433,-0.024 0.4,-0.01C0.367,0.005 0.328,0.012 0.284,0.012C0.247,0.012 0.214,0.006 0.185,-0.008C0.156,-0.021 0.131,-0.038 0.111,-0.06C0.09,-0.082 0.075,-0.108 0.064,-0.138C0.053,-0.168 0.047,-0.2 0.047,-0.234C0.047,-0.27 0.053,-0.303 0.065,-0.334C0.077,-0.364 0.094,-0.39 0.115,-0.412C0.136,-0.433 0.162,-0.45 0.191,-0.462C0.22,-0.474 0.252,-0.48 0.287,-0.48C0.32,-0.48 0.35,-0.474 0.377,-0.464C0.404,-0.452 0.428,-0.437 0.448,-0.416C0.467,-0.395 0.482,-0.369 0.493,-0.339C0.504,-0.308 0.509,-0.274 0.509,-0.235L0.509,-0.21L0.131,-0.21C0.132,-0.19 0.137,-0.171 0.146,-0.153C0.154,-0.134 0.165,-0.118 0.178,-0.105C0.191,-0.091 0.207,-0.08 0.225,-0.072C0.243,-0.064 0.263,-0.06 0.284,-0.06C0.318,-0.06 0.347,-0.066 0.37,-0.078C0.393,-0.09 0.414,-0.108 0.433,-0.131L0.492,-0.085ZM0.425,-0.276C0.424,-0.316 0.411,-0.348 0.386,-0.372C0.361,-0.396 0.327,-0.408 0.284,-0.408C0.241,-0.408 0.206,-0.396 0.179,-0.372C0.152,-0.348 0.136,-0.316 0.131,-0.276L0.425,-0.276Z" style="fill:rgb(244,244,244);fill-rule:nonzero;"/>
                                    </g>
                                    <g transform="matrix(20,0,0,20,22.24,0)">
                                        <path d="M0.074,-0.357C0.074,-0.378 0.073,-0.398 0.072,-0.417C0.071,-0.436 0.07,-0.453 0.07,-0.468L0.144,-0.468C0.144,-0.455 0.144,-0.443 0.145,-0.43C0.146,-0.417 0.146,-0.404 0.146,-0.391L0.148,-0.391C0.153,-0.402 0.161,-0.413 0.171,-0.424C0.18,-0.435 0.192,-0.444 0.205,-0.453C0.218,-0.461 0.233,-0.468 0.25,-0.473C0.267,-0.478 0.285,-0.48 0.304,-0.48C0.309,-0.48 0.315,-0.48 0.32,-0.479C0.325,-0.478 0.331,-0.477 0.336,-0.475L0.331,-0.396C0.318,-0.4 0.304,-0.402 0.289,-0.402C0.241,-0.402 0.206,-0.387 0.185,-0.356C0.163,-0.325 0.152,-0.282 0.152,-0.228L0.152,-0L0.074,-0L0.074,-0.357Z" style="fill:rgb(244,244,244);fill-rule:nonzero;"/>
                                    </g>
                                    <g transform="matrix(20,0,0,20,29.28,0)">
                                        <path d="M0.287,-0L0.201,-0L0.01,-0.468L0.101,-0.468L0.247,-0.101L0.249,-0.101L0.388,-0.468L0.472,-0.468L0.287,-0Z" style="fill:rgb(244,244,244);fill-rule:nonzero;"/>
                                    </g>
                                    <g transform="matrix(20,0,0,20,38.92,0)">
                                        <path d="M0.492,-0.085C0.464,-0.049 0.433,-0.024 0.4,-0.01C0.367,0.005 0.328,0.012 0.284,0.012C0.247,0.012 0.214,0.006 0.185,-0.008C0.156,-0.021 0.131,-0.038 0.111,-0.06C0.09,-0.082 0.075,-0.108 0.064,-0.138C0.053,-0.168 0.047,-0.2 0.047,-0.234C0.047,-0.27 0.053,-0.303 0.065,-0.334C0.077,-0.364 0.094,-0.39 0.115,-0.412C0.136,-0.433 0.162,-0.45 0.191,-0.462C0.22,-0.474 0.252,-0.48 0.287,-0.48C0.32,-0.48 0.35,-0.474 0.377,-0.464C0.404,-0.452 0.428,-0.437 0.448,-0.416C0.467,-0.395 0.482,-0.369 0.493,-0.339C0.504,-0.308 0.509,-0.274 0.509,-0.235L0.509,-0.21L0.131,-0.21C0.132,-0.19 0.137,-0.171 0.146,-0.153C0.154,-0.134 0.165,-0.118 0.178,-0.105C0.191,-0.091 0.207,-0.08 0.225,-0.072C0.243,-0.064 0.263,-0.06 0.284,-0.06C0.318,-0.06 0.347,-0.066 0.37,-0.078C0.393,-0.09 0.414,-0.108 0.433,-0.131L0.492,-0.085ZM0.425,-0.276C0.424,-0.316 0.411,-0.348 0.386,-0.372C0.361,-0.396 0.327,-0.408 0.284,-0.408C0.241,-0.408 0.206,-0.396 0.179,-0.372C0.152,-0.348 0.136,-0.316 0.131,-0.276L0.425,-0.276Z" style="fill:rgb(244,244,244);fill-rule:nonzero;"/>
                                    </g>
                                    <g transform="matrix(20,0,0,20,50.04,0)">
                                        <path d="M0.074,-0.357C0.074,-0.378 0.073,-0.398 0.072,-0.417C0.071,-0.436 0.07,-0.453 0.07,-0.468L0.144,-0.468C0.144,-0.455 0.144,-0.443 0.145,-0.43C0.146,-0.417 0.146,-0.404 0.146,-0.391L0.148,-0.391C0.153,-0.402 0.161,-0.413 0.171,-0.424C0.18,-0.435 0.192,-0.444 0.205,-0.453C0.218,-0.461 0.233,-0.468 0.25,-0.473C0.267,-0.478 0.285,-0.48 0.304,-0.48C0.309,-0.48 0.315,-0.48 0.32,-0.479C0.325,-0.478 0.331,-0.477 0.336,-0.475L0.331,-0.396C0.318,-0.4 0.304,-0.402 0.289,-0.402C0.241,-0.402 0.206,-0.387 0.185,-0.356C0.163,-0.325 0.152,-0.282 0.152,-0.228L0.152,-0L0.074,-0L0.074,-0.357Z" style="fill:rgb(244,244,244);fill-rule:nonzero;"/>
                                    </g>
                                    <g transform="matrix(20,0,0,20,57.08,0)">
                                        <path d="M0.084,-0.123C0.099,-0.104 0.116,-0.088 0.135,-0.077C0.153,-0.066 0.176,-0.06 0.204,-0.06C0.216,-0.06 0.228,-0.061 0.241,-0.064C0.253,-0.067 0.264,-0.071 0.274,-0.077C0.284,-0.083 0.292,-0.091 0.298,-0.1C0.304,-0.109 0.307,-0.119 0.307,-0.132C0.307,-0.145 0.304,-0.155 0.299,-0.163C0.293,-0.171 0.285,-0.178 0.276,-0.184C0.267,-0.189 0.256,-0.194 0.244,-0.197C0.232,-0.2 0.22,-0.203 0.207,-0.206C0.185,-0.211 0.164,-0.216 0.144,-0.222C0.124,-0.228 0.107,-0.236 0.092,-0.246C0.077,-0.255 0.065,-0.268 0.056,-0.283C0.047,-0.298 0.042,-0.318 0.042,-0.342C0.042,-0.365 0.047,-0.385 0.057,-0.402C0.067,-0.419 0.08,-0.434 0.097,-0.445C0.114,-0.456 0.132,-0.465 0.153,-0.471C0.174,-0.477 0.195,-0.48 0.217,-0.48C0.25,-0.48 0.281,-0.473 0.31,-0.46C0.338,-0.447 0.36,-0.425 0.376,-0.395L0.311,-0.352C0.301,-0.369 0.288,-0.382 0.272,-0.393C0.255,-0.403 0.235,-0.408 0.212,-0.408C0.201,-0.408 0.191,-0.407 0.18,-0.404C0.169,-0.401 0.159,-0.397 0.15,-0.392C0.141,-0.387 0.134,-0.38 0.129,-0.372C0.123,-0.363 0.12,-0.354 0.12,-0.343C0.12,-0.333 0.123,-0.325 0.13,-0.318C0.136,-0.311 0.145,-0.304 0.156,-0.299C0.167,-0.294 0.179,-0.289 0.194,-0.285C0.208,-0.281 0.223,-0.278 0.238,-0.275C0.259,-0.271 0.278,-0.266 0.297,-0.26C0.316,-0.253 0.332,-0.245 0.346,-0.234C0.36,-0.223 0.371,-0.21 0.379,-0.194C0.387,-0.178 0.391,-0.158 0.391,-0.135C0.391,-0.108 0.386,-0.086 0.375,-0.067C0.364,-0.048 0.35,-0.033 0.333,-0.022C0.315,-0.01 0.295,-0.001 0.273,0.004C0.25,0.009 0.227,0.012 0.204,0.012C0.164,0.012 0.13,0.006 0.101,-0.007C0.072,-0.019 0.045,-0.042 0.022,-0.075L0.084,-0.123Z" style="fill:rgb(244,244,244);fill-rule:nonzero;"/>
                                    </g>
                                </g>
                            </g>
                        </g>
                    </g>
                </g>
                <g id="g-root-tx_dnsresol_146quhj1m23nd5-fill" transform="matrix(1,0,0,1,62,146)">
                    <g id="tx_dnsresol_146quhj1m23nd5-fill">
                        <g>
                            <g>
                                <g transform="matrix(1,0,0,1,12,34)">
                                    <g transform="matrix(20,0,0,20,0,0)">
                                        <path d="M0.075,-0.708L0.347,-0.708C0.37,-0.708 0.395,-0.705 0.421,-0.7C0.447,-0.695 0.473,-0.686 0.499,-0.675C0.524,-0.663 0.549,-0.648 0.573,-0.629C0.596,-0.61 0.617,-0.588 0.635,-0.562C0.653,-0.535 0.667,-0.505 0.678,-0.471C0.689,-0.436 0.694,-0.397 0.694,-0.354C0.694,-0.311 0.689,-0.272 0.678,-0.238C0.667,-0.203 0.653,-0.173 0.635,-0.147C0.617,-0.12 0.596,-0.098 0.573,-0.079C0.549,-0.06 0.524,-0.045 0.499,-0.034C0.473,-0.022 0.447,-0.013 0.421,-0.008C0.395,-0.003 0.37,-0 0.347,-0L0.075,-0L0.075,-0.708ZM0.159,-0.078L0.319,-0.078C0.36,-0.078 0.397,-0.083 0.432,-0.094C0.467,-0.105 0.497,-0.121 0.522,-0.144C0.547,-0.166 0.567,-0.194 0.582,-0.229C0.597,-0.264 0.604,-0.305 0.604,-0.354C0.604,-0.403 0.597,-0.444 0.582,-0.479C0.567,-0.514 0.547,-0.542 0.522,-0.565C0.497,-0.587 0.467,-0.603 0.432,-0.614C0.397,-0.625 0.36,-0.63 0.319,-0.63L0.159,-0.63L0.159,-0.078Z" style="fill:rgb(244,244,244);fill-rule:nonzero;"/>
                                    </g>
                                    <g transform="matrix(20,0,0,20,14.82,0)">
                                        <path d="M0.088,-0.708L0.194,-0.708L0.604,-0.12L0.606,-0.12L0.606,-0.708L0.69,-0.708L0.69,-0L0.584,-0L0.174,-0.588L0.172,-0.588L0.172,-0L0.088,-0L0.088,-0.708Z" style="fill:rgb(244,244,244);fill-rule:nonzero;"/>
                                    </g>
                                    <g transform="matrix(20,0,0,20,30.38,0)">
                                        <path d="M0.424,-0.583C0.41,-0.606 0.391,-0.622 0.368,-0.633C0.345,-0.643 0.32,-0.648 0.295,-0.648C0.276,-0.648 0.258,-0.646 0.24,-0.641C0.222,-0.636 0.206,-0.629 0.192,-0.62C0.177,-0.611 0.166,-0.598 0.157,-0.583C0.148,-0.568 0.144,-0.55 0.144,-0.529C0.144,-0.513 0.147,-0.499 0.152,-0.487C0.157,-0.474 0.165,-0.463 0.176,-0.453C0.187,-0.443 0.203,-0.434 0.222,-0.425C0.241,-0.416 0.265,-0.408 0.293,-0.399C0.32,-0.39 0.347,-0.381 0.373,-0.371C0.398,-0.361 0.421,-0.348 0.441,-0.333C0.46,-0.318 0.476,-0.299 0.488,-0.276C0.499,-0.253 0.505,-0.224 0.505,-0.189C0.505,-0.154 0.498,-0.123 0.484,-0.097C0.47,-0.071 0.452,-0.05 0.429,-0.033C0.405,-0.016 0.379,-0.003 0.349,0.006C0.319,0.014 0.288,0.018 0.256,0.018C0.235,0.018 0.215,0.016 0.194,0.013C0.173,0.009 0.154,0.003 0.135,-0.005C0.116,-0.012 0.098,-0.022 0.081,-0.035C0.064,-0.047 0.05,-0.062 0.038,-0.08L0.11,-0.139C0.125,-0.113 0.147,-0.093 0.174,-0.08C0.201,-0.067 0.23,-0.06 0.261,-0.06C0.279,-0.06 0.297,-0.063 0.316,-0.068C0.334,-0.073 0.35,-0.081 0.365,-0.092C0.38,-0.102 0.392,-0.115 0.401,-0.13C0.41,-0.145 0.415,-0.163 0.415,-0.183C0.415,-0.205 0.411,-0.223 0.404,-0.237C0.397,-0.25 0.385,-0.262 0.37,-0.272C0.355,-0.282 0.335,-0.291 0.312,-0.299C0.289,-0.307 0.261,-0.316 0.23,-0.327C0.205,-0.335 0.181,-0.344 0.16,-0.355C0.139,-0.365 0.12,-0.378 0.105,-0.393C0.089,-0.408 0.077,-0.426 0.068,-0.447C0.058,-0.468 0.054,-0.493 0.054,-0.522C0.054,-0.556 0.061,-0.586 0.074,-0.611C0.087,-0.636 0.105,-0.658 0.128,-0.675C0.151,-0.692 0.176,-0.704 0.205,-0.713C0.234,-0.722 0.264,-0.726 0.295,-0.726C0.335,-0.726 0.372,-0.72 0.405,-0.708C0.438,-0.695 0.467,-0.674 0.493,-0.643L0.424,-0.583Z" style="fill:rgb(244,244,244);fill-rule:nonzero;"/>
                                    </g>
                                </g>
                                <g transform="matrix(1,0,0,1,12,58)">
                                    <g transform="matrix(20,0,0,20,0,0)">
                                        <path d="M0.088,-0.708L0.269,-0.708C0.303,-0.708 0.337,-0.706 0.371,-0.702C0.404,-0.698 0.434,-0.689 0.461,-0.676C0.488,-0.663 0.509,-0.643 0.526,-0.618C0.543,-0.592 0.551,-0.557 0.551,-0.513C0.551,-0.461 0.535,-0.419 0.504,-0.387C0.473,-0.355 0.429,-0.335 0.374,-0.326L0.575,-0L0.472,-0L0.28,-0.318L0.172,-0.318L0.172,-0L0.088,-0L0.088,-0.708ZM0.172,-0.396L0.247,-0.396C0.27,-0.396 0.295,-0.397 0.32,-0.398C0.345,-0.399 0.368,-0.404 0.389,-0.411C0.409,-0.418 0.427,-0.43 0.441,-0.446C0.454,-0.461 0.461,-0.484 0.461,-0.513C0.461,-0.538 0.456,-0.559 0.446,-0.574C0.436,-0.589 0.423,-0.601 0.407,-0.61C0.39,-0.618 0.372,-0.623 0.352,-0.626C0.331,-0.629 0.311,-0.63 0.29,-0.63L0.172,-0.63L0.172,-0.396Z" style="fill:rgb(244,244,244);fill-rule:nonzero;"/>
                                    </g>
                                    <g transform="matrix(20,0,0,20,12.22,0)">
                                        <path d="M0.492,-0.085C0.464,-0.049 0.433,-0.024 0.4,-0.01C0.367,0.005 0.328,0.012 0.284,0.012C0.247,0.012 0.214,0.006 0.185,-0.008C0.156,-0.021 0.131,-0.038 0.111,-0.06C0.09,-0.082 0.075,-0.108 0.064,-0.138C0.053,-0.168 0.047,-0.2 0.047,-0.234C0.047,-0.27 0.053,-0.303 0.065,-0.334C0.077,-0.364 0.094,-0.39 0.115,-0.412C0.136,-0.433 0.162,-0.45 0.191,-0.462C0.22,-0.474 0.252,-0.48 0.287,-0.48C0.32,-0.48 0.35,-0.474 0.377,-0.464C0.404,-0.452 0.428,-0.437 0.448,-0.416C0.467,-0.395 0.482,-0.369 0.493,-0.339C0.504,-0.308 0.509,-0.274 0.509,-0.235L0.509,-0.21L0.131,-0.21C0.132,-0.19 0.137,-0.171 0.146,-0.153C0.154,-0.134 0.165,-0.118 0.178,-0.105C0.191,-0.091 0.207,-0.08 0.225,-0.072C0.243,-0.064 0.263,-0.06 0.284,-0.06C0.318,-0.06 0.347,-0.066 0.37,-0.078C0.393,-0.09 0.414,-0.108 0.433,-0.131L0.492,-0.085ZM0.425,-0.276C0.424,-0.316 0.411,-0.348 0.386,-0.372C0.361,-0.396 0.327,-0.408 0.284,-0.408C0.241,-0.408 0.206,-0.396 0.179,-0.372C0.152,-0.348 0.136,-0.316 0.131,-0.276L0.425,-0.276Z" style="fill:rgb(244,244,244);fill-rule:nonzero;"/>
                                    </g>
                                    <g transform="matrix(20,0,0,20,23.34,0)">
                                        <path d="M0.084,-0.123C0.099,-0.104 0.116,-0.088 0.135,-0.077C0.153,-0.066 0.176,-0.06 0.204,-0.06C0.216,-0.06 0.228,-0.061 0.241,-0.064C0.253,-0.067 0.264,-0.071 0.274,-0.077C0.284,-0.083 0.292,-0.091 0.298,-0.1C0.304,-0.109 0.307,-0.119 0.307,-0.132C0.307,-0.145 0.304,-0.155 0.299,-0.163C0.293,-0.171 0.285,-0.178 0.276,-0.184C0.267,-0.189 0.256,-0.194 0.244,-0.197C0.232,-0.2 0.22,-0.203 0.207,-0.206C0.185,-0.211 0.164,-0.216 0.144,-0.222C0.124,-0.228 0.107,-0.236 0.092,-0.246C0.077,-0.255 0.065,-0.268 0.056,-0.283C0.047,-0.298 0.042,-0.318 0.042,-0.342C0.042,-0.365 0.047,-0.385 0.057,-0.402C0.067,-0.419 0.08,-0.434 0.097,-0.445C0.114,-0.456 0.132,-0.465 0.153,-0.471C0.174,-0.477 0.195,-0.48 0.217,-0.48C0.25,-0.48 0.281,-0.473 0.31,-0.46C0.338,-0.447 0.36,-0.425 0.376,-0.395L0.311,-0.352C0.301,-0.369 0.288,-0.382 0.272,-0.393C0.255,-0.403 0.235,-0.408 0.212,-0.408C0.201,-0.408 0.191,-0.407 0.18,-0.404C0.169,-0.401 0.159,-0.397 0.15,-0.392C0.141,-0.387 0.134,-0.38 0.129,-0.372C0.123,-0.363 0.12,-0.354 0.12,-0.343C0.12,-0.333 0.123,-0.325 0.13,-0.318C0.136,-0.311 0.145,-0.304 0.156,-0.299C0.167,-0.294 0.179,-0.289 0.194,-0.285C0.208,-0.281 0.223,-0.278 0.238,-0.275C0.259,-0.271 0.278,-0.266 0.297,-0.26C0.316,-0.253 0.332,-0.245 0.346,-0.234C0.36,-0.223 0.371,-0.21 0.379,-0.194C0.387,-0.178 0.391,-0.158 0.391,-0.135C0.391,-0.108 0.386,-0.086 0.375,-0.067C0.364,-0.048 0.35,-0.033 0.333,-0.022C0.315,-0.01 0.295,-0.001 0.273,0.004C0.25,0.009 0.227,0.012 0.204,0.012C0.164,0.012 0.13,0.006 0.101,-0.007C0.072,-0.019 0.045,-0.042 0.022,-0.075L0.084,-0.123Z" style="fill:rgb(244,244,244);fill-rule:nonzero;"/>
                                    </g>
                                    <g transform="matrix(20,0,0,20,31.86,0)">
                                        <path d="M0.047,-0.234C0.047,-0.271 0.053,-0.304 0.066,-0.334C0.079,-0.364 0.096,-0.39 0.118,-0.412C0.14,-0.433 0.166,-0.45 0.197,-0.462C0.228,-0.474 0.261,-0.48 0.297,-0.48C0.333,-0.48 0.366,-0.474 0.397,-0.462C0.428,-0.45 0.454,-0.433 0.476,-0.412C0.498,-0.39 0.515,-0.364 0.528,-0.334C0.541,-0.304 0.547,-0.271 0.547,-0.234C0.547,-0.197 0.541,-0.164 0.528,-0.134C0.515,-0.104 0.498,-0.078 0.476,-0.057C0.454,-0.035 0.428,-0.018 0.397,-0.006C0.366,0.006 0.333,0.012 0.297,0.012C0.261,0.012 0.228,0.006 0.197,-0.006C0.166,-0.018 0.14,-0.035 0.118,-0.057C0.096,-0.078 0.079,-0.104 0.066,-0.134C0.053,-0.164 0.047,-0.197 0.047,-0.234ZM0.131,-0.234C0.131,-0.209 0.135,-0.187 0.143,-0.166C0.15,-0.145 0.161,-0.126 0.176,-0.111C0.191,-0.095 0.208,-0.083 0.229,-0.074C0.249,-0.065 0.272,-0.06 0.297,-0.06C0.322,-0.06 0.345,-0.065 0.366,-0.074C0.386,-0.083 0.403,-0.095 0.418,-0.111C0.433,-0.126 0.444,-0.145 0.452,-0.166C0.459,-0.187 0.463,-0.209 0.463,-0.234C0.463,-0.259 0.459,-0.282 0.452,-0.303C0.444,-0.324 0.433,-0.342 0.418,-0.358C0.403,-0.373 0.386,-0.386 0.366,-0.395C0.345,-0.404 0.322,-0.408 0.297,-0.408C0.272,-0.408 0.249,-0.404 0.229,-0.395C0.208,-0.386 0.191,-0.373 0.176,-0.358C0.161,-0.342 0.15,-0.324 0.143,-0.303C0.135,-0.282 0.131,-0.259 0.131,-0.234Z" style="fill:rgb(244,244,244);fill-rule:nonzero;"/>
                                    </g>
                                    <g transform="matrix(20,0,0,20,43.74,0)">
                                        <rect x="0.081" y="-0.756" width="0.078" height="0.756" style="fill:rgb(244,244,244);fill-rule:nonzero;"/>
                                    </g>
                                    <g transform="matrix(20,0,0,20,48.54,0)">
                                        <path d="M0.287,-0L0.201,-0L0.01,-0.468L0.101,-0.468L0.247,-0.101L0.249,-0.101L0.388,-0.468L0.472,-0.468L0.287,-0Z" style="fill:rgb(244,244,244);fill-rule:nonzero;"/>
                                    </g>
                                    <g transform="matrix(20,0,0,20,58.18,0)">
                                        <path d="M0.492,-0.085C0.464,-0.049 0.433,-0.024 0.4,-0.01C0.367,0.005 0.328,0.012 0.284,0.012C0.247,0.012 0.214,0.006 0.185,-0.008C0.156,-0.021 0.131,-0.038 0.111,-0.06C0.09,-0.082 0.075,-0.108 0.064,-0.138C0.053,-0.168 0.047,-0.2 0.047,-0.234C0.047,-0.27 0.053,-0.303 0.065,-0.334C0.077,-0.364 0.094,-0.39 0.115,-0.412C0.136,-0.433 0.162,-0.45 0.191,-0.462C0.22,-0.474 0.252,-0.48 0.287,-0.48C0.32,-0.48 0.35,-0.474 0.377,-0.464C0.404,-0.452 0.428,-0.437 0.448,-0.416C0.467,-0.395 0.482,-0.369 0.493,-0.339C0.504,-0.308 0.509,-0.274 0.509,-0.235L0.509,-0.21L0.131,-0.21C0.132,-0.19 0.137,-0.171 0.146,-0.153C0.154,-0.134 0.165,-0.118 0.178,-0.105C0.191,-0.091 0.207,-0.08 0.225,-0.072C0.243,-0.064 0.263,-0.06 0.284,-0.06C0.318,-0.06 0.347,-0.066 0.37,-0.078C0.393,-0.09 0.414,-0.108 0.433,-0.131L0.492,-0.085ZM0.425,-0.276C0.424,-0.316 0.411,-0.348 0.386,-0.372C0.361,-0.396 0.327,-0.408 0.284,-0.408C0.241,-0.408 0.206,-0.396 0.179,-0.372C0.152,-0.348 0.136,-0.316 0.131,-0.276L0.425,-0.276Z" style="fill:rgb(244,244,244);fill-rule:nonzero;"/>
                                    </g>
                                    <g transform="matrix(20,0,0,20,69.3,0)">
                                        <path d="M0.074,-0.357C0.074,-0.378 0.073,-0.398 0.072,-0.417C0.071,-0.436 0.07,-0.453 0.07,-0.468L0.144,-0.468C0.144,-0.455 0.144,-0.443 0.145,-0.43C0.146,-0.417 0.146,-0.404 0.146,-0.391L0.148,-0.391C0.153,-0.402 0.161,-0.413 0.171,-0.424C0.18,-0.435 0.192,-0.444 0.205,-0.453C0.218,-0.461 0.233,-0.468 0.25,-0.473C0.267,-0.478 0.285,-0.48 0.304,-0.48C0.309,-0.48 0.315,-0.48 0.32,-0.479C0.325,-0.478 0.331,-0.477 0.336,-0.475L0.331,-0.396C0.318,-0.4 0.304,-0.402 0.289,-0.402C0.241,-0.402 0.206,-0.387 0.185,-0.356C0.163,-0.325 0.152,-0.282 0.152,-0.228L0.152,-0L0.074,-0L0.074,-0.357Z" style="fill:rgb(244,244,244);fill-rule:nonzero;"/>
                                    </g>
                                </g>
                            </g>
                        </g>
                    </g>
                </g>
                <g id="g-root-tx_rootname_1464gk71m1imto-fill" transform="matrix(1,0,0,1,262,146)">
                    <g id="tx_rootname_1464gk71m1imto-fill">
                        <g>
                            <g>
                                <g transform="matrix(1,0,0,1,12,34)">
                                    <g transform="matrix(20,0,0,20,0,0)">
                                        <path d="M0.088,-0.708L0.269,-0.708C0.303,-0.708 0.337,-0.706 0.371,-0.702C0.404,-0.698 0.434,-0.689 0.461,-0.676C0.488,-0.663 0.509,-0.643 0.526,-0.618C0.543,-0.592 0.551,-0.557 0.551,-0.513C0.551,-0.461 0.535,-0.419 0.504,-0.387C0.473,-0.355 0.429,-0.335 0.374,-0.326L0.575,-0L0.472,-0L0.28,-0.318L0.172,-0.318L0.172,-0L0.088,-0L0.088,-0.708ZM0.172,-0.396L0.247,-0.396C0.27,-0.396 0.295,-0.397 0.32,-0.398C0.345,-0.399 0.368,-0.404 0.389,-0.411C0.409,-0.418 0.427,-0.43 0.441,-0.446C0.454,-0.461 0.461,-0.484 0.461,-0.513C0.461,-0.538 0.456,-0.559 0.446,-0.574C0.436,-0.589 0.423,-0.601 0.407,-0.61C0.39,-0.618 0.372,-0.623 0.352,-0.626C0.331,-0.629 0.311,-0.63 0.29,-0.63L0.172,-0.63L0.172,-0.396Z" style="fill:rgb(244,244,244);fill-rule:nonzero;"/>
                                    </g>
                                    <g transform="matrix(20,0,0,20,12.22,0)">
                                        <path d="M0.047,-0.234C0.047,-0.271 0.053,-0.304 0.066,-0.334C0.079,-0.364 0.096,-0.39 0.118,-0.412C0.14,-0.433 0.166,-0.45 0.197,-0.462C0.228,-0.474 0.261,-0.48 0.297,-0.48C0.333,-0.48 0.366,-0.474 0.397,-0.462C0.428,-0.45 0.454,-0.433 0.476,-0.412C0.498,-0.39 0.515,-0.364 0.528,-0.334C0.541,-0.304 0.547,-0.271 0.547,-0.234C0.547,-0.197 0.541,-0.164 0.528,-0.134C0.515,-0.104 0.498,-0.078 0.476,-0.057C0.454,-0.035 0.428,-0.018 0.397,-0.006C0.366,0.006 0.333,0.012 0.297,0.012C0.261,0.012 0.228,0.006 0.197,-0.006C0.166,-0.018 0.14,-0.035 0.118,-0.057C0.096,-0.078 0.079,-0.104 0.066,-0.134C0.053,-0.164 0.047,-0.197 0.047,-0.234ZM0.131,-0.234C0.131,-0.209 0.135,-0.187 0.143,-0.166C0.15,-0.145 0.161,-0.126 0.176,-0.111C0.191,-0.095 0.208,-0.083 0.229,-0.074C0.249,-0.065 0.272,-0.06 0.297,-0.06C0.322,-0.06 0.345,-0.065 0.366,-0.074C0.386,-0.083 0.403,-0.095 0.418,-0.111C0.433,-0.126 0.444,-0.145 0.452,-0.166C0.459,-0.187 0.463,-0.209 0.463,-0.234C0.463,-0.259 0.459,-0.282 0.452,-0.303C0.444,-0.324 0.433,-0.342 0.418,-0.358C0.403,-0.373 0.386,-0.386 0.366,-0.395C0.345,-0.404 0.322,-0.408 0.297,-0.408C0.272,-0.408 0.249,-0.404 0.229,-0.395C0.208,-0.386 0.191,-0.373 0.176,-0.358C0.161,-0.342 0.15,-0.324 0.143,-0.303C0.135,-0.282 0.131,-0.259 0.131,-0.234Z" style="fill:rgb(244,244,244);fill-rule:nonzero;"/>
                                    </g>
                                    <g transform="matrix(20,0,0,20,24.1,0)">
                                        <path d="M0.047,-0.234C0.047,-0.271 0.053,-0.304 0.066,-0.334C0.079,-0.364 0.096,-0.39 0.118,-0.412C0.14,-0.433 0.166,-0.45 0.197,-0.462C0.228,-0.474 0.261,-0.48 0.297,-0.48C0.333,-0.48 0.366,-0.474 0.397,-0.462C0.428,-0.45 0.454,-0.433 0.476,-0.412C0.498,-0.39 0.515,-0.364 0.528,-0.334C0.541,-0.304 0.547,-0.271 0.547,-0.234C0.547,-0.197 0.541,-0.164 0.528,-0.134C0.515,-0.104 0.498,-0.078 0.476,-0.057C0.454,-0.035 0.428,-0.018 0.397,-0.006C0.366,0.006 0.333,0.012 0.297,0.012C0.261,0.012 0.228,0.006 0.197,-0.006C0.166,-0.018 0.14,-0.035 0.118,-0.057C0.096,-0.078 0.079,-0.104 0.066,-0.134C0.053,-0.164 0.047,-0.197 0.047,-0.234ZM0.131,-0.234C0.131,-0.209 0.135,-0.187 0.143,-0.166C0.15,-0.145 0.161,-0.126 0.176,-0.111C0.191,-0.095 0.208,-0.083 0.229,-0.074C0.249,-0.065 0.272,-0.06 0.297,-0.06C0.322,-0.06 0.345,-0.065 0.366,-0.074C0.386,-0.083 0.403,-0.095 0.418,-0.111C0.433,-0.126 0.444,-0.145 0.452,-0.166C0.459,-0.187 0.463,-0.209 0.463,-0.234C0.463,-0.259 0.459,-0.282 0.452,-0.303C0.444,-0.324 0.433,-0.342 0.418,-0.358C0.403,-0.373 0.386,-0.386 0.366,-0.395C0.345,-0.404 0.322,-0.408 0.297,-0.408C0.272,-0.408 0.249,-0.404 0.229,-0.395C0.208,-0.386 0.191,-0.373 0.176,-0.358C0.161,-0.342 0.15,-0.324 0.143,-0.303C0.135,-0.282 0.131,-0.259 0.131,-0.234Z" style="fill:rgb(244,244,244);fill-rule:nonzero;"/>
                                    </g>
                                    <g transform="matrix(20,0,0,20,35.98,0)">
                                        <path d="M0.33,-0.402L0.192,-0.402L0.192,-0.168C0.192,-0.153 0.192,-0.138 0.193,-0.126C0.194,-0.113 0.196,-0.101 0.201,-0.092C0.206,-0.082 0.213,-0.074 0.222,-0.069C0.231,-0.063 0.245,-0.06 0.262,-0.06C0.273,-0.06 0.285,-0.061 0.297,-0.064C0.309,-0.067 0.32,-0.071 0.331,-0.076L0.334,-0.005C0.321,0.001 0.306,0.005 0.29,0.008C0.273,0.011 0.258,0.012 0.243,0.012C0.215,0.012 0.193,0.008 0.176,0.001C0.159,-0.006 0.146,-0.017 0.137,-0.03C0.128,-0.043 0.122,-0.06 0.119,-0.08C0.116,-0.099 0.114,-0.121 0.114,-0.145L0.114,-0.402L0.012,-0.402L0.012,-0.468L0.114,-0.468L0.114,-0.601L0.192,-0.601L0.192,-0.468L0.33,-0.468L0.33,-0.402Z" style="fill:rgb(244,244,244);fill-rule:nonzero;"/>
                                    </g>
                                    <g transform="matrix(20,0,0,20,48.58,0)">
                                        <path d="M0.088,-0.708L0.194,-0.708L0.604,-0.12L0.606,-0.12L0.606,-0.708L0.69,-0.708L0.69,-0L0.584,-0L0.174,-0.588L0.172,-0.588L0.172,-0L0.088,-0L0.088,-0.708Z" style="fill:rgb(244,244,244);fill-rule:nonzero;"/>
                                    </g>
                                    <g transform="matrix(20,0,0,20,64.14,0)">
                                        <path d="M0.068,-0.408C0.092,-0.433 0.121,-0.451 0.154,-0.463C0.187,-0.474 0.22,-0.48 0.254,-0.48C0.323,-0.48 0.373,-0.464 0.404,-0.431C0.435,-0.398 0.45,-0.349 0.45,-0.282L0.45,-0.081C0.45,-0.068 0.451,-0.054 0.452,-0.04C0.453,-0.025 0.455,-0.012 0.457,-0L0.382,-0C0.379,-0.011 0.378,-0.023 0.378,-0.036C0.377,-0.049 0.377,-0.06 0.377,-0.07L0.375,-0.07C0.36,-0.046 0.339,-0.026 0.314,-0.011C0.288,0.004 0.257,0.012 0.221,0.012C0.197,0.012 0.174,0.009 0.154,0.003C0.132,-0.003 0.114,-0.012 0.099,-0.024C0.083,-0.035 0.07,-0.05 0.061,-0.067C0.052,-0.084 0.047,-0.104 0.047,-0.127C0.047,-0.166 0.057,-0.196 0.077,-0.218C0.097,-0.24 0.122,-0.256 0.152,-0.267C0.181,-0.278 0.213,-0.284 0.248,-0.287C0.282,-0.29 0.313,-0.291 0.342,-0.291L0.372,-0.291L0.372,-0.305C0.372,-0.339 0.362,-0.365 0.342,-0.382C0.321,-0.399 0.293,-0.408 0.256,-0.408C0.231,-0.408 0.206,-0.404 0.182,-0.396C0.157,-0.387 0.136,-0.374 0.117,-0.357L0.068,-0.408ZM0.294,-0.225C0.244,-0.225 0.204,-0.218 0.175,-0.204C0.146,-0.19 0.131,-0.167 0.131,-0.135C0.131,-0.106 0.141,-0.085 0.161,-0.073C0.18,-0.06 0.205,-0.054 0.234,-0.054C0.257,-0.054 0.277,-0.058 0.294,-0.066C0.311,-0.073 0.325,-0.083 0.336,-0.096C0.347,-0.109 0.356,-0.124 0.362,-0.141C0.368,-0.158 0.371,-0.176 0.372,-0.195L0.372,-0.225L0.294,-0.225Z" style="fill:rgb(244,244,244);fill-rule:nonzero;"/>
                                    </g>
                                    <g transform="matrix(20,0,0,20,74.52,0)">
                                        <path d="M0.074,-0.357C0.074,-0.378 0.073,-0.398 0.072,-0.417C0.071,-0.436 0.07,-0.453 0.07,-0.468L0.144,-0.468C0.144,-0.455 0.144,-0.443 0.145,-0.43C0.146,-0.417 0.146,-0.404 0.146,-0.391L0.148,-0.391C0.153,-0.402 0.161,-0.413 0.171,-0.424C0.18,-0.435 0.192,-0.444 0.205,-0.453C0.218,-0.461 0.233,-0.468 0.25,-0.473C0.267,-0.478 0.285,-0.48 0.304,-0.48C0.329,-0.48 0.351,-0.477 0.368,-0.471C0.385,-0.464 0.399,-0.456 0.41,-0.448C0.421,-0.439 0.43,-0.429 0.437,-0.419C0.443,-0.408 0.448,-0.399 0.452,-0.391C0.469,-0.419 0.489,-0.441 0.512,-0.457C0.535,-0.472 0.564,-0.48 0.6,-0.48C0.633,-0.48 0.661,-0.475 0.684,-0.467C0.707,-0.458 0.725,-0.444 0.739,-0.428C0.753,-0.411 0.763,-0.39 0.769,-0.366C0.775,-0.341 0.778,-0.314 0.778,-0.284L0.778,-0L0.7,-0L0.7,-0.28C0.7,-0.296 0.698,-0.312 0.695,-0.327C0.692,-0.342 0.686,-0.356 0.677,-0.368C0.668,-0.38 0.657,-0.39 0.642,-0.397C0.627,-0.404 0.609,-0.408 0.586,-0.408C0.569,-0.408 0.554,-0.405 0.539,-0.398C0.524,-0.391 0.511,-0.382 0.501,-0.37C0.49,-0.358 0.481,-0.343 0.475,-0.327C0.468,-0.31 0.465,-0.291 0.465,-0.27L0.465,-0L0.387,-0L0.387,-0.265C0.387,-0.317 0.38,-0.354 0.366,-0.376C0.352,-0.397 0.329,-0.408 0.297,-0.408C0.272,-0.408 0.25,-0.404 0.232,-0.395C0.213,-0.386 0.198,-0.374 0.187,-0.358C0.175,-0.342 0.166,-0.323 0.161,-0.301C0.155,-0.279 0.152,-0.255 0.152,-0.228L0.152,-0L0.074,-0L0.074,-0.357Z" style="fill:rgb(244,244,244);fill-rule:nonzero;"/>
                                    </g>
                                    <g transform="matrix(20,0,0,20,91.56,0)">
                                        <path d="M0.492,-0.085C0.464,-0.049 0.433,-0.024 0.4,-0.01C0.367,0.005 0.328,0.012 0.284,0.012C0.247,0.012 0.214,0.006 0.185,-0.008C0.156,-0.021 0.131,-0.038 0.111,-0.06C0.09,-0.082 0.075,-0.108 0.064,-0.138C0.053,-0.168 0.047,-0.2 0.047,-0.234C0.047,-0.27 0.053,-0.303 0.065,-0.334C0.077,-0.364 0.094,-0.39 0.115,-0.412C0.136,-0.433 0.162,-0.45 0.191,-0.462C0.22,-0.474 0.252,-0.48 0.287,-0.48C0.32,-0.48 0.35,-0.474 0.377,-0.464C0.404,-0.452 0.428,-0.437 0.448,-0.416C0.467,-0.395 0.482,-0.369 0.493,-0.339C0.504,-0.308 0.509,-0.274 0.509,-0.235L0.509,-0.21L0.131,-0.21C0.132,-0.19 0.137,-0.171 0.146,-0.153C0.154,-0.134 0.165,-0.118 0.178,-0.105C0.191,-0.091 0.207,-0.08 0.225,-0.072C0.243,-0.064 0.263,-0.06 0.284,-0.06C0.318,-0.06 0.347,-0.066 0.37,-0.078C0.393,-0.09 0.414,-0.108 0.433,-0.131L0.492,-0.085ZM0.425,-0.276C0.424,-0.316 0.411,-0.348 0.386,-0.372C0.361,-0.396 0.327,-0.408 0.284,-0.408C0.241,-0.408 0.206,-0.396 0.179,-0.372C0.152,-0.348 0.136,-0.316 0.131,-0.276L0.425,-0.276Z" style="fill:rgb(244,244,244);fill-rule:nonzero;"/>
                                    </g>
                                </g>
                                <g transform="matrix(1,0,0,1,12,58)">
                                    <g transform="matrix(20,0,0,20,0,0)">
                                        <path d="M0.424,-0.583C0.41,-0.606 0.391,-0.622 0.368,-0.633C0.345,-0.643 0.32,-0.648 0.295,-0.648C0.276,-0.648 0.258,-0.646 0.24,-0.641C0.222,-0.636 0.206,-0.629 0.192,-0.62C0.177,-0.611 0.166,-0.598 0.157,-0.583C0.148,-0.568 0.144,-0.55 0.144,-0.529C0.144,-0.513 0.147,-0.499 0.152,-0.487C0.157,-0.474 0.165,-0.463 0.176,-0.453C0.187,-0.443 0.203,-0.434 0.222,-0.425C0.241,-0.416 0.265,-0.408 0.293,-0.399C0.32,-0.39 0.347,-0.381 0.373,-0.371C0.398,-0.361 0.421,-0.348 0.441,-0.333C0.46,-0.318 0.476,-0.299 0.488,-0.276C0.499,-0.253 0.505,-0.224 0.505,-0.189C0.505,-0.154 0.498,-0.123 0.484,-0.097C0.47,-0.071 0.452,-0.05 0.429,-0.033C0.405,-0.016 0.379,-0.003 0.349,0.006C0.319,0.014 0.288,0.018 0.256,0.018C0.235,0.018 0.215,0.016 0.194,0.013C0.173,0.009 0.154,0.003 0.135,-0.005C0.116,-0.012 0.098,-0.022 0.081,-0.035C0.064,-0.047 0.05,-0.062 0.038,-0.08L0.11,-0.139C0.125,-0.113 0.147,-0.093 0.174,-0.08C0.201,-0.067 0.23,-0.06 0.261,-0.06C0.279,-0.06 0.297,-0.063 0.316,-0.068C0.334,-0.073 0.35,-0.081 0.365,-0.092C0.38,-0.102 0.392,-0.115 0.401,-0.13C0.41,-0.145 0.415,-0.163 0.415,-0.183C0.415,-0.205 0.411,-0.223 0.404,-0.237C0.397,-0.25 0.385,-0.262 0.37,-0.272C0.355,-0.282 0.335,-0.291 0.312,-0.299C0.289,-0.307 0.261,-0.316 0.23,-0.327C0.205,-0.335 0.181,-0.344 0.16,-0.355C0.139,-0.365 0.12,-0.378 0.105,-0.393C0.089,-0.408 0.077,-0.426 0.068,-0.447C0.058,-0.468 0.054,-0.493 0.054,-0.522C0.054,-0.556 0.061,-0.586 0.074,-0.611C0.087,-0.636 0.105,-0.658 0.128,-0.675C0.151,-0.692 0.176,-0.704 0.205,-0.713C0.234,-0.722 0.264,-0.726 0.295,-0.726C0.335,-0.726 0.372,-0.72 0.405,-0.708C0.438,-0.695 0.467,-0.674 0.493,-0.643L0.424,-0.583Z" style="fill:rgb(244,244,244);fill-rule:nonzero;"/>
                                    </g>
                                    <g transform="matrix(20,0,0,20,11.12,0)">
                                        <path d="M0.492,-0.085C0.464,-0.049 0.433,-0.024 0.4,-0.01C0.367,0.005 0.328,0.012 0.284,0.012C0.247,0.012 0.214,0.006 0.185,-0.008C0.156,-0.021 0.131,-0.038 0.111,-0.06C0.09,-0.082 0.075,-0.108 0.064,-0.138C0.053,-0.168 0.047,-0.2 0.047,-0.234C0.047,-0.27 0.053,-0.303 0.065,-0.334C0.077,-0.364 0.094,-0.39 0.115,-0.412C0.136,-0.433 0.162,-0.45 0.191,-0.462C0.22,-0.474 0.252,-0.48 0.287,-0.48C0.32,-0.48 0.35,-0.474 0.377,-0.464C0.404,-0.452 0.428,-0.437 0.448,-0.416C0.467,-0.395 0.482,-0.369 0.493,-0.339C0.504,-0.308 0.509,-0.274 0.509,-0.235L0.509,-0.21L0.131,-0.21C0.132,-0.19 0.137,-0.171 0.146,-0.153C0.154,-0.134 0.165,-0.118 0.178,-0.105C0.191,-0.091 0.207,-0.08 0.225,-0.072C0.243,-0.064 0.263,-0.06 0.284,-0.06C0.318,-0.06 0.347,-0.066 0.37,-0.078C0.393,-0.09 0.414,-0.108 0.433,-0.131L0.492,-0.085ZM0.425,-0.276C0.424,-0.316 0.411,-0.348 0.386,-0.372C0.361,-0.396 0.327,-0.408 0.284,-0.408C0.241,-0.408 0.206,-0.396 0.179,-0.372C0.152,-0.348 0.136,-0.316 0.131,-0.276L0.425,-0.276Z" style="fill:rgb(244,244,244);fill-rule:nonzero;"/>
                                    </g>
                                    <g transform="matrix(20,0,0,20,22.24,0)">
                                        <path d="M0.074,-0.357C0.074,-0.378 0.073,-0.398 0.072,-0.417C0.071,-0.436 0.07,-0.453 0.07,-0.468L0.144,-0.468C0.144,-0.455 0.144,-0.443 0.145,-0.43C0.146,-0.417 0.146,-0.404 0.146,-0.391L0.148,-0.391C0.153,-0.402 0.161,-0.413 0.171,-0.424C0.18,-0.435 0.192,-0.444 0.205,-0.453C0.218,-0.461 0.233,-0.468 0.25,-0.473C0.267,-0.478 0.285,-0.48 0.304,-0.48C0.309,-0.48 0.315,-0.48 0.32,-0.479C0.325,-0.478 0.331,-0.477 0.336,-0.475L0.331,-0.396C0.318,-0.4 0.304,-0.402 0.289,-0.402C0.241,-0.402 0.206,-0.387 0.185,-0.356C0.163,-0.325 0.152,-0.282 0.152,-0.228L0.152,-0L0.074,-0L0.074,-0.357Z" style="fill:rgb(244,244,244);fill-rule:nonzero;"/>
                                    </g>
                                    <g transform="matrix(20,0,0,20,29.28,0)">
                                        <path d="M0.287,-0L0.201,-0L0.01,-0.468L0.101,-0.468L0.247,-0.101L0.249,-0.101L0.388,-0.468L0.472,-0.468L0.287,-0Z" style="fill:rgb(244,244,244);fill-rule:nonzero;"/>
                                    </g>
                                    <g transform="matrix(20,0,0,20,38.92,0)">
                                        <path d="M0.492,-0.085C0.464,-0.049 0.433,-0.024 0.4,-0.01C0.367,0.005 0.328,0.012 0.284,0.012C0.247,0.012 0.214,0.006 0.185,-0.008C0.156,-0.021 0.131,-0.038 0.111,-0.06C0.09,-0.082 0.075,-0.108 0.064,-0.138C0.053,-0.168 0.047,-0.2 0.047,-0.234C0.047,-0.27 0.053,-0.303 0.065,-0.334C0.077,-0.364 0.094,-0.39 0.115,-0.412C0.136,-0.433 0.162,-0.45 0.191,-0.462C0.22,-0.474 0.252,-0.48 0.287,-0.48C0.32,-0.48 0.35,-0.474 0.377,-0.464C0.404,-0.452 0.428,-0.437 0.448,-0.416C0.467,-0.395 0.482,-0.369 0.493,-0.339C0.504,-0.308 0.509,-0.274 0.509,-0.235L0.509,-0.21L0.131,-0.21C0.132,-0.19 0.137,-0.171 0.146,-0.153C0.154,-0.134 0.165,-0.118 0.178,-0.105C0.191,-0.091 0.207,-0.08 0.225,-0.072C0.243,-0.064 0.263,-0.06 0.284,-0.06C0.318,-0.06 0.347,-0.066 0.37,-0.078C0.393,-0.09 0.414,-0.108 0.433,-0.131L0.492,-0.085ZM0.425,-0.276C0.424,-0.316 0.411,-0.348 0.386,-0.372C0.361,-0.396 0.327,-0.408 0.284,-0.408C0.241,-0.408 0.206,-0.396 0.179,-0.372C0.152,-0.348 0.136,-0.316 0.131,-0.276L0.425,-0.276Z" style="fill:rgb(244,244,244);fill-rule:nonzero;"/>
                                    </g>
                                    <g transform="matrix(20,0,0,20,50.04,0)">
                                        <path d="M0.074,-0.357C0.074,-0.378 0.073,-0.398 0.072,-0.417C0.071,-0.436 0.07,-0.453 0.07,-0.468L0.144,-0.468C0.144,-0.455 0.144,-0.443 0.145,-0.43C0.146,-0.417 0.146,-0.404 0.146,-0.391L0.148,-0.391C0.153,-0.402 0.161,-0.413 0.171,-0.424C0.18,-0.435 0.192,-0.444 0.205,-0.453C0.218,-0.461 0.233,-0.468 0.25,-0.473C0.267,-0.478 0.285,-0.48 0.304,-0.48C0.309,-0.48 0.315,-0.48 0.32,-0.479C0.325,-0.478 0.331,-0.477 0.336,-0.475L0.331,-0.396C0.318,-0.4 0.304,-0.402 0.289,-0.402C0.241,-0.402 0.206,-0.387 0.185,-0.356C0.163,-0.325 0.152,-0.282 0.152,-0.228L0.152,-0L0.074,-0L0.074,-0.357Z" style="fill:rgb(244,244,244);fill-rule:nonzero;"/>
                                    </g>
                                    <g transform="matrix(20,0,0,20,57.08,0)">
                                        <path d="M0.084,-0.123C0.099,-0.104 0.116,-0.088 0.135,-0.077C0.153,-0.066 0.176,-0.06 0.204,-0.06C0.216,-0.06 0.228,-0.061 0.241,-0.064C0.253,-0.067 0.264,-0.071 0.274,-0.077C0.284,-0.083 0.292,-0.091 0.298,-0.1C0.304,-0.109 0.307,-0.119 0.307,-0.132C0.307,-0.145 0.304,-0.155 0.299,-0.163C0.293,-0.171 0.285,-0.178 0.276,-0.184C0.267,-0.189 0.256,-0.194 0.244,-0.197C0.232,-0.2 0.22,-0.203 0.207,-0.206C0.185,-0.211 0.164,-0.216 0.144,-0.222C0.124,-0.228 0.107,-0.236 0.092,-0.246C0.077,-0.255 0.065,-0.268 0.056,-0.283C0.047,-0.298 0.042,-0.318 0.042,-0.342C0.042,-0.365 0.047,-0.385 0.057,-0.402C0.067,-0.419 0.08,-0.434 0.097,-0.445C0.114,-0.456 0.132,-0.465 0.153,-0.471C0.174,-0.477 0.195,-0.48 0.217,-0.48C0.25,-0.48 0.281,-0.473 0.31,-0.46C0.338,-0.447 0.36,-0.425 0.376,-0.395L0.311,-0.352C0.301,-0.369 0.288,-0.382 0.272,-0.393C0.255,-0.403 0.235,-0.408 0.212,-0.408C0.201,-0.408 0.191,-0.407 0.18,-0.404C0.169,-0.401 0.159,-0.397 0.15,-0.392C0.141,-0.387 0.134,-0.38 0.129,-0.372C0.123,-0.363 0.12,-0.354 0.12,-0.343C0.12,-0.333 0.123,-0.325 0.13,-0.318C0.136,-0.311 0.145,-0.304 0.156,-0.299C0.167,-0.294 0.179,-0.289 0.194,-0.285C0.208,-0.281 0.223,-0.278 0.238,-0.275C0.259,-0.271 0.278,-0.266 0.297,-0.26C0.316,-0.253 0.332,-0.245 0.346,-0.234C0.36,-0.223 0.371,-0.21 0.379,-0.194C0.387,-0.178 0.391,-0.158 0.391,-0.135C0.391,-0.108 0.386,-0.086 0.375,-0.067C0.364,-0.048 0.35,-0.033 0.333,-0.022C0.315,-0.01 0.295,-0.001 0.273,0.004C0.25,0.009 0.227,0.012 0.204,0.012C0.164,0.012 0.13,0.006 0.101,-0.007C0.072,-0.019 0.045,-0.042 0.022,-0.075L0.084,-0.123Z" style="fill:rgb(244,244,244);fill-rule:nonzero;"/>
                                    </g>
                                </g>
                            </g>
                        </g>
                    </g>
                </g>
                <g transform="matrix(1,0,0,1,510,192)">
                    <g id="g-root-tx_tldserve_zlb5qv1m1leyv-fill">
                        <g id="tx_tldserve_zlb5qv1m1leyv-fill">
                            <g>
                                <g>
                                    <g transform="matrix(20,0,0,20,0,0)">
                                        <path d="M0.563,-0.63L0.329,-0.63L0.329,-0L0.245,-0L0.245,-0.63L0.011,-0.63L0.011,-0.708L0.563,-0.708L0.563,-0.63Z" style="fill:rgb(244,244,244);fill-rule:nonzero;"/>
                                    </g>
                                    <g transform="matrix(20,0,0,20,11.48,0)">
                                        <path d="M0.088,-0.708L0.172,-0.708L0.172,-0.078L0.496,-0.078L0.496,-0L0.088,-0L0.088,-0.708Z" style="fill:rgb(244,244,244);fill-rule:nonzero;"/>
                                    </g>
                                    <g transform="matrix(20,0,0,20,21.48,0)">
                                        <path d="M0.075,-0.708L0.347,-0.708C0.37,-0.708 0.395,-0.705 0.421,-0.7C0.447,-0.695 0.473,-0.686 0.499,-0.675C0.524,-0.663 0.549,-0.648 0.573,-0.629C0.596,-0.61 0.617,-0.588 0.635,-0.562C0.653,-0.535 0.667,-0.505 0.678,-0.471C0.689,-0.436 0.694,-0.397 0.694,-0.354C0.694,-0.311 0.689,-0.272 0.678,-0.238C0.667,-0.203 0.653,-0.173 0.635,-0.147C0.617,-0.12 0.596,-0.098 0.573,-0.079C0.549,-0.06 0.524,-0.045 0.499,-0.034C0.473,-0.022 0.447,-0.013 0.421,-0.008C0.395,-0.003 0.37,-0 0.347,-0L0.075,-0L0.075,-0.708ZM0.159,-0.078L0.319,-0.078C0.36,-0.078 0.397,-0.083 0.432,-0.094C0.467,-0.105 0.497,-0.121 0.522,-0.144C0.547,-0.166 0.567,-0.194 0.582,-0.229C0.597,-0.264 0.604,-0.305 0.604,-0.354C0.604,-0.403 0.597,-0.444 0.582,-0.479C0.567,-0.514 0.547,-0.542 0.522,-0.565C0.497,-0.587 0.467,-0.603 0.432,-0.614C0.397,-0.625 0.36,-0.63 0.319,-0.63L0.159,-0.63L0.159,-0.078Z" style="fill:rgb(244,244,244);fill-rule:nonzero;"/>
                                    </g>
                                    <g transform="matrix(20,0,0,20,41.86,0)">
                                        <path d="M0.424,-0.583C0.41,-0.606 0.391,-0.622 0.368,-0.633C0.345,-0.643 0.32,-0.648 0.295,-0.648C0.276,-0.648 0.258,-0.646 0.24,-0.641C0.222,-0.636 0.206,-0.629 0.192,-0.62C0.177,-0.611 0.166,-0.598 0.157,-0.583C0.148,-0.568 0.144,-0.55 0.144,-0.529C0.144,-0.513 0.147,-0.499 0.152,-0.487C0.157,-0.474 0.165,-0.463 0.176,-0.453C0.187,-0.443 0.203,-0.434 0.222,-0.425C0.241,-0.416 0.265,-0.408 0.293,-0.399C0.32,-0.39 0.347,-0.381 0.373,-0.371C0.398,-0.361 0.421,-0.348 0.441,-0.333C0.46,-0.318 0.476,-0.299 0.488,-0.276C0.499,-0.253 0.505,-0.224 0.505,-0.189C0.505,-0.154 0.498,-0.123 0.484,-0.097C0.47,-0.071 0.452,-0.05 0.429,-0.033C0.405,-0.016 0.379,-0.003 0.349,0.006C0.319,0.014 0.288,0.018 0.256,0.018C0.235,0.018 0.215,0.016 0.194,0.013C0.173,0.009 0.154,0.003 0.135,-0.005C0.116,-0.012 0.098,-0.022 0.081,-0.035C0.064,-0.047 0.05,-0.062 0.038,-0.08L0.11,-0.139C0.125,-0.113 0.147,-0.093 0.174,-0.08C0.201,-0.067 0.23,-0.06 0.261,-0.06C0.279,-0.06 0.297,-0.063 0.316,-0.068C0.334,-0.073 0.35,-0.081 0.365,-0.092C0.38,-0.102 0.392,-0.115 0.401,-0.13C0.41,-0.145 0.415,-0.163 0.415,-0.183C0.415,-0.205 0.411,-0.223 0.404,-0.237C0.397,-0.25 0.385,-0.262 0.37,-0.272C0.355,-0.282 0.335,-0.291 0.312,-0.299C0.289,-0.307 0.261,-0.316 0.23,-0.327C0.205,-0.335 0.181,-0.344 0.16,-0.355C0.139,-0.365 0.12,-0.378 0.105,-0.393C0.089,-0.408 0.077,-0.426 0.068,-0.447C0.058,-0.468 0.054,-0.493 0.054,-0.522C0.054,-0.556 0.061,-0.586 0.074,-0.611C0.087,-0.636 0.105,-0.658 0.128,-0.675C0.151,-0.692 0.176,-0.704 0.205,-0.713C0.234,-0.722 0.264,-0.726 0.295,-0.726C0.335,-0.726 0.372,-0.72 0.405,-0.708C0.438,-0.695 0.467,-0.674 0.493,-0.643L0.424,-0.583Z" style="fill:rgb(244,244,244);fill-rule:nonzero;"/>
                                    </g>
                                    <g transform="matrix(20,0,0,20,52.98,0)">
                                        <path d="M0.492,-0.085C0.464,-0.049 0.433,-0.024 0.4,-0.01C0.367,0.005 0.328,0.012 0.284,0.012C0.247,0.012 0.214,0.006 0.185,-0.008C0.156,-0.021 0.131,-0.038 0.111,-0.06C0.09,-0.082 0.075,-0.108 0.064,-0.138C0.053,-0.168 0.047,-0.2 0.047,-0.234C0.047,-0.27 0.053,-0.303 0.065,-0.334C0.077,-0.364 0.094,-0.39 0.115,-0.412C0.136,-0.433 0.162,-0.45 0.191,-0.462C0.22,-0.474 0.252,-0.48 0.287,-0.48C0.32,-0.48 0.35,-0.474 0.377,-0.464C0.404,-0.452 0.428,-0.437 0.448,-0.416C0.467,-0.395 0.482,-0.369 0.493,-0.339C0.504,-0.308 0.509,-0.274 0.509,-0.235L0.509,-0.21L0.131,-0.21C0.132,-0.19 0.137,-0.171 0.146,-0.153C0.154,-0.134 0.165,-0.118 0.178,-0.105C0.191,-0.091 0.207,-0.08 0.225,-0.072C0.243,-0.064 0.263,-0.06 0.284,-0.06C0.318,-0.06 0.347,-0.066 0.37,-0.078C0.393,-0.09 0.414,-0.108 0.433,-0.131L0.492,-0.085ZM0.425,-0.276C0.424,-0.316 0.411,-0.348 0.386,-0.372C0.361,-0.396 0.327,-0.408 0.284,-0.408C0.241,-0.408 0.206,-0.396 0.179,-0.372C0.152,-0.348 0.136,-0.316 0.131,-0.276L0.425,-0.276Z" style="fill:rgb(244,244,244);fill-rule:nonzero;"/>
                                    </g>
                                    <g transform="matrix(20,0,0,20,64.1,0)">
                                        <path d="M0.074,-0.357C0.074,-0.378 0.073,-0.398 0.072,-0.417C0.071,-0.436 0.07,-0.453 0.07,-0.468L0.144,-0.468C0.144,-0.455 0.144,-0.443 0.145,-0.43C0.146,-0.417 0.146,-0.404 0.146,-0.391L0.148,-0.391C0.153,-0.402 0.161,-0.413 0.171,-0.424C0.18,-0.435 0.192,-0.444 0.205,-0.453C0.218,-0.461 0.233,-0.468 0.25,-0.473C0.267,-0.478 0.285,-0.48 0.304,-0.48C0.309,-0.48 0.315,-0.48 0.32,-0.479C0.325,-0.478 0.331,-0.477 0.336,-0.475L0.331,-0.396C0.318,-0.4 0.304,-0.402 0.289,-0.402C0.241,-0.402 0.206,-0.387 0.185,-0.356C0.163,-0.325 0.152,-0.282 0.152,-0.228L0.152,-0L0.074,-0L0.074,-0.357Z" style="fill:rgb(244,244,244);fill-rule:nonzero;"/>
                                    </g>
                                    <g transform="matrix(20,0,0,20,71.14,0)">
                                        <path d="M0.287,-0L0.201,-0L0.01,-0.468L0.101,-0.468L0.247,-0.101L0.249,-0.101L0.388,-0.468L0.472,-0.468L0.287,-0Z" style="fill:rgb(244,244,244);fill-rule:nonzero;"/>
                                    </g>
                                    <g transform="matrix(20,0,0,20,80.78,0)">
                                        <path d="M0.492,-0.085C0.464,-0.049 0.433,-0.024 0.4,-0.01C0.367,0.005 0.328,0.012 0.284,0.012C0.247,0.012 0.214,0.006 0.185,-0.008C0.156,-0.021 0.131,-0.038 0.111,-0.06C0.09,-0.082 0.075,-0.108 0.064,-0.138C0.053,-0.168 0.047,-0.2 0.047,-0.234C0.047,-0.27 0.053,-0.303 0.065,-0.334C0.077,-0.364 0.094,-0.39 0.115,-0.412C0.136,-0.433 0.162,-0.45 0.191,-0.462C0.22,-0.474 0.252,-0.48 0.287,-0.48C0.32,-0.48 0.35,-0.474 0.377,-0.464C0.404,-0.452 0.428,-0.437 0.448,-0.416C0.467,-0.395 0.482,-0.369 0.493,-0.339C0.504,-0.308 0.509,-0.274 0.509,-0.235L0.509,-0.21L0.131,-0.21C0.132,-0.19 0.137,-0.171 0.146,-0.153C0.154,-0.134 0.165,-0.118 0.178,-0.105C0.191,-0.091 0.207,-0.08 0.225,-0.072C0.243,-0.064 0.263,-0.06 0.284,-0.06C0.318,-0.06 0.347,-0.066 0.37,-0.078C0.393,-0.09 0.414,-0.108 0.433,-0.131L0.492,-0.085ZM0.425,-0.276C0.424,-0.316 0.411,-0.348 0.386,-0.372C0.361,-0.396 0.327,-0.408 0.284,-0.408C0.241,-0.408 0.206,-0.396 0.179,-0.372C0.152,-0.348 0.136,-0.316 0.131,-0.276L0.425,-0.276Z" style="fill:rgb(244,244,244);fill-rule:nonzero;"/>
                                    </g>
                                    <g transform="matrix(20,0,0,20,91.9,0)">
                                        <path d="M0.074,-0.357C0.074,-0.378 0.073,-0.398 0.072,-0.417C0.071,-0.436 0.07,-0.453 0.07,-0.468L0.144,-0.468C0.144,-0.455 0.144,-0.443 0.145,-0.43C0.146,-0.417 0.146,-0.404 0.146,-0.391L0.148,-0.391C0.153,-0.402 0.161,-0.413 0.171,-0.424C0.18,-0.435 0.192,-0.444 0.205,-0.453C0.218,-0.461 0.233,-0.468 0.25,-0.473C0.267,-0.478 0.285,-0.48 0.304,-0.48C0.309,-0.48 0.315,-0.48 0.32,-0.479C0.325,-0.478 0.331,-0.477 0.336,-0.475L0.331,-0.396C0.318,-0.4 0.304,-0.402 0.289,-0.402C0.241,-0.402 0.206,-0.387 0.185,-0.356C0.163,-0.325 0.152,-0.282 0.152,-0.228L0.152,-0L0.074,-0L0.074,-0.357Z" style="fill:rgb(244,244,244);fill-rule:nonzero;"/>
                                    </g>
                                    <g transform="matrix(20,0,0,20,98.94,0)">
                                        <path d="M0.084,-0.123C0.099,-0.104 0.116,-0.088 0.135,-0.077C0.153,-0.066 0.176,-0.06 0.204,-0.06C0.216,-0.06 0.228,-0.061 0.241,-0.064C0.253,-0.067 0.264,-0.071 0.274,-0.077C0.284,-0.083 0.292,-0.091 0.298,-0.1C0.304,-0.109 0.307,-0.119 0.307,-0.132C0.307,-0.145 0.304,-0.155 0.299,-0.163C0.293,-0.171 0.285,-0.178 0.276,-0.184C0.267,-0.189 0.256,-0.194 0.244,-0.197C0.232,-0.2 0.22,-0.203 0.207,-0.206C0.185,-0.211 0.164,-0.216 0.144,-0.222C0.124,-0.228 0.107,-0.236 0.092,-0.246C0.077,-0.255 0.065,-0.268 0.056,-0.283C0.047,-0.298 0.042,-0.318 0.042,-0.342C0.042,-0.365 0.047,-0.385 0.057,-0.402C0.067,-0.419 0.08,-0.434 0.097,-0.445C0.114,-0.456 0.132,-0.465 0.153,-0.471C0.174,-0.477 0.195,-0.48 0.217,-0.48C0.25,-0.48 0.281,-0.473 0.31,-0.46C0.338,-0.447 0.36,-0.425 0.376,-0.395L0.311,-0.352C0.301,-0.369 0.288,-0.382 0.272,-0.393C0.255,-0.403 0.235,-0.408 0.212,-0.408C0.201,-0.408 0.191,-0.407 0.18,-0.404C0.169,-0.401 0.159,-0.397 0.15,-0.392C0.141,-0.387 0.134,-0.38 0.129,-0.372C0.123,-0.363 0.12,-0.354 0.12,-0.343C0.12,-0.333 0.123,-0.325 0.13,-0.318C0.136,-0.311 0.145,-0.304 0.156,-0.299C0.167,-0.294 0.179,-0.289 0.194,-0.285C0.208,-0.281 0.223,-0.278 0.238,-0.275C0.259,-0.271 0.278,-0.266 0.297,-0.26C0.316,-0.253 0.332,-0.245 0.346,-0.234C0.36,-0.223 0.371,-0.21 0.379,-0.194C0.387,-0.178 0.391,-0.158 0.391,-0.135C0.391,-0.108 0.386,-0.086 0.375,-0.067C0.364,-0.048 0.35,-0.033 0.333,-0.022C0.315,-0.01 0.295,-0.001 0.273,0.004C0.25,0.009 0.227,0.012 0.204,0.012C0.164,0.012 0.13,0.006 0.101,-0.007C0.072,-0.019 0.045,-0.042 0.022,-0.075L0.084,-0.123Z" style="fill:rgb(244,244,244);fill-rule:nonzero;"/>
                                    </g>
                                </g>
                            </g>
                        </g>
                    </g>
                </g>
                <g id="g-root-ro_1uoo5p31m1mtqk-stroke" transform="matrix(1,0,0,1,686,122)">
                    <g id="ro_1uoo5p31m1mtqk-stroke">
                        <g>
                            <path d="M22,10L178,10C178,10 190,10 190,22L190,94C190,94 190,106 178,106L22,106C22,106 10,106 10,94L10,22C10,22 10,10 22,10" style="fill:none;stroke:rgb(183,183,183);stroke-width:2px;"/>
                        </g>
                    </g>
                </g>
                <g id="g-root-ro_147zvtj1m1ilty-stroke" transform="matrix(1,0,0,1,214,134)">
                    <g id="ro_147zvtj1m1ilty-stroke">
                        <g>
                            <path d="M22,10L178,10C178,10 190,10 190,22L190,70C190,70 190,82 178,82L22,82C22,82 10,82 10,70L10,22C10,22 10,10 22,10" style="fill:none;stroke:rgb(183,183,183);stroke-width:2px;"/>
                        </g>
                    </g>
                </g>
                <g id="g-root-ro_147zsnr1m23pj7-stroke" transform="matrix(1,0,0,1,14,134)">
                    <g id="ro_147zsnr1m23pj7-stroke">
                        <g>
                            <path d="M22,10L142,10C142,10 154,10 154,22L154,70C154,70 154,82 142,82L22,82C22,82 10,82 10,70L10,22C10,22 10,10 22,10" style="fill:none;stroke:rgb(183,183,183);stroke-width:2px;"/>
                        </g>
                    </g>
                </g>
                <g id="g-root-ro_5913r1m1lert-stroke" transform="matrix(1,0,0,1,450,143)">
                    <g id="ro_5913r1m1lert-stroke">
                        <g>
                            <path d="M22,10L178,10C178,10 190,10 190,22L190,52C190,52 190,64 178,64L22,64C22,64 10,64 10,52L10,22C10,22 10,10 22,10" style="fill:none;stroke:rgb(183,183,183);stroke-width:2px;"/>
                        </g>
                    </g>
                </g>
                <g id="g-root-cu_6hz9z1m1mubv-stroke" transform="matrix(0.89654,0,0,0.89654,162.938,171.035)">
                    <g id="cu_6hz9z1m1mubv-stroke">
                        <g>
                            <path d="M10,10L64,10" style="fill:none;stroke:rgb(151,140,140);stroke-width:2px;"/>
                            <path d="M58,16.5L64.5,10L58,3.5" style="fill:none;stroke:rgb(151,140,140);stroke-width:2px;"/>
                        </g>
                    </g>
                </g>
                <g id="g-root-cu_6hz9z1m1mubs-stroke" transform="matrix(0.824914,0,0,0.824914,401.823,171.751)">
                    <g id="cu_6hz9z1m1mubs-stroke">
                        <g>
                            <path d="M10,10L64,10" style="fill:none;stroke:rgb(151,140,140);stroke-width:2px;"/>
                            <path d="M58,16.5L64.5,10L58,3.5" style="fill:none;stroke:rgb(151,140,140);stroke-width:2px;"/>
                        </g>
                    </g>
                </g>
                <g id="g-root-cu_4mbhef1m1mtjh-stroke" transform="matrix(0.84879,0,0,0.84879,635.849,171.822)">
                    <g id="cu_4mbhef1m1mtjh-stroke">
                        <g>
                            <path d="M10,10L64,10" style="fill:none;stroke:rgb(151,140,140);stroke-width:2px;"/>
                            <path d="M58,16.5L64.5,10L58,3.5" style="fill:none;stroke:rgb(151,140,140);stroke-width:2px;"/>
                        </g>
                    </g>
                </g>
                <g id="g-root-ic_sear_1lz9t5j1m23n62-stroke" transform="matrix(1,0,0,1,26,155)">
                    <g id="ic_sear_1lz9t5j1m23n62-stroke">
                        <g>
                            <path d="M12.373,31.875L22.5,31.876M13.14,16.875L36.87,16.875M23.75,24.375L10.639,24.375M24.223,39.355C16.479,38.928 10.47,32.436 10.642,24.683C10.814,16.93 17.105,10.711 24.86,10.628C32.614,10.544 39.037,16.627 39.375,24.375M24.086,10.658C16.586,18.782 16.723,29.355 24.223,39.355M25.912,10.658C28.867,13.727 30.766,17.659 31.333,21.881M25.625,31.286C25.625,34.413 28.16,36.947 31.286,36.947C34.413,36.947 36.947,34.413 36.947,31.286C36.947,28.16 34.413,25.625 31.286,25.625C28.16,25.625 25.625,28.16 25.625,31.286ZM39.375,39.375L35.315,35.315" style="fill:none;stroke:rgb(244,244,244);stroke-width:2px;"/>
                        </g>
                    </g>
                </g>
                <g id="g-root-ic_glob_mbq2mv1m1lfk0-stroke" transform="matrix(1,0,0,1,462,155)">
                    <g id="ic_glob_mbq2mv1m1lfk0-stroke">
                        <g>
                            <path d="M25.043,38.75C17.525,38.94 11.188,33.183 10.658,25.682C10.127,18.181 15.591,11.589 23.06,10.719C30.529,9.849 37.362,15.008 38.57,22.43M21.3,38.334C19.399,35.544 18.125,30.474 18.125,24.683C18.125,18.891 19.399,13.823 21.3,11.031M10.656,23.75L26.185,23.75M13.438,16.25L35.938,16.25M12.25,31.25L25.045,31.25M28.077,11.031C30.114,14.474 31.141,18.42 31.04,22.419M33.75,28.583C36.856,28.583 39.375,27.776 39.375,26.782C39.375,25.789 36.856,24.983 33.75,24.983C30.644,24.983 28.125,25.788 28.125,26.782C28.125,27.778 30.644,28.583 33.75,28.583ZM28.125,32.182L28.125,26.782M39.375,26.782L39.375,32.182M39.375,32.182L39.375,37.583C39.375,38.575 36.856,39.383 33.75,39.383C30.644,39.383 28.125,38.575 28.125,37.583L28.125,32.182M39.375,30.308C39.375,31.3 36.856,32.108 33.75,32.108C30.644,32.108 28.125,31.3 28.125,30.308M39.375,34.057C39.375,35.05 36.856,35.858 33.75,35.858C30.644,35.858 28.125,35.05 28.125,34.057" style="fill:none;stroke:rgb(244,244,244);stroke-width:2px;"/>
                        </g>
                    </g>
                </g>
                <g id="g-root-ic_chec_hu15931m1mupv-stroke" transform="matrix(1,0,0,1,698,155)">
                    <g id="ic_chec_hu15931m1mupv-stroke">
                        <g>
                            <path d="M10.653,15.626C10.653,18.388 15.969,20.626 22.528,20.626C29.086,20.626 34.403,18.388 34.403,15.626C34.403,12.865 29.086,10.626 22.528,10.626C15.969,10.626 10.653,12.865 10.653,15.626ZM22.528,25.625C15.97,25.625 10.653,23.388 10.653,20.625M20.653,31.188C14.986,30.813 10.653,28.744 10.653,26.251M21.278,36.849C15.307,36.586 10.653,34.46 10.653,31.876L10.653,15.625M34.403,15.626L34.403,21.251M24.399,31.876C24.399,36.018 27.757,39.376 31.899,39.376C36.041,39.376 39.399,36.018 39.399,31.876C39.399,27.734 36.041,24.376 31.899,24.376C27.757,24.376 24.399,27.734 24.399,31.876ZM35.241,29.696L31.61,34.539C31.447,34.756 31.198,34.892 30.927,34.911C30.656,34.93 30.39,34.831 30.198,34.639L28.323,32.764" style="fill:none;stroke:rgb(244,244,244);stroke-width:2px;"/>
                        </g>
                    </g>
                </g>
            </g>
        </g>
    </g>
</svg>
