<?xml version="1.0" encoding="UTF-8" standalone="no"?>
<!DOCTYPE svg PUBLIC "-//W3C//DTD SVG 1.1//EN" "http://www.w3.org/Graphics/SVG/1.1/DTD/svg11.dtd">
<svg width="100%" height="100%" viewBox="0 0 631 274" version="1.1" xmlns="http://www.w3.org/2000/svg" xmlns:xlink="http://www.w3.org/1999/xlink" xml:space="preserve" xmlns:serif="http://www.serif.com/" style="fill-rule:evenodd;clip-rule:evenodd;stroke-linecap:round;stroke-linejoin:round;">
    <g id="Artboard1" transform="matrix(1.03962,0,0,0.862387,0,-20.2584)">
        <rect x="0" y="23.491" width="606" height="317.303" style="fill:none;"/>
        <g id="blend" transform="matrix(0.961889,0,0,1.15957,0,-63.7509)">
            <g id="items">
                <g id="blend1" serif:id="blend">
                    <g id="g-root-cr_2_cr-2_1hjford1t9hude-fill" transform="matrix(1,0,0,1,398,98)">
                        <g id="cr_2_cr-2_1hjford1t9hude-fill">
                            <g>
                                <path d="M10,64C10,93.823 34.177,118 64,118C93.823,118 118,93.823 118,64C118,34.177 93.823,10 64,10C34.177,10 10,34.177 10,64" style="fill:rgb(58,58,55);"/>
                            </g>
                        </g>
                    </g>
                    <g id="g-root-cr_1_cr-1_1hjford1t9hudf-fill" transform="matrix(1,0,0,1,74,98)">
                        <g id="cr_1_cr-1_1hjford1t9hudf-fill">
                            <g>
                                <path d="M10,64C10,93.823 34.177,118 64,118C93.823,118 118,93.823 118,64C118,34.177 93.823,10 64,10C34.177,10 10,34.177 10,64" style="fill:rgb(52,56,61);"/>
                            </g>
                        </g>
                    </g>
                    <g transform="matrix(1,0,0,1,56.32,252)">
                        <g id="g-root-tx_recursiv_htdyqh1t9j8qv-fill">
                            <g id="tx_recursiv_htdyqh1t9j8qv-fill">
                                <g>
                                    <g>
                                        <g transform="matrix(20,0,0,20,0,0)">
                                            <path d="M0.072,-0.708L0.346,-0.708C0.382,-0.708 0.416,-0.705 0.449,-0.698C0.481,-0.691 0.509,-0.679 0.534,-0.663C0.558,-0.646 0.577,-0.624 0.592,-0.597C0.606,-0.569 0.613,-0.534 0.613,-0.493C0.613,-0.443 0.6,-0.401 0.574,-0.366C0.548,-0.331 0.51,-0.308 0.46,-0.299L0.64,-0L0.453,-0L0.305,-0.283L0.228,-0.283L0.228,-0L0.072,-0L0.072,-0.708ZM0.228,-0.415L0.32,-0.415C0.334,-0.415 0.349,-0.416 0.365,-0.417C0.38,-0.418 0.394,-0.42 0.407,-0.426C0.42,-0.431 0.43,-0.438 0.439,-0.449C0.447,-0.46 0.451,-0.475 0.451,-0.494C0.451,-0.512 0.447,-0.526 0.44,-0.537C0.433,-0.548 0.423,-0.556 0.412,-0.562C0.401,-0.567 0.388,-0.571 0.373,-0.573C0.358,-0.575 0.344,-0.576 0.33,-0.576L0.228,-0.576L0.228,-0.415Z" style="fill:rgb(126,214,223);fill-rule:nonzero;"/>
                                        </g>
                                        <g transform="matrix(20,0,0,20,12.96,0)">
                                            <path d="M0.513,-0.084C0.489,-0.053 0.459,-0.03 0.422,-0.013C0.385,0.004 0.347,0.012 0.308,0.012C0.271,0.012 0.236,0.006 0.203,-0.006C0.169,-0.018 0.141,-0.035 0.117,-0.058C0.092,-0.08 0.073,-0.107 0.059,-0.138C0.045,-0.169 0.038,-0.204 0.038,-0.243C0.038,-0.282 0.045,-0.317 0.059,-0.348C0.073,-0.379 0.092,-0.406 0.117,-0.429C0.141,-0.451 0.169,-0.468 0.203,-0.48C0.236,-0.492 0.271,-0.498 0.308,-0.498C0.343,-0.498 0.374,-0.492 0.403,-0.48C0.431,-0.468 0.455,-0.451 0.475,-0.429C0.494,-0.406 0.509,-0.379 0.52,-0.348C0.531,-0.317 0.536,-0.282 0.536,-0.243L0.536,-0.196L0.188,-0.196C0.194,-0.167 0.207,-0.145 0.227,-0.128C0.247,-0.111 0.272,-0.102 0.301,-0.102C0.326,-0.102 0.347,-0.108 0.364,-0.119C0.381,-0.13 0.395,-0.144 0.408,-0.161L0.513,-0.084ZM0.386,-0.298C0.387,-0.323 0.378,-0.345 0.361,-0.363C0.344,-0.381 0.321,-0.39 0.294,-0.39C0.277,-0.39 0.263,-0.387 0.25,-0.382C0.237,-0.377 0.227,-0.37 0.218,-0.362C0.209,-0.353 0.202,-0.343 0.197,-0.333C0.192,-0.322 0.189,-0.31 0.188,-0.298L0.386,-0.298Z" style="fill:rgb(126,214,223);fill-rule:nonzero;"/>
                                        </g>
                                        <g transform="matrix(20,0,0,20,24.44,0)">
                                            <path d="M0.382,-0.329C0.375,-0.34 0.364,-0.349 0.351,-0.356C0.338,-0.363 0.323,-0.366 0.308,-0.366C0.27,-0.366 0.241,-0.355 0.22,-0.332C0.199,-0.309 0.188,-0.28 0.188,-0.243C0.188,-0.206 0.199,-0.177 0.22,-0.154C0.241,-0.131 0.27,-0.12 0.308,-0.12C0.325,-0.12 0.339,-0.124 0.351,-0.131C0.363,-0.138 0.373,-0.147 0.382,-0.157L0.481,-0.053C0.458,-0.029 0.43,-0.012 0.399,-0.003C0.367,0.007 0.337,0.012 0.308,0.012C0.271,0.012 0.236,0.006 0.203,-0.006C0.169,-0.018 0.141,-0.035 0.117,-0.058C0.092,-0.08 0.073,-0.107 0.059,-0.138C0.045,-0.169 0.038,-0.204 0.038,-0.243C0.038,-0.282 0.045,-0.317 0.059,-0.348C0.073,-0.379 0.092,-0.406 0.117,-0.429C0.141,-0.451 0.169,-0.468 0.203,-0.48C0.236,-0.492 0.271,-0.498 0.308,-0.498C0.337,-0.498 0.367,-0.493 0.399,-0.484C0.43,-0.474 0.458,-0.457 0.481,-0.433L0.382,-0.329Z" style="fill:rgb(126,214,223);fill-rule:nonzero;"/>
                                        </g>
                                        <g transform="matrix(20,0,0,20,34.08,0)">
                                            <path d="M0.521,-0L0.377,-0L0.377,-0.066L0.375,-0.066C0.37,-0.057 0.363,-0.047 0.355,-0.038C0.346,-0.029 0.336,-0.02 0.324,-0.013C0.312,-0.006 0.298,0 0.283,0.005C0.268,0.01 0.251,0.012 0.233,0.012C0.195,0.012 0.164,0.006 0.141,-0.006C0.117,-0.017 0.098,-0.033 0.086,-0.054C0.073,-0.075 0.064,-0.099 0.06,-0.127C0.055,-0.155 0.053,-0.185 0.053,-0.218L0.053,-0.486L0.203,-0.486L0.203,-0.248C0.203,-0.234 0.204,-0.22 0.205,-0.205C0.206,-0.19 0.209,-0.176 0.214,-0.163C0.219,-0.15 0.226,-0.14 0.237,-0.132C0.247,-0.124 0.262,-0.12 0.281,-0.12C0.3,-0.12 0.316,-0.124 0.328,-0.131C0.34,-0.138 0.349,-0.147 0.356,-0.159C0.362,-0.17 0.366,-0.183 0.368,-0.198C0.37,-0.213 0.371,-0.228 0.371,-0.244L0.371,-0.486L0.521,-0.486L0.521,-0Z" style="fill:rgb(126,214,223);fill-rule:nonzero;"/>
                                        </g>
                                        <g transform="matrix(20,0,0,20,45.56,0)">
                                            <path d="M0.053,-0.486L0.203,-0.486L0.203,-0.408L0.205,-0.408C0.221,-0.438 0.24,-0.46 0.262,-0.476C0.284,-0.491 0.312,-0.498 0.345,-0.498C0.354,-0.498 0.362,-0.498 0.371,-0.497C0.38,-0.496 0.388,-0.495 0.395,-0.493L0.395,-0.356C0.384,-0.359 0.374,-0.362 0.364,-0.364C0.353,-0.365 0.342,-0.366 0.331,-0.366C0.302,-0.366 0.28,-0.362 0.263,-0.354C0.246,-0.346 0.234,-0.335 0.225,-0.321C0.216,-0.306 0.21,-0.289 0.207,-0.269C0.204,-0.249 0.203,-0.227 0.203,-0.203L0.203,-0L0.053,-0L0.053,-0.486Z" style="fill:rgb(126,214,223);fill-rule:nonzero;"/>
                                        </g>
                                        <g transform="matrix(20,0,0,20,53.7,0)">
                                            <path d="M0.328,-0.343C0.306,-0.37 0.277,-0.384 0.241,-0.384C0.228,-0.384 0.216,-0.381 0.204,-0.375C0.192,-0.369 0.186,-0.359 0.186,-0.344C0.186,-0.332 0.192,-0.323 0.205,-0.318C0.217,-0.312 0.233,-0.307 0.252,-0.303C0.271,-0.298 0.291,-0.294 0.313,-0.289C0.334,-0.284 0.355,-0.276 0.374,-0.265C0.393,-0.254 0.408,-0.24 0.421,-0.222C0.433,-0.203 0.439,-0.179 0.439,-0.148C0.439,-0.117 0.432,-0.091 0.419,-0.071C0.405,-0.05 0.387,-0.034 0.366,-0.022C0.345,-0.009 0.321,-0 0.294,0.005C0.267,0.01 0.241,0.012 0.215,0.012C0.181,0.012 0.147,0.007 0.112,-0.003C0.077,-0.012 0.048,-0.029 0.024,-0.054L0.115,-0.155C0.129,-0.138 0.145,-0.125 0.162,-0.116C0.179,-0.107 0.198,-0.102 0.221,-0.102C0.238,-0.102 0.254,-0.105 0.268,-0.11C0.282,-0.115 0.289,-0.124 0.289,-0.137C0.289,-0.15 0.283,-0.159 0.271,-0.166C0.258,-0.172 0.243,-0.177 0.224,-0.182C0.205,-0.186 0.184,-0.191 0.163,-0.196C0.141,-0.201 0.121,-0.208 0.102,-0.218C0.083,-0.228 0.067,-0.242 0.055,-0.261C0.042,-0.279 0.036,-0.303 0.036,-0.334C0.036,-0.363 0.042,-0.387 0.054,-0.408C0.065,-0.429 0.081,-0.446 0.1,-0.459C0.119,-0.472 0.14,-0.482 0.165,-0.489C0.19,-0.495 0.215,-0.498 0.24,-0.498C0.272,-0.498 0.304,-0.493 0.337,-0.484C0.37,-0.475 0.397,-0.458 0.42,-0.434L0.328,-0.343Z" style="fill:rgb(126,214,223);fill-rule:nonzero;"/>
                                        </g>
                                        <g transform="matrix(20,0,0,20,62.96,0)">
                                            <path d="M0.055,-0.486L0.205,-0.486L0.205,-0L0.055,-0L0.055,-0.486ZM0.043,-0.639C0.043,-0.663 0.052,-0.684 0.069,-0.701C0.086,-0.717 0.106,-0.726 0.13,-0.726C0.154,-0.726 0.175,-0.717 0.192,-0.701C0.209,-0.684 0.217,-0.663 0.217,-0.639C0.217,-0.615 0.209,-0.595 0.192,-0.578C0.175,-0.561 0.154,-0.552 0.13,-0.552C0.106,-0.552 0.086,-0.561 0.069,-0.578C0.052,-0.595 0.043,-0.615 0.043,-0.639Z" style="fill:rgb(126,214,223);fill-rule:nonzero;"/>
                                        </g>
                                        <g transform="matrix(20,0,0,20,68.16,0)">
                                            <path d="M0.002,-0.486L0.164,-0.486L0.287,-0.156L0.289,-0.156L0.403,-0.486L0.554,-0.486L0.362,-0L0.203,-0L0.002,-0.486Z" style="fill:rgb(126,214,223);fill-rule:nonzero;"/>
                                        </g>
                                        <g transform="matrix(20,0,0,20,79.28,0)">
                                            <path d="M0.513,-0.084C0.489,-0.053 0.459,-0.03 0.422,-0.013C0.385,0.004 0.347,0.012 0.308,0.012C0.271,0.012 0.236,0.006 0.203,-0.006C0.169,-0.018 0.141,-0.035 0.117,-0.058C0.092,-0.08 0.073,-0.107 0.059,-0.138C0.045,-0.169 0.038,-0.204 0.038,-0.243C0.038,-0.282 0.045,-0.317 0.059,-0.348C0.073,-0.379 0.092,-0.406 0.117,-0.429C0.141,-0.451 0.169,-0.468 0.203,-0.48C0.236,-0.492 0.271,-0.498 0.308,-0.498C0.343,-0.498 0.374,-0.492 0.403,-0.48C0.431,-0.468 0.455,-0.451 0.475,-0.429C0.494,-0.406 0.509,-0.379 0.52,-0.348C0.531,-0.317 0.536,-0.282 0.536,-0.243L0.536,-0.196L0.188,-0.196C0.194,-0.167 0.207,-0.145 0.227,-0.128C0.247,-0.111 0.272,-0.102 0.301,-0.102C0.326,-0.102 0.347,-0.108 0.364,-0.119C0.381,-0.13 0.395,-0.144 0.408,-0.161L0.513,-0.084ZM0.386,-0.298C0.387,-0.323 0.378,-0.345 0.361,-0.363C0.344,-0.381 0.321,-0.39 0.294,-0.39C0.277,-0.39 0.263,-0.387 0.25,-0.382C0.237,-0.377 0.227,-0.37 0.218,-0.362C0.209,-0.353 0.202,-0.343 0.197,-0.333C0.192,-0.322 0.189,-0.31 0.188,-0.298L0.386,-0.298Z" style="fill:rgb(126,214,223);fill-rule:nonzero;"/>
                                        </g>
                                        <g transform="matrix(20,0,0,20,96.68,0)">
                                            <path d="M0.847,-0L0.418,-0C0.363,-0 0.312,-0.008 0.265,-0.025C0.218,-0.041 0.177,-0.065 0.143,-0.096C0.109,-0.127 0.082,-0.165 0.063,-0.21C0.044,-0.255 0.034,-0.306 0.034,-0.363C0.034,-0.416 0.044,-0.465 0.064,-0.51C0.083,-0.555 0.11,-0.593 0.144,-0.625C0.178,-0.657 0.218,-0.682 0.264,-0.7C0.31,-0.717 0.359,-0.726 0.412,-0.726C0.465,-0.726 0.514,-0.717 0.56,-0.699C0.606,-0.681 0.646,-0.656 0.68,-0.624C0.714,-0.592 0.741,-0.554 0.761,-0.51C0.78,-0.465 0.79,-0.416 0.79,-0.363C0.79,-0.338 0.787,-0.313 0.782,-0.289C0.776,-0.265 0.767,-0.242 0.756,-0.221C0.745,-0.2 0.73,-0.181 0.712,-0.164C0.694,-0.147 0.673,-0.133 0.649,-0.122L0.649,-0.12L0.847,-0.12L0.847,-0ZM0.196,-0.363C0.196,-0.332 0.202,-0.304 0.213,-0.277C0.224,-0.25 0.24,-0.227 0.26,-0.208C0.279,-0.188 0.302,-0.172 0.328,-0.161C0.354,-0.15 0.382,-0.144 0.412,-0.144C0.442,-0.144 0.47,-0.15 0.496,-0.161C0.522,-0.172 0.545,-0.188 0.565,-0.208C0.584,-0.227 0.6,-0.25 0.611,-0.277C0.622,-0.304 0.628,-0.332 0.628,-0.363C0.628,-0.394 0.622,-0.422 0.611,-0.449C0.6,-0.476 0.584,-0.499 0.565,-0.519C0.545,-0.538 0.522,-0.554 0.496,-0.565C0.47,-0.576 0.442,-0.582 0.412,-0.582C0.382,-0.582 0.354,-0.576 0.328,-0.565C0.302,-0.554 0.279,-0.538 0.26,-0.519C0.24,-0.499 0.224,-0.476 0.213,-0.449C0.202,-0.422 0.196,-0.394 0.196,-0.363Z" style="fill:rgb(126,214,223);fill-rule:nonzero;"/>
                                        </g>
                                        <g transform="matrix(20,0,0,20,113.72,0)">
                                            <path d="M0.521,-0L0.377,-0L0.377,-0.066L0.375,-0.066C0.37,-0.057 0.363,-0.047 0.355,-0.038C0.346,-0.029 0.336,-0.02 0.324,-0.013C0.312,-0.006 0.298,0 0.283,0.005C0.268,0.01 0.251,0.012 0.233,0.012C0.195,0.012 0.164,0.006 0.141,-0.006C0.117,-0.017 0.098,-0.033 0.086,-0.054C0.073,-0.075 0.064,-0.099 0.06,-0.127C0.055,-0.155 0.053,-0.185 0.053,-0.218L0.053,-0.486L0.203,-0.486L0.203,-0.248C0.203,-0.234 0.204,-0.22 0.205,-0.205C0.206,-0.19 0.209,-0.176 0.214,-0.163C0.219,-0.15 0.226,-0.14 0.237,-0.132C0.247,-0.124 0.262,-0.12 0.281,-0.12C0.3,-0.12 0.316,-0.124 0.328,-0.131C0.34,-0.138 0.349,-0.147 0.356,-0.159C0.362,-0.17 0.366,-0.183 0.368,-0.198C0.37,-0.213 0.371,-0.228 0.371,-0.244L0.371,-0.486L0.521,-0.486L0.521,-0Z" style="fill:rgb(126,214,223);fill-rule:nonzero;"/>
                                        </g>
                                        <g transform="matrix(20,0,0,20,125.2,0)">
                                            <path d="M0.513,-0.084C0.489,-0.053 0.459,-0.03 0.422,-0.013C0.385,0.004 0.347,0.012 0.308,0.012C0.271,0.012 0.236,0.006 0.203,-0.006C0.169,-0.018 0.141,-0.035 0.117,-0.058C0.092,-0.08 0.073,-0.107 0.059,-0.138C0.045,-0.169 0.038,-0.204 0.038,-0.243C0.038,-0.282 0.045,-0.317 0.059,-0.348C0.073,-0.379 0.092,-0.406 0.117,-0.429C0.141,-0.451 0.169,-0.468 0.203,-0.48C0.236,-0.492 0.271,-0.498 0.308,-0.498C0.343,-0.498 0.374,-0.492 0.403,-0.48C0.431,-0.468 0.455,-0.451 0.475,-0.429C0.494,-0.406 0.509,-0.379 0.52,-0.348C0.531,-0.317 0.536,-0.282 0.536,-0.243L0.536,-0.196L0.188,-0.196C0.194,-0.167 0.207,-0.145 0.227,-0.128C0.247,-0.111 0.272,-0.102 0.301,-0.102C0.326,-0.102 0.347,-0.108 0.364,-0.119C0.381,-0.13 0.395,-0.144 0.408,-0.161L0.513,-0.084ZM0.386,-0.298C0.387,-0.323 0.378,-0.345 0.361,-0.363C0.344,-0.381 0.321,-0.39 0.294,-0.39C0.277,-0.39 0.263,-0.387 0.25,-0.382C0.237,-0.377 0.227,-0.37 0.218,-0.362C0.209,-0.353 0.202,-0.343 0.197,-0.333C0.192,-0.322 0.189,-0.31 0.188,-0.298L0.386,-0.298Z" style="fill:rgb(126,214,223);fill-rule:nonzero;"/>
                                        </g>
                                        <g transform="matrix(20,0,0,20,136.68,0)">
                                            <path d="M0.053,-0.486L0.203,-0.486L0.203,-0.408L0.205,-0.408C0.221,-0.438 0.24,-0.46 0.262,-0.476C0.284,-0.491 0.312,-0.498 0.345,-0.498C0.354,-0.498 0.362,-0.498 0.371,-0.497C0.38,-0.496 0.388,-0.495 0.395,-0.493L0.395,-0.356C0.384,-0.359 0.374,-0.362 0.364,-0.364C0.353,-0.365 0.342,-0.366 0.331,-0.366C0.302,-0.366 0.28,-0.362 0.263,-0.354C0.246,-0.346 0.234,-0.335 0.225,-0.321C0.216,-0.306 0.21,-0.289 0.207,-0.269C0.204,-0.249 0.203,-0.227 0.203,-0.203L0.203,-0L0.053,-0L0.053,-0.486Z" style="fill:rgb(126,214,223);fill-rule:nonzero;"/>
                                        </g>
                                        <g transform="matrix(20,0,0,20,144.82,0)">
                                            <path d="M0.055,-0.486L0.205,-0.486L0.205,-0L0.055,-0L0.055,-0.486ZM0.043,-0.639C0.043,-0.663 0.052,-0.684 0.069,-0.701C0.086,-0.717 0.106,-0.726 0.13,-0.726C0.154,-0.726 0.175,-0.717 0.192,-0.701C0.209,-0.684 0.217,-0.663 0.217,-0.639C0.217,-0.615 0.209,-0.595 0.192,-0.578C0.175,-0.561 0.154,-0.552 0.13,-0.552C0.106,-0.552 0.086,-0.561 0.069,-0.578C0.052,-0.595 0.043,-0.615 0.043,-0.639Z" style="fill:rgb(126,214,223);fill-rule:nonzero;"/>
                                        </g>
                                        <g transform="matrix(20,0,0,20,150.02,0)">
                                            <path d="M0.513,-0.084C0.489,-0.053 0.459,-0.03 0.422,-0.013C0.385,0.004 0.347,0.012 0.308,0.012C0.271,0.012 0.236,0.006 0.203,-0.006C0.169,-0.018 0.141,-0.035 0.117,-0.058C0.092,-0.08 0.073,-0.107 0.059,-0.138C0.045,-0.169 0.038,-0.204 0.038,-0.243C0.038,-0.282 0.045,-0.317 0.059,-0.348C0.073,-0.379 0.092,-0.406 0.117,-0.429C0.141,-0.451 0.169,-0.468 0.203,-0.48C0.236,-0.492 0.271,-0.498 0.308,-0.498C0.343,-0.498 0.374,-0.492 0.403,-0.48C0.431,-0.468 0.455,-0.451 0.475,-0.429C0.494,-0.406 0.509,-0.379 0.52,-0.348C0.531,-0.317 0.536,-0.282 0.536,-0.243L0.536,-0.196L0.188,-0.196C0.194,-0.167 0.207,-0.145 0.227,-0.128C0.247,-0.111 0.272,-0.102 0.301,-0.102C0.326,-0.102 0.347,-0.108 0.364,-0.119C0.381,-0.13 0.395,-0.144 0.408,-0.161L0.513,-0.084ZM0.386,-0.298C0.387,-0.323 0.378,-0.345 0.361,-0.363C0.344,-0.381 0.321,-0.39 0.294,-0.39C0.277,-0.39 0.263,-0.387 0.25,-0.382C0.237,-0.377 0.227,-0.37 0.218,-0.362C0.209,-0.353 0.202,-0.343 0.197,-0.333C0.192,-0.322 0.189,-0.31 0.188,-0.298L0.386,-0.298Z" style="fill:rgb(126,214,223);fill-rule:nonzero;"/>
                                        </g>
                                        <g transform="matrix(20,0,0,20,161.5,0)">
                                            <path d="M0.328,-0.343C0.306,-0.37 0.277,-0.384 0.241,-0.384C0.228,-0.384 0.216,-0.381 0.204,-0.375C0.192,-0.369 0.186,-0.359 0.186,-0.344C0.186,-0.332 0.192,-0.323 0.205,-0.318C0.217,-0.312 0.233,-0.307 0.252,-0.303C0.271,-0.298 0.291,-0.294 0.313,-0.289C0.334,-0.284 0.355,-0.276 0.374,-0.265C0.393,-0.254 0.408,-0.24 0.421,-0.222C0.433,-0.203 0.439,-0.179 0.439,-0.148C0.439,-0.117 0.432,-0.091 0.419,-0.071C0.405,-0.05 0.387,-0.034 0.366,-0.022C0.345,-0.009 0.321,-0 0.294,0.005C0.267,0.01 0.241,0.012 0.215,0.012C0.181,0.012 0.147,0.007 0.112,-0.003C0.077,-0.012 0.048,-0.029 0.024,-0.054L0.115,-0.155C0.129,-0.138 0.145,-0.125 0.162,-0.116C0.179,-0.107 0.198,-0.102 0.221,-0.102C0.238,-0.102 0.254,-0.105 0.268,-0.11C0.282,-0.115 0.289,-0.124 0.289,-0.137C0.289,-0.15 0.283,-0.159 0.271,-0.166C0.258,-0.172 0.243,-0.177 0.224,-0.182C0.205,-0.186 0.184,-0.191 0.163,-0.196C0.141,-0.201 0.121,-0.208 0.102,-0.218C0.083,-0.228 0.067,-0.242 0.055,-0.261C0.042,-0.279 0.036,-0.303 0.036,-0.334C0.036,-0.363 0.042,-0.387 0.054,-0.408C0.065,-0.429 0.081,-0.446 0.1,-0.459C0.119,-0.472 0.14,-0.482 0.165,-0.489C0.19,-0.495 0.215,-0.498 0.24,-0.498C0.272,-0.498 0.304,-0.493 0.337,-0.484C0.37,-0.475 0.397,-0.458 0.42,-0.434L0.328,-0.343Z" style="fill:rgb(126,214,223);fill-rule:nonzero;"/>
                                        </g>
                                    </g>
                                </g>
                            </g>
                        </g>
                    </g>
                    <g transform="matrix(1,0,0,1,387.79,252)">
                        <g id="g-root-tx_iterativ_4g213t1t9jbbh-fill">
                            <g id="tx_iterativ_4g213t1t9jbbh-fill">
                                <g>
                                    <g>
                                        <g transform="matrix(20,0,0,20,0,0)">
                                            <rect x="0.068" y="-0.716" width="0.145" height="0.716" style="fill:rgb(195,230,159);fill-rule:nonzero;"/>
                                        </g>
                                        <g transform="matrix(20,0,0,20,5.55664,0)">
                                            <path d="M0.31,-0.519L0.31,-0.409L0.216,-0.409L0.216,-0.2C0.216,-0.158 0.217,-0.133 0.219,-0.126C0.22,-0.119 0.224,-0.113 0.231,-0.109C0.237,-0.104 0.245,-0.102 0.254,-0.102C0.267,-0.102 0.285,-0.106 0.309,-0.115L0.321,-0.009C0.289,0.005 0.253,0.012 0.212,0.012C0.188,0.012 0.165,0.008 0.146,-0.001C0.126,-0.009 0.111,-0.02 0.102,-0.033C0.093,-0.046 0.086,-0.064 0.083,-0.086C0.08,-0.102 0.078,-0.135 0.078,-0.183L0.078,-0.409L0.015,-0.409L0.015,-0.519L0.078,-0.519L0.078,-0.622L0.216,-0.702L0.216,-0.519L0.31,-0.519Z" style="fill:rgb(195,230,159);fill-rule:nonzero;"/>
                                        </g>
                                        <g transform="matrix(20,0,0,20,12.2168,0)">
                                            <path d="M0.372,-0.165L0.509,-0.142C0.491,-0.092 0.463,-0.054 0.426,-0.028C0.388,-0.001 0.34,0.012 0.283,0.012C0.193,0.012 0.126,-0.018 0.083,-0.077C0.049,-0.124 0.032,-0.183 0.032,-0.255C0.032,-0.341 0.054,-0.409 0.099,-0.457C0.144,-0.506 0.201,-0.53 0.27,-0.53C0.347,-0.53 0.408,-0.505 0.452,-0.454C0.497,-0.403 0.518,-0.325 0.516,-0.22L0.172,-0.22C0.173,-0.179 0.184,-0.147 0.206,-0.125C0.227,-0.102 0.253,-0.091 0.285,-0.091C0.306,-0.091 0.324,-0.097 0.339,-0.108C0.354,-0.12 0.365,-0.139 0.372,-0.165ZM0.38,-0.304C0.379,-0.343 0.369,-0.374 0.349,-0.394C0.33,-0.415 0.306,-0.425 0.278,-0.425C0.248,-0.425 0.223,-0.414 0.204,-0.393C0.184,-0.371 0.174,-0.341 0.175,-0.304L0.38,-0.304Z" style="fill:rgb(195,230,159);fill-rule:nonzero;"/>
                                        </g>
                                        <g transform="matrix(20,0,0,20,23.3398,0)">
                                            <path d="M0.203,-0L0.066,-0L0.066,-0.519L0.193,-0.519L0.193,-0.445C0.215,-0.48 0.235,-0.503 0.252,-0.514C0.27,-0.525 0.289,-0.53 0.312,-0.53C0.343,-0.53 0.373,-0.522 0.402,-0.504L0.359,-0.385C0.336,-0.4 0.315,-0.407 0.295,-0.407C0.276,-0.407 0.259,-0.402 0.246,-0.391C0.233,-0.381 0.222,-0.362 0.215,-0.334C0.207,-0.306 0.203,-0.248 0.203,-0.16L0.203,-0Z" style="fill:rgb(195,230,159);fill-rule:nonzero;"/>
                                        </g>
                                        <g transform="matrix(20,0,0,20,31.123,0)">
                                            <path d="M0.174,-0.36L0.05,-0.383C0.064,-0.433 0.088,-0.47 0.122,-0.494C0.156,-0.518 0.207,-0.53 0.274,-0.53C0.336,-0.53 0.381,-0.523 0.411,-0.509C0.441,-0.494 0.462,-0.476 0.474,-0.453C0.487,-0.431 0.493,-0.39 0.493,-0.331L0.491,-0.17C0.491,-0.125 0.493,-0.091 0.498,-0.07C0.502,-0.048 0.51,-0.025 0.522,-0L0.387,-0C0.383,-0.009 0.379,-0.023 0.374,-0.041C0.371,-0.049 0.37,-0.054 0.369,-0.057C0.345,-0.034 0.32,-0.017 0.293,-0.005C0.267,0.006 0.238,0.012 0.208,0.012C0.155,0.012 0.113,-0.003 0.082,-0.032C0.051,-0.061 0.036,-0.097 0.036,-0.142C0.036,-0.171 0.043,-0.197 0.057,-0.22C0.071,-0.243 0.09,-0.26 0.115,-0.273C0.141,-0.285 0.177,-0.296 0.225,-0.305C0.289,-0.317 0.333,-0.328 0.358,-0.338L0.358,-0.352C0.358,-0.378 0.351,-0.397 0.338,-0.408C0.325,-0.42 0.301,-0.425 0.265,-0.425C0.24,-0.425 0.221,-0.42 0.208,-0.411C0.194,-0.401 0.183,-0.384 0.174,-0.36ZM0.358,-0.249C0.34,-0.243 0.313,-0.236 0.274,-0.228C0.236,-0.22 0.211,-0.212 0.2,-0.204C0.182,-0.191 0.173,-0.175 0.173,-0.156C0.173,-0.137 0.18,-0.12 0.194,-0.106C0.209,-0.092 0.227,-0.085 0.249,-0.085C0.274,-0.085 0.297,-0.093 0.32,-0.109C0.336,-0.122 0.347,-0.137 0.353,-0.155C0.356,-0.167 0.358,-0.189 0.358,-0.222L0.358,-0.249Z" style="fill:rgb(195,230,159);fill-rule:nonzero;"/>
                                        </g>
                                        <g transform="matrix(20,0,0,20,42.2461,0)">
                                            <path d="M0.31,-0.519L0.31,-0.409L0.216,-0.409L0.216,-0.2C0.216,-0.158 0.217,-0.133 0.219,-0.126C0.22,-0.119 0.224,-0.113 0.231,-0.109C0.237,-0.104 0.245,-0.102 0.254,-0.102C0.267,-0.102 0.285,-0.106 0.309,-0.115L0.321,-0.009C0.289,0.005 0.253,0.012 0.212,0.012C0.188,0.012 0.165,0.008 0.146,-0.001C0.126,-0.009 0.111,-0.02 0.102,-0.033C0.093,-0.046 0.086,-0.064 0.083,-0.086C0.08,-0.102 0.078,-0.135 0.078,-0.183L0.078,-0.409L0.015,-0.409L0.015,-0.519L0.078,-0.519L0.078,-0.622L0.216,-0.702L0.216,-0.519L0.31,-0.519Z" style="fill:rgb(195,230,159);fill-rule:nonzero;"/>
                                        </g>
                                        <g transform="matrix(20,0,0,20,48.9062,0)">
                                            <path d="M0.072,-0.589L0.072,-0.716L0.209,-0.716L0.209,-0.589L0.072,-0.589ZM0.072,-0L0.072,-0.519L0.209,-0.519L0.209,-0L0.072,-0Z" style="fill:rgb(195,230,159);fill-rule:nonzero;"/>
                                        </g>
                                        <g transform="matrix(20,0,0,20,54.4629,0)">
                                            <path d="M0.214,-0L0.005,-0.519L0.149,-0.519L0.247,-0.254L0.275,-0.166C0.283,-0.188 0.288,-0.203 0.29,-0.21C0.294,-0.225 0.299,-0.239 0.304,-0.254L0.403,-0.519L0.544,-0.519L0.338,-0L0.214,-0Z" style="fill:rgb(195,230,159);fill-rule:nonzero;"/>
                                        </g>
                                        <g transform="matrix(20,0,0,20,65.5859,0)">
                                            <path d="M0.372,-0.165L0.509,-0.142C0.491,-0.092 0.463,-0.054 0.426,-0.028C0.388,-0.001 0.34,0.012 0.283,0.012C0.193,0.012 0.126,-0.018 0.083,-0.077C0.049,-0.124 0.032,-0.183 0.032,-0.255C0.032,-0.341 0.054,-0.409 0.099,-0.457C0.144,-0.506 0.201,-0.53 0.27,-0.53C0.347,-0.53 0.408,-0.505 0.452,-0.454C0.497,-0.403 0.518,-0.325 0.516,-0.22L0.172,-0.22C0.173,-0.179 0.184,-0.147 0.206,-0.125C0.227,-0.102 0.253,-0.091 0.285,-0.091C0.306,-0.091 0.324,-0.097 0.339,-0.108C0.354,-0.12 0.365,-0.139 0.372,-0.165ZM0.38,-0.304C0.379,-0.343 0.369,-0.374 0.349,-0.394C0.33,-0.415 0.306,-0.425 0.278,-0.425C0.248,-0.425 0.223,-0.414 0.204,-0.393C0.184,-0.371 0.174,-0.341 0.175,-0.304L0.38,-0.304Z" style="fill:rgb(195,230,159);fill-rule:nonzero;"/>
                                        </g>
                                        <g transform="matrix(20,0,0,20,82.2656,0)">
                                            <path d="M0.649,-0.091C0.684,-0.065 0.723,-0.045 0.765,-0.03L0.711,0.072C0.69,0.065 0.668,0.056 0.647,0.045C0.643,0.043 0.611,0.021 0.551,-0.019C0.504,0.002 0.452,0.012 0.396,0.012C0.285,0.012 0.199,-0.02 0.137,-0.085C0.075,-0.15 0.043,-0.241 0.043,-0.358C0.043,-0.475 0.075,-0.566 0.137,-0.631C0.2,-0.696 0.285,-0.728 0.392,-0.728C0.498,-0.728 0.582,-0.696 0.644,-0.631C0.706,-0.566 0.737,-0.475 0.737,-0.358C0.737,-0.296 0.729,-0.242 0.711,-0.195C0.698,-0.159 0.678,-0.124 0.649,-0.091ZM0.533,-0.172C0.551,-0.194 0.565,-0.221 0.574,-0.251C0.584,-0.282 0.588,-0.318 0.588,-0.358C0.588,-0.441 0.57,-0.502 0.534,-0.543C0.497,-0.584 0.45,-0.604 0.391,-0.604C0.332,-0.604 0.284,-0.584 0.247,-0.543C0.211,-0.502 0.192,-0.44 0.192,-0.358C0.192,-0.274 0.211,-0.212 0.247,-0.17C0.284,-0.129 0.33,-0.108 0.386,-0.108C0.407,-0.108 0.427,-0.111 0.445,-0.118C0.416,-0.137 0.386,-0.152 0.356,-0.163L0.396,-0.246C0.444,-0.229 0.489,-0.205 0.533,-0.172Z" style="fill:rgb(195,230,159);fill-rule:nonzero;"/>
                                        </g>
                                        <g transform="matrix(20,0,0,20,97.8223,0)">
                                            <path d="M0.413,-0L0.413,-0.078C0.394,-0.05 0.369,-0.028 0.339,-0.012C0.308,0.004 0.275,0.012 0.241,0.012C0.206,0.012 0.175,0.004 0.147,-0.011C0.12,-0.027 0.1,-0.048 0.087,-0.076C0.075,-0.103 0.069,-0.142 0.069,-0.19L0.069,-0.519L0.206,-0.519L0.206,-0.28C0.206,-0.207 0.209,-0.163 0.214,-0.146C0.219,-0.13 0.228,-0.117 0.241,-0.107C0.255,-0.098 0.271,-0.093 0.292,-0.093C0.315,-0.093 0.336,-0.099 0.355,-0.112C0.374,-0.125 0.386,-0.141 0.393,-0.16C0.4,-0.179 0.403,-0.226 0.403,-0.3L0.403,-0.519L0.541,-0.519L0.541,-0L0.413,-0Z" style="fill:rgb(195,230,159);fill-rule:nonzero;"/>
                                        </g>
                                        <g transform="matrix(20,0,0,20,110.039,0)">
                                            <path d="M0.372,-0.165L0.509,-0.142C0.491,-0.092 0.463,-0.054 0.426,-0.028C0.388,-0.001 0.34,0.012 0.283,0.012C0.193,0.012 0.126,-0.018 0.083,-0.077C0.049,-0.124 0.032,-0.183 0.032,-0.255C0.032,-0.341 0.054,-0.409 0.099,-0.457C0.144,-0.506 0.201,-0.53 0.27,-0.53C0.347,-0.53 0.408,-0.505 0.452,-0.454C0.497,-0.403 0.518,-0.325 0.516,-0.22L0.172,-0.22C0.173,-0.179 0.184,-0.147 0.206,-0.125C0.227,-0.102 0.253,-0.091 0.285,-0.091C0.306,-0.091 0.324,-0.097 0.339,-0.108C0.354,-0.12 0.365,-0.139 0.372,-0.165ZM0.38,-0.304C0.379,-0.343 0.369,-0.374 0.349,-0.394C0.33,-0.415 0.306,-0.425 0.278,-0.425C0.248,-0.425 0.223,-0.414 0.204,-0.393C0.184,-0.371 0.174,-0.341 0.175,-0.304L0.38,-0.304Z" style="fill:rgb(195,230,159);fill-rule:nonzero;"/>
                                        </g>
                                        <g transform="matrix(20,0,0,20,121.162,0)">
                                            <path d="M0.203,-0L0.066,-0L0.066,-0.519L0.193,-0.519L0.193,-0.445C0.215,-0.48 0.235,-0.503 0.252,-0.514C0.27,-0.525 0.289,-0.53 0.312,-0.53C0.343,-0.53 0.373,-0.522 0.402,-0.504L0.359,-0.385C0.336,-0.4 0.315,-0.407 0.295,-0.407C0.276,-0.407 0.259,-0.402 0.246,-0.391C0.233,-0.381 0.222,-0.362 0.215,-0.334C0.207,-0.306 0.203,-0.248 0.203,-0.16L0.203,-0Z" style="fill:rgb(195,230,159);fill-rule:nonzero;"/>
                                        </g>
                                        <g transform="matrix(20,0,0,20,128.945,0)">
                                            <path d="M0.072,-0.589L0.072,-0.716L0.209,-0.716L0.209,-0.589L0.072,-0.589ZM0.072,-0L0.072,-0.519L0.209,-0.519L0.209,-0L0.072,-0Z" style="fill:rgb(195,230,159);fill-rule:nonzero;"/>
                                        </g>
                                        <g transform="matrix(20,0,0,20,134.502,0)">
                                            <path d="M0.372,-0.165L0.509,-0.142C0.491,-0.092 0.463,-0.054 0.426,-0.028C0.388,-0.001 0.34,0.012 0.283,0.012C0.193,0.012 0.126,-0.018 0.083,-0.077C0.049,-0.124 0.032,-0.183 0.032,-0.255C0.032,-0.341 0.054,-0.409 0.099,-0.457C0.144,-0.506 0.201,-0.53 0.27,-0.53C0.347,-0.53 0.408,-0.505 0.452,-0.454C0.497,-0.403 0.518,-0.325 0.516,-0.22L0.172,-0.22C0.173,-0.179 0.184,-0.147 0.206,-0.125C0.227,-0.102 0.253,-0.091 0.285,-0.091C0.306,-0.091 0.324,-0.097 0.339,-0.108C0.354,-0.12 0.365,-0.139 0.372,-0.165ZM0.38,-0.304C0.379,-0.343 0.369,-0.374 0.349,-0.394C0.33,-0.415 0.306,-0.425 0.278,-0.425C0.248,-0.425 0.223,-0.414 0.204,-0.393C0.184,-0.371 0.174,-0.341 0.175,-0.304L0.38,-0.304Z" style="fill:rgb(195,230,159);fill-rule:nonzero;"/>
                                        </g>
                                        <g transform="matrix(20,0,0,20,145.625,0)">
                                            <path d="M0.023,-0.148L0.161,-0.169C0.167,-0.142 0.179,-0.122 0.197,-0.108C0.215,-0.094 0.24,-0.087 0.272,-0.087C0.307,-0.087 0.334,-0.094 0.352,-0.107C0.364,-0.116 0.37,-0.128 0.37,-0.144C0.37,-0.154 0.367,-0.163 0.36,-0.169C0.354,-0.176 0.338,-0.182 0.314,-0.188C0.204,-0.212 0.134,-0.234 0.104,-0.254C0.063,-0.282 0.042,-0.321 0.042,-0.371C0.042,-0.416 0.06,-0.454 0.096,-0.484C0.131,-0.515 0.186,-0.53 0.261,-0.53C0.332,-0.53 0.384,-0.519 0.419,-0.496C0.453,-0.472 0.477,-0.438 0.49,-0.393L0.361,-0.369C0.355,-0.389 0.345,-0.405 0.329,-0.416C0.314,-0.426 0.292,-0.432 0.263,-0.432C0.227,-0.432 0.201,-0.427 0.186,-0.417C0.175,-0.409 0.17,-0.4 0.17,-0.389C0.17,-0.379 0.174,-0.371 0.184,-0.364C0.196,-0.355 0.239,-0.342 0.312,-0.325C0.385,-0.309 0.436,-0.288 0.465,-0.264C0.493,-0.24 0.508,-0.206 0.508,-0.162C0.508,-0.115 0.488,-0.074 0.448,-0.04C0.409,-0.005 0.35,0.012 0.272,0.012C0.201,0.012 0.145,-0.003 0.104,-0.031C0.063,-0.06 0.036,-0.099 0.023,-0.148Z" style="fill:rgb(195,230,159);fill-rule:nonzero;"/>
                                        </g>
                                    </g>
                                </g>
                            </g>
                        </g>
                    </g>
                    <g id="g-root-tx_involvem_1cuvjfd1t9jb4e-fill" transform="matrix(1,0,0,1,32,254)">
                        <g id="tx_involvem_1cuvjfd1t9jb4e-fill">
                            <g>
                                <g>
                                    <g transform="matrix(1,0,0,1,11.91,34)">
                                        <g transform="matrix(20,0,0,20,0,0)">
                                            <rect x="0.088" y="-0.708" width="0.084" height="0.708" style="fill:rgb(151,140,140);fill-rule:nonzero;"/>
                                        </g>
                                        <g transform="matrix(20,0,0,20,5.2,0)">
                                            <path d="M0.074,-0.357C0.074,-0.378 0.073,-0.398 0.072,-0.417C0.071,-0.436 0.07,-0.453 0.07,-0.468L0.144,-0.468C0.144,-0.455 0.144,-0.443 0.145,-0.43C0.146,-0.417 0.146,-0.404 0.146,-0.391L0.148,-0.391C0.153,-0.402 0.161,-0.413 0.171,-0.424C0.18,-0.435 0.192,-0.444 0.205,-0.453C0.218,-0.461 0.233,-0.468 0.25,-0.473C0.267,-0.478 0.285,-0.48 0.304,-0.48C0.335,-0.48 0.361,-0.475 0.384,-0.466C0.406,-0.457 0.424,-0.444 0.439,-0.427C0.454,-0.41 0.464,-0.39 0.472,-0.367C0.478,-0.343 0.482,-0.317 0.482,-0.289L0.482,-0L0.404,-0L0.404,-0.281C0.404,-0.32 0.395,-0.351 0.378,-0.374C0.361,-0.397 0.334,-0.408 0.297,-0.408C0.272,-0.408 0.25,-0.404 0.232,-0.395C0.213,-0.386 0.198,-0.374 0.187,-0.358C0.175,-0.342 0.166,-0.323 0.161,-0.301C0.155,-0.279 0.152,-0.255 0.152,-0.228L0.152,-0L0.074,-0L0.074,-0.357Z" style="fill:rgb(151,140,140);fill-rule:nonzero;"/>
                                        </g>
                                        <g transform="matrix(20,0,0,20,16.32,0)">
                                            <path d="M0.287,-0L0.201,-0L0.01,-0.468L0.101,-0.468L0.247,-0.101L0.249,-0.101L0.388,-0.468L0.472,-0.468L0.287,-0Z" style="fill:rgb(151,140,140);fill-rule:nonzero;"/>
                                        </g>
                                        <g transform="matrix(20,0,0,20,25.96,0)">
                                            <path d="M0.047,-0.234C0.047,-0.271 0.053,-0.304 0.066,-0.334C0.079,-0.364 0.096,-0.39 0.118,-0.412C0.14,-0.433 0.166,-0.45 0.197,-0.462C0.228,-0.474 0.261,-0.48 0.297,-0.48C0.333,-0.48 0.366,-0.474 0.397,-0.462C0.428,-0.45 0.454,-0.433 0.476,-0.412C0.498,-0.39 0.515,-0.364 0.528,-0.334C0.541,-0.304 0.547,-0.271 0.547,-0.234C0.547,-0.197 0.541,-0.164 0.528,-0.134C0.515,-0.104 0.498,-0.078 0.476,-0.057C0.454,-0.035 0.428,-0.018 0.397,-0.006C0.366,0.006 0.333,0.012 0.297,0.012C0.261,0.012 0.228,0.006 0.197,-0.006C0.166,-0.018 0.14,-0.035 0.118,-0.057C0.096,-0.078 0.079,-0.104 0.066,-0.134C0.053,-0.164 0.047,-0.197 0.047,-0.234ZM0.131,-0.234C0.131,-0.209 0.135,-0.187 0.143,-0.166C0.15,-0.145 0.161,-0.126 0.176,-0.111C0.191,-0.095 0.208,-0.083 0.229,-0.074C0.249,-0.065 0.272,-0.06 0.297,-0.06C0.322,-0.06 0.345,-0.065 0.366,-0.074C0.386,-0.083 0.403,-0.095 0.418,-0.111C0.433,-0.126 0.444,-0.145 0.452,-0.166C0.459,-0.187 0.463,-0.209 0.463,-0.234C0.463,-0.259 0.459,-0.282 0.452,-0.303C0.444,-0.324 0.433,-0.342 0.418,-0.358C0.403,-0.373 0.386,-0.386 0.366,-0.395C0.345,-0.404 0.322,-0.408 0.297,-0.408C0.272,-0.408 0.249,-0.404 0.229,-0.395C0.208,-0.386 0.191,-0.373 0.176,-0.358C0.161,-0.342 0.15,-0.324 0.143,-0.303C0.135,-0.282 0.131,-0.259 0.131,-0.234Z" style="fill:rgb(151,140,140);fill-rule:nonzero;"/>
                                        </g>
                                        <g transform="matrix(20,0,0,20,37.84,0)">
                                            <rect x="0.081" y="-0.756" width="0.078" height="0.756" style="fill:rgb(151,140,140);fill-rule:nonzero;"/>
                                        </g>
                                        <g transform="matrix(20,0,0,20,42.64,0)">
                                            <path d="M0.287,-0L0.201,-0L0.01,-0.468L0.101,-0.468L0.247,-0.101L0.249,-0.101L0.388,-0.468L0.472,-0.468L0.287,-0Z" style="fill:rgb(151,140,140);fill-rule:nonzero;"/>
                                        </g>
                                        <g transform="matrix(20,0,0,20,52.28,0)">
                                            <path d="M0.492,-0.085C0.464,-0.049 0.433,-0.024 0.4,-0.01C0.367,0.005 0.328,0.012 0.284,0.012C0.247,0.012 0.214,0.006 0.185,-0.008C0.156,-0.021 0.131,-0.038 0.111,-0.06C0.09,-0.082 0.075,-0.108 0.064,-0.138C0.053,-0.168 0.047,-0.2 0.047,-0.234C0.047,-0.27 0.053,-0.303 0.065,-0.334C0.077,-0.364 0.094,-0.39 0.115,-0.412C0.136,-0.433 0.162,-0.45 0.191,-0.462C0.22,-0.474 0.252,-0.48 0.287,-0.48C0.32,-0.48 0.35,-0.474 0.377,-0.464C0.404,-0.452 0.428,-0.437 0.448,-0.416C0.467,-0.395 0.482,-0.369 0.493,-0.339C0.504,-0.308 0.509,-0.274 0.509,-0.235L0.509,-0.21L0.131,-0.21C0.132,-0.19 0.137,-0.171 0.146,-0.153C0.154,-0.134 0.165,-0.118 0.178,-0.105C0.191,-0.091 0.207,-0.08 0.225,-0.072C0.243,-0.064 0.263,-0.06 0.284,-0.06C0.318,-0.06 0.347,-0.066 0.37,-0.078C0.393,-0.09 0.414,-0.108 0.433,-0.131L0.492,-0.085ZM0.425,-0.276C0.424,-0.316 0.411,-0.348 0.386,-0.372C0.361,-0.396 0.327,-0.408 0.284,-0.408C0.241,-0.408 0.206,-0.396 0.179,-0.372C0.152,-0.348 0.136,-0.316 0.131,-0.276L0.425,-0.276Z" style="fill:rgb(151,140,140);fill-rule:nonzero;"/>
                                        </g>
                                        <g transform="matrix(20,0,0,20,68.96,0)">
                                            <path d="M0.074,-0.357C0.074,-0.378 0.073,-0.398 0.072,-0.417C0.071,-0.436 0.07,-0.453 0.07,-0.468L0.144,-0.468C0.144,-0.455 0.144,-0.443 0.145,-0.43C0.146,-0.417 0.146,-0.404 0.146,-0.391L0.148,-0.391C0.153,-0.402 0.161,-0.413 0.171,-0.424C0.18,-0.435 0.192,-0.444 0.205,-0.453C0.218,-0.461 0.233,-0.468 0.25,-0.473C0.267,-0.478 0.285,-0.48 0.304,-0.48C0.329,-0.48 0.351,-0.477 0.368,-0.471C0.385,-0.464 0.399,-0.456 0.41,-0.448C0.421,-0.439 0.43,-0.429 0.437,-0.419C0.443,-0.408 0.448,-0.399 0.452,-0.391C0.469,-0.419 0.489,-0.441 0.512,-0.457C0.535,-0.472 0.564,-0.48 0.6,-0.48C0.633,-0.48 0.661,-0.475 0.684,-0.467C0.707,-0.458 0.725,-0.444 0.739,-0.428C0.753,-0.411 0.763,-0.39 0.769,-0.366C0.775,-0.341 0.778,-0.314 0.778,-0.284L0.778,-0L0.7,-0L0.7,-0.28C0.7,-0.296 0.698,-0.312 0.695,-0.327C0.692,-0.342 0.686,-0.356 0.677,-0.368C0.668,-0.38 0.657,-0.39 0.642,-0.397C0.627,-0.404 0.609,-0.408 0.586,-0.408C0.569,-0.408 0.554,-0.405 0.539,-0.398C0.524,-0.391 0.511,-0.382 0.501,-0.37C0.49,-0.358 0.481,-0.343 0.475,-0.327C0.468,-0.31 0.465,-0.291 0.465,-0.27L0.465,-0L0.387,-0L0.387,-0.265C0.387,-0.317 0.38,-0.354 0.366,-0.376C0.352,-0.397 0.329,-0.408 0.297,-0.408C0.272,-0.408 0.25,-0.404 0.232,-0.395C0.213,-0.386 0.198,-0.374 0.187,-0.358C0.175,-0.342 0.166,-0.323 0.161,-0.301C0.155,-0.279 0.152,-0.255 0.152,-0.228L0.152,-0L0.074,-0L0.074,-0.357Z" style="fill:rgb(151,140,140);fill-rule:nonzero;"/>
                                        </g>
                                        <g transform="matrix(20,0,0,20,86,0)">
                                            <path d="M0.482,-0.111C0.482,-0.09 0.483,-0.07 0.484,-0.051C0.485,-0.032 0.486,-0.015 0.486,-0L0.412,-0C0.412,-0.013 0.412,-0.025 0.411,-0.038C0.41,-0.051 0.41,-0.064 0.41,-0.077L0.408,-0.077C0.403,-0.066 0.395,-0.055 0.386,-0.044C0.376,-0.033 0.364,-0.024 0.351,-0.016C0.338,-0.007 0.323,-0 0.306,0.005C0.289,0.01 0.271,0.012 0.252,0.012C0.221,0.012 0.195,0.007 0.173,-0.002C0.15,-0.011 0.132,-0.024 0.117,-0.041C0.102,-0.058 0.092,-0.078 0.085,-0.102C0.078,-0.125 0.074,-0.151 0.074,-0.179L0.074,-0.468L0.152,-0.468L0.152,-0.187C0.152,-0.148 0.161,-0.117 0.178,-0.094C0.195,-0.071 0.222,-0.06 0.259,-0.06C0.284,-0.06 0.306,-0.064 0.325,-0.073C0.343,-0.082 0.358,-0.094 0.37,-0.11C0.381,-0.126 0.39,-0.145 0.396,-0.167C0.401,-0.189 0.404,-0.213 0.404,-0.24L0.404,-0.468L0.482,-0.468L0.482,-0.111Z" style="fill:rgb(151,140,140);fill-rule:nonzero;"/>
                                        </g>
                                        <g transform="matrix(20,0,0,20,97.12,0)">
                                            <rect x="0.081" y="-0.756" width="0.078" height="0.756" style="fill:rgb(151,140,140);fill-rule:nonzero;"/>
                                        </g>
                                        <g transform="matrix(20,0,0,20,101.94,0)">
                                            <path d="M0.33,-0.402L0.192,-0.402L0.192,-0.168C0.192,-0.153 0.192,-0.138 0.193,-0.126C0.194,-0.113 0.196,-0.101 0.201,-0.092C0.206,-0.082 0.213,-0.074 0.222,-0.069C0.231,-0.063 0.245,-0.06 0.262,-0.06C0.273,-0.06 0.285,-0.061 0.297,-0.064C0.309,-0.067 0.32,-0.071 0.331,-0.076L0.334,-0.005C0.321,0.001 0.306,0.005 0.29,0.008C0.273,0.011 0.258,0.012 0.243,0.012C0.215,0.012 0.193,0.008 0.176,0.001C0.159,-0.006 0.146,-0.017 0.137,-0.03C0.128,-0.043 0.122,-0.06 0.119,-0.08C0.116,-0.099 0.114,-0.121 0.114,-0.145L0.114,-0.402L0.012,-0.402L0.012,-0.468L0.114,-0.468L0.114,-0.601L0.192,-0.601L0.192,-0.468L0.33,-0.468L0.33,-0.402Z" style="fill:rgb(151,140,140);fill-rule:nonzero;"/>
                                        </g>
                                        <g transform="matrix(20,0,0,20,109,0)">
                                            <path d="M0.081,-0.468L0.159,-0.468L0.159,-0L0.081,-0L0.081,-0.468ZM0.063,-0.651C0.063,-0.666 0.069,-0.68 0.08,-0.691C0.091,-0.702 0.104,-0.708 0.12,-0.708C0.136,-0.708 0.15,-0.702 0.161,-0.691C0.171,-0.68 0.177,-0.666 0.177,-0.651C0.177,-0.634 0.172,-0.621 0.161,-0.61C0.15,-0.599 0.137,-0.594 0.12,-0.594C0.103,-0.594 0.09,-0.599 0.079,-0.61C0.068,-0.621 0.063,-0.634 0.063,-0.651Z" style="fill:rgb(151,140,140);fill-rule:nonzero;"/>
                                        </g>
                                        <g transform="matrix(20,0,0,20,113.8,0)">
                                            <path d="M0.07,-0.468L0.148,-0.468L0.148,-0.4L0.15,-0.4C0.171,-0.425 0.196,-0.445 0.225,-0.459C0.253,-0.473 0.284,-0.48 0.318,-0.48C0.355,-0.48 0.388,-0.474 0.419,-0.462C0.449,-0.449 0.475,-0.432 0.496,-0.41C0.517,-0.388 0.534,-0.362 0.546,-0.332C0.558,-0.302 0.564,-0.269 0.564,-0.234C0.564,-0.199 0.558,-0.166 0.546,-0.136C0.534,-0.106 0.518,-0.08 0.497,-0.058C0.476,-0.036 0.451,-0.019 0.422,-0.007C0.393,0.006 0.363,0.012 0.33,0.012C0.288,0.012 0.251,0.003 0.22,-0.016C0.188,-0.034 0.165,-0.056 0.15,-0.083L0.148,-0.083L0.148,0.228L0.07,0.228L0.07,-0.468ZM0.148,-0.234C0.148,-0.209 0.152,-0.187 0.16,-0.166C0.167,-0.145 0.178,-0.126 0.193,-0.111C0.208,-0.095 0.225,-0.083 0.246,-0.074C0.266,-0.065 0.289,-0.06 0.314,-0.06C0.339,-0.06 0.362,-0.065 0.383,-0.074C0.403,-0.083 0.42,-0.095 0.435,-0.111C0.45,-0.126 0.461,-0.145 0.469,-0.166C0.476,-0.187 0.48,-0.209 0.48,-0.234C0.48,-0.259 0.476,-0.282 0.469,-0.303C0.461,-0.324 0.45,-0.342 0.435,-0.358C0.42,-0.373 0.403,-0.386 0.383,-0.395C0.362,-0.404 0.339,-0.408 0.314,-0.408C0.289,-0.408 0.266,-0.404 0.246,-0.395C0.225,-0.386 0.208,-0.373 0.193,-0.358C0.178,-0.342 0.167,-0.324 0.16,-0.303C0.152,-0.282 0.148,-0.259 0.148,-0.234Z" style="fill:rgb(151,140,140);fill-rule:nonzero;"/>
                                        </g>
                                        <g transform="matrix(20,0,0,20,126.02,0)">
                                            <rect x="0.081" y="-0.756" width="0.078" height="0.756" style="fill:rgb(151,140,140);fill-rule:nonzero;"/>
                                        </g>
                                        <g transform="matrix(20,0,0,20,130.82,0)">
                                            <path d="M0.492,-0.085C0.464,-0.049 0.433,-0.024 0.4,-0.01C0.367,0.005 0.328,0.012 0.284,0.012C0.247,0.012 0.214,0.006 0.185,-0.008C0.156,-0.021 0.131,-0.038 0.111,-0.06C0.09,-0.082 0.075,-0.108 0.064,-0.138C0.053,-0.168 0.047,-0.2 0.047,-0.234C0.047,-0.27 0.053,-0.303 0.065,-0.334C0.077,-0.364 0.094,-0.39 0.115,-0.412C0.136,-0.433 0.162,-0.45 0.191,-0.462C0.22,-0.474 0.252,-0.48 0.287,-0.48C0.32,-0.48 0.35,-0.474 0.377,-0.464C0.404,-0.452 0.428,-0.437 0.448,-0.416C0.467,-0.395 0.482,-0.369 0.493,-0.339C0.504,-0.308 0.509,-0.274 0.509,-0.235L0.509,-0.21L0.131,-0.21C0.132,-0.19 0.137,-0.171 0.146,-0.153C0.154,-0.134 0.165,-0.118 0.178,-0.105C0.191,-0.091 0.207,-0.08 0.225,-0.072C0.243,-0.064 0.263,-0.06 0.284,-0.06C0.318,-0.06 0.347,-0.066 0.37,-0.078C0.393,-0.09 0.414,-0.108 0.433,-0.131L0.492,-0.085ZM0.425,-0.276C0.424,-0.316 0.411,-0.348 0.386,-0.372C0.361,-0.396 0.327,-0.408 0.284,-0.408C0.241,-0.408 0.206,-0.396 0.179,-0.372C0.152,-0.348 0.136,-0.316 0.131,-0.276L0.425,-0.276Z" style="fill:rgb(151,140,140);fill-rule:nonzero;"/>
                                        </g>
                                        <g transform="matrix(20,0,0,20,147.5,0)">
                                            <path d="M0.075,-0.708L0.347,-0.708C0.37,-0.708 0.395,-0.705 0.421,-0.7C0.447,-0.695 0.473,-0.686 0.499,-0.675C0.524,-0.663 0.549,-0.648 0.573,-0.629C0.596,-0.61 0.617,-0.588 0.635,-0.562C0.653,-0.535 0.667,-0.505 0.678,-0.471C0.689,-0.436 0.694,-0.397 0.694,-0.354C0.694,-0.311 0.689,-0.272 0.678,-0.238C0.667,-0.203 0.653,-0.173 0.635,-0.147C0.617,-0.12 0.596,-0.098 0.573,-0.079C0.549,-0.06 0.524,-0.045 0.499,-0.034C0.473,-0.022 0.447,-0.013 0.421,-0.008C0.395,-0.003 0.37,-0 0.347,-0L0.075,-0L0.075,-0.708ZM0.159,-0.078L0.319,-0.078C0.36,-0.078 0.397,-0.083 0.432,-0.094C0.467,-0.105 0.497,-0.121 0.522,-0.144C0.547,-0.166 0.567,-0.194 0.582,-0.229C0.597,-0.264 0.604,-0.305 0.604,-0.354C0.604,-0.403 0.597,-0.444 0.582,-0.479C0.567,-0.514 0.547,-0.542 0.522,-0.565C0.497,-0.587 0.467,-0.603 0.432,-0.614C0.397,-0.625 0.36,-0.63 0.319,-0.63L0.159,-0.63L0.159,-0.078Z" style="fill:rgb(151,140,140);fill-rule:nonzero;"/>
                                        </g>
                                        <g transform="matrix(20,0,0,20,162.32,0)">
                                            <path d="M0.088,-0.708L0.194,-0.708L0.604,-0.12L0.606,-0.12L0.606,-0.708L0.69,-0.708L0.69,-0L0.584,-0L0.174,-0.588L0.172,-0.588L0.172,-0L0.088,-0L0.088,-0.708Z" style="fill:rgb(151,140,140);fill-rule:nonzero;"/>
                                        </g>
                                        <g transform="matrix(20,0,0,20,177.88,0)">
                                            <path d="M0.424,-0.583C0.41,-0.606 0.391,-0.622 0.368,-0.633C0.345,-0.643 0.32,-0.648 0.295,-0.648C0.276,-0.648 0.258,-0.646 0.24,-0.641C0.222,-0.636 0.206,-0.629 0.192,-0.62C0.177,-0.611 0.166,-0.598 0.157,-0.583C0.148,-0.568 0.144,-0.55 0.144,-0.529C0.144,-0.513 0.147,-0.499 0.152,-0.487C0.157,-0.474 0.165,-0.463 0.176,-0.453C0.187,-0.443 0.203,-0.434 0.222,-0.425C0.241,-0.416 0.265,-0.408 0.293,-0.399C0.32,-0.39 0.347,-0.381 0.373,-0.371C0.398,-0.361 0.421,-0.348 0.441,-0.333C0.46,-0.318 0.476,-0.299 0.488,-0.276C0.499,-0.253 0.505,-0.224 0.505,-0.189C0.505,-0.154 0.498,-0.123 0.484,-0.097C0.47,-0.071 0.452,-0.05 0.429,-0.033C0.405,-0.016 0.379,-0.003 0.349,0.006C0.319,0.014 0.288,0.018 0.256,0.018C0.235,0.018 0.215,0.016 0.194,0.013C0.173,0.009 0.154,0.003 0.135,-0.005C0.116,-0.012 0.098,-0.022 0.081,-0.035C0.064,-0.047 0.05,-0.062 0.038,-0.08L0.11,-0.139C0.125,-0.113 0.147,-0.093 0.174,-0.08C0.201,-0.067 0.23,-0.06 0.261,-0.06C0.279,-0.06 0.297,-0.063 0.316,-0.068C0.334,-0.073 0.35,-0.081 0.365,-0.092C0.38,-0.102 0.392,-0.115 0.401,-0.13C0.41,-0.145 0.415,-0.163 0.415,-0.183C0.415,-0.205 0.411,-0.223 0.404,-0.237C0.397,-0.25 0.385,-0.262 0.37,-0.272C0.355,-0.282 0.335,-0.291 0.312,-0.299C0.289,-0.307 0.261,-0.316 0.23,-0.327C0.205,-0.335 0.181,-0.344 0.16,-0.355C0.139,-0.365 0.12,-0.378 0.105,-0.393C0.089,-0.408 0.077,-0.426 0.068,-0.447C0.058,-0.468 0.054,-0.493 0.054,-0.522C0.054,-0.556 0.061,-0.586 0.074,-0.611C0.087,-0.636 0.105,-0.658 0.128,-0.675C0.151,-0.692 0.176,-0.704 0.205,-0.713C0.234,-0.722 0.264,-0.726 0.295,-0.726C0.335,-0.726 0.372,-0.72 0.405,-0.708C0.438,-0.695 0.467,-0.674 0.493,-0.643L0.424,-0.583Z" style="fill:rgb(151,140,140);fill-rule:nonzero;"/>
                                        </g>
                                    </g>
                                    <g transform="matrix(1,0,0,1,70.96,58)">
                                        <g transform="matrix(20,0,0,20,0,0)">
                                            <path d="M0.084,-0.123C0.099,-0.104 0.116,-0.088 0.135,-0.077C0.153,-0.066 0.176,-0.06 0.204,-0.06C0.216,-0.06 0.228,-0.061 0.241,-0.064C0.253,-0.067 0.264,-0.071 0.274,-0.077C0.284,-0.083 0.292,-0.091 0.298,-0.1C0.304,-0.109 0.307,-0.119 0.307,-0.132C0.307,-0.145 0.304,-0.155 0.299,-0.163C0.293,-0.171 0.285,-0.178 0.276,-0.184C0.267,-0.189 0.256,-0.194 0.244,-0.197C0.232,-0.2 0.22,-0.203 0.207,-0.206C0.185,-0.211 0.164,-0.216 0.144,-0.222C0.124,-0.228 0.107,-0.236 0.092,-0.246C0.077,-0.255 0.065,-0.268 0.056,-0.283C0.047,-0.298 0.042,-0.318 0.042,-0.342C0.042,-0.365 0.047,-0.385 0.057,-0.402C0.067,-0.419 0.08,-0.434 0.097,-0.445C0.114,-0.456 0.132,-0.465 0.153,-0.471C0.174,-0.477 0.195,-0.48 0.217,-0.48C0.25,-0.48 0.281,-0.473 0.31,-0.46C0.338,-0.447 0.36,-0.425 0.376,-0.395L0.311,-0.352C0.301,-0.369 0.288,-0.382 0.272,-0.393C0.255,-0.403 0.235,-0.408 0.212,-0.408C0.201,-0.408 0.191,-0.407 0.18,-0.404C0.169,-0.401 0.159,-0.397 0.15,-0.392C0.141,-0.387 0.134,-0.38 0.129,-0.372C0.123,-0.363 0.12,-0.354 0.12,-0.343C0.12,-0.333 0.123,-0.325 0.13,-0.318C0.136,-0.311 0.145,-0.304 0.156,-0.299C0.167,-0.294 0.179,-0.289 0.194,-0.285C0.208,-0.281 0.223,-0.278 0.238,-0.275C0.259,-0.271 0.278,-0.266 0.297,-0.26C0.316,-0.253 0.332,-0.245 0.346,-0.234C0.36,-0.223 0.371,-0.21 0.379,-0.194C0.387,-0.178 0.391,-0.158 0.391,-0.135C0.391,-0.108 0.386,-0.086 0.375,-0.067C0.364,-0.048 0.35,-0.033 0.333,-0.022C0.315,-0.01 0.295,-0.001 0.273,0.004C0.25,0.009 0.227,0.012 0.204,0.012C0.164,0.012 0.13,0.006 0.101,-0.007C0.072,-0.019 0.045,-0.042 0.022,-0.075L0.084,-0.123Z" style="fill:rgb(151,140,140);fill-rule:nonzero;"/>
                                        </g>
                                        <g transform="matrix(20,0,0,20,8.52,0)">
                                            <path d="M0.492,-0.085C0.464,-0.049 0.433,-0.024 0.4,-0.01C0.367,0.005 0.328,0.012 0.284,0.012C0.247,0.012 0.214,0.006 0.185,-0.008C0.156,-0.021 0.131,-0.038 0.111,-0.06C0.09,-0.082 0.075,-0.108 0.064,-0.138C0.053,-0.168 0.047,-0.2 0.047,-0.234C0.047,-0.27 0.053,-0.303 0.065,-0.334C0.077,-0.364 0.094,-0.39 0.115,-0.412C0.136,-0.433 0.162,-0.45 0.191,-0.462C0.22,-0.474 0.252,-0.48 0.287,-0.48C0.32,-0.48 0.35,-0.474 0.377,-0.464C0.404,-0.452 0.428,-0.437 0.448,-0.416C0.467,-0.395 0.482,-0.369 0.493,-0.339C0.504,-0.308 0.509,-0.274 0.509,-0.235L0.509,-0.21L0.131,-0.21C0.132,-0.19 0.137,-0.171 0.146,-0.153C0.154,-0.134 0.165,-0.118 0.178,-0.105C0.191,-0.091 0.207,-0.08 0.225,-0.072C0.243,-0.064 0.263,-0.06 0.284,-0.06C0.318,-0.06 0.347,-0.066 0.37,-0.078C0.393,-0.09 0.414,-0.108 0.433,-0.131L0.492,-0.085ZM0.425,-0.276C0.424,-0.316 0.411,-0.348 0.386,-0.372C0.361,-0.396 0.327,-0.408 0.284,-0.408C0.241,-0.408 0.206,-0.396 0.179,-0.372C0.152,-0.348 0.136,-0.316 0.131,-0.276L0.425,-0.276Z" style="fill:rgb(151,140,140);fill-rule:nonzero;"/>
                                        </g>
                                        <g transform="matrix(20,0,0,20,19.64,0)">
                                            <path d="M0.074,-0.357C0.074,-0.378 0.073,-0.398 0.072,-0.417C0.071,-0.436 0.07,-0.453 0.07,-0.468L0.144,-0.468C0.144,-0.455 0.144,-0.443 0.145,-0.43C0.146,-0.417 0.146,-0.404 0.146,-0.391L0.148,-0.391C0.153,-0.402 0.161,-0.413 0.171,-0.424C0.18,-0.435 0.192,-0.444 0.205,-0.453C0.218,-0.461 0.233,-0.468 0.25,-0.473C0.267,-0.478 0.285,-0.48 0.304,-0.48C0.309,-0.48 0.315,-0.48 0.32,-0.479C0.325,-0.478 0.331,-0.477 0.336,-0.475L0.331,-0.396C0.318,-0.4 0.304,-0.402 0.289,-0.402C0.241,-0.402 0.206,-0.387 0.185,-0.356C0.163,-0.325 0.152,-0.282 0.152,-0.228L0.152,-0L0.074,-0L0.074,-0.357Z" style="fill:rgb(151,140,140);fill-rule:nonzero;"/>
                                        </g>
                                        <g transform="matrix(20,0,0,20,26.68,0)">
                                            <path d="M0.287,-0L0.201,-0L0.01,-0.468L0.101,-0.468L0.247,-0.101L0.249,-0.101L0.388,-0.468L0.472,-0.468L0.287,-0Z" style="fill:rgb(151,140,140);fill-rule:nonzero;"/>
                                        </g>
                                        <g transform="matrix(20,0,0,20,36.32,0)">
                                            <path d="M0.492,-0.085C0.464,-0.049 0.433,-0.024 0.4,-0.01C0.367,0.005 0.328,0.012 0.284,0.012C0.247,0.012 0.214,0.006 0.185,-0.008C0.156,-0.021 0.131,-0.038 0.111,-0.06C0.09,-0.082 0.075,-0.108 0.064,-0.138C0.053,-0.168 0.047,-0.2 0.047,-0.234C0.047,-0.27 0.053,-0.303 0.065,-0.334C0.077,-0.364 0.094,-0.39 0.115,-0.412C0.136,-0.433 0.162,-0.45 0.191,-0.462C0.22,-0.474 0.252,-0.48 0.287,-0.48C0.32,-0.48 0.35,-0.474 0.377,-0.464C0.404,-0.452 0.428,-0.437 0.448,-0.416C0.467,-0.395 0.482,-0.369 0.493,-0.339C0.504,-0.308 0.509,-0.274 0.509,-0.235L0.509,-0.21L0.131,-0.21C0.132,-0.19 0.137,-0.171 0.146,-0.153C0.154,-0.134 0.165,-0.118 0.178,-0.105C0.191,-0.091 0.207,-0.08 0.225,-0.072C0.243,-0.064 0.263,-0.06 0.284,-0.06C0.318,-0.06 0.347,-0.066 0.37,-0.078C0.393,-0.09 0.414,-0.108 0.433,-0.131L0.492,-0.085ZM0.425,-0.276C0.424,-0.316 0.411,-0.348 0.386,-0.372C0.361,-0.396 0.327,-0.408 0.284,-0.408C0.241,-0.408 0.206,-0.396 0.179,-0.372C0.152,-0.348 0.136,-0.316 0.131,-0.276L0.425,-0.276Z" style="fill:rgb(151,140,140);fill-rule:nonzero;"/>
                                        </g>
                                        <g transform="matrix(20,0,0,20,47.44,0)">
                                            <path d="M0.074,-0.357C0.074,-0.378 0.073,-0.398 0.072,-0.417C0.071,-0.436 0.07,-0.453 0.07,-0.468L0.144,-0.468C0.144,-0.455 0.144,-0.443 0.145,-0.43C0.146,-0.417 0.146,-0.404 0.146,-0.391L0.148,-0.391C0.153,-0.402 0.161,-0.413 0.171,-0.424C0.18,-0.435 0.192,-0.444 0.205,-0.453C0.218,-0.461 0.233,-0.468 0.25,-0.473C0.267,-0.478 0.285,-0.48 0.304,-0.48C0.309,-0.48 0.315,-0.48 0.32,-0.479C0.325,-0.478 0.331,-0.477 0.336,-0.475L0.331,-0.396C0.318,-0.4 0.304,-0.402 0.289,-0.402C0.241,-0.402 0.206,-0.387 0.185,-0.356C0.163,-0.325 0.152,-0.282 0.152,-0.228L0.152,-0L0.074,-0L0.074,-0.357Z" style="fill:rgb(151,140,140);fill-rule:nonzero;"/>
                                        </g>
                                        <g transform="matrix(20,0,0,20,54.48,0)">
                                            <path d="M0.084,-0.123C0.099,-0.104 0.116,-0.088 0.135,-0.077C0.153,-0.066 0.176,-0.06 0.204,-0.06C0.216,-0.06 0.228,-0.061 0.241,-0.064C0.253,-0.067 0.264,-0.071 0.274,-0.077C0.284,-0.083 0.292,-0.091 0.298,-0.1C0.304,-0.109 0.307,-0.119 0.307,-0.132C0.307,-0.145 0.304,-0.155 0.299,-0.163C0.293,-0.171 0.285,-0.178 0.276,-0.184C0.267,-0.189 0.256,-0.194 0.244,-0.197C0.232,-0.2 0.22,-0.203 0.207,-0.206C0.185,-0.211 0.164,-0.216 0.144,-0.222C0.124,-0.228 0.107,-0.236 0.092,-0.246C0.077,-0.255 0.065,-0.268 0.056,-0.283C0.047,-0.298 0.042,-0.318 0.042,-0.342C0.042,-0.365 0.047,-0.385 0.057,-0.402C0.067,-0.419 0.08,-0.434 0.097,-0.445C0.114,-0.456 0.132,-0.465 0.153,-0.471C0.174,-0.477 0.195,-0.48 0.217,-0.48C0.25,-0.48 0.281,-0.473 0.31,-0.46C0.338,-0.447 0.36,-0.425 0.376,-0.395L0.311,-0.352C0.301,-0.369 0.288,-0.382 0.272,-0.393C0.255,-0.403 0.235,-0.408 0.212,-0.408C0.201,-0.408 0.191,-0.407 0.18,-0.404C0.169,-0.401 0.159,-0.397 0.15,-0.392C0.141,-0.387 0.134,-0.38 0.129,-0.372C0.123,-0.363 0.12,-0.354 0.12,-0.343C0.12,-0.333 0.123,-0.325 0.13,-0.318C0.136,-0.311 0.145,-0.304 0.156,-0.299C0.167,-0.294 0.179,-0.289 0.194,-0.285C0.208,-0.281 0.223,-0.278 0.238,-0.275C0.259,-0.271 0.278,-0.266 0.297,-0.26C0.316,-0.253 0.332,-0.245 0.346,-0.234C0.36,-0.223 0.371,-0.21 0.379,-0.194C0.387,-0.178 0.391,-0.158 0.391,-0.135C0.391,-0.108 0.386,-0.086 0.375,-0.067C0.364,-0.048 0.35,-0.033 0.333,-0.022C0.315,-0.01 0.295,-0.001 0.273,0.004C0.25,0.009 0.227,0.012 0.204,0.012C0.164,0.012 0.13,0.006 0.101,-0.007C0.072,-0.019 0.045,-0.042 0.022,-0.075L0.084,-0.123Z" style="fill:rgb(151,140,140);fill-rule:nonzero;"/>
                                        </g>
                                    </g>
                                </g>
                            </g>
                        </g>
                    </g>
                    <g transform="matrix(1,0,0,1,347.2,288)">
                        <g id="g-root-tx_queryasi_147z6e11t9hvyc-fill">
                            <g id="tx_queryasi_147z6e11t9hvyc-fill">
                                <g>
                                    <g>
                                        <g transform="matrix(20,0,0,20,0,0)">
                                            <path d="M0.822,-0L0.411,-0C0.359,-0 0.311,-0.009 0.267,-0.028C0.222,-0.047 0.184,-0.072 0.152,-0.105C0.119,-0.137 0.094,-0.175 0.075,-0.22C0.056,-0.264 0.047,-0.312 0.047,-0.363C0.047,-0.414 0.056,-0.462 0.075,-0.507C0.094,-0.551 0.119,-0.589 0.152,-0.622C0.184,-0.654 0.222,-0.679 0.267,-0.698C0.311,-0.717 0.359,-0.726 0.411,-0.726C0.463,-0.726 0.511,-0.717 0.556,-0.698C0.6,-0.679 0.638,-0.654 0.671,-0.622C0.703,-0.589 0.728,-0.551 0.747,-0.507C0.766,-0.462 0.775,-0.414 0.775,-0.363C0.775,-0.333 0.771,-0.303 0.763,-0.274C0.755,-0.244 0.744,-0.216 0.729,-0.191C0.713,-0.165 0.696,-0.142 0.675,-0.122C0.654,-0.101 0.63,-0.085 0.603,-0.074L0.603,-0.072L0.822,-0.072L0.822,-0ZM0.137,-0.363C0.137,-0.323 0.144,-0.286 0.158,-0.251C0.172,-0.216 0.191,-0.186 0.216,-0.161C0.24,-0.135 0.269,-0.115 0.302,-0.1C0.335,-0.085 0.372,-0.078 0.411,-0.078C0.45,-0.078 0.486,-0.085 0.52,-0.1C0.553,-0.115 0.582,-0.135 0.607,-0.161C0.631,-0.186 0.65,-0.216 0.664,-0.251C0.678,-0.286 0.685,-0.323 0.685,-0.363C0.685,-0.402 0.678,-0.439 0.665,-0.474C0.651,-0.509 0.632,-0.539 0.608,-0.565C0.583,-0.59 0.554,-0.611 0.521,-0.626C0.488,-0.641 0.451,-0.648 0.411,-0.648C0.371,-0.648 0.334,-0.641 0.301,-0.626C0.268,-0.611 0.239,-0.59 0.215,-0.565C0.19,-0.539 0.171,-0.509 0.158,-0.474C0.144,-0.439 0.137,-0.402 0.137,-0.363Z" style="fill:rgb(151,140,140);fill-rule:nonzero;"/>
                                        </g>
                                        <g transform="matrix(20,0,0,20,16.68,0)">
                                            <path d="M0.482,-0.111C0.482,-0.09 0.483,-0.07 0.484,-0.051C0.485,-0.032 0.486,-0.015 0.486,-0L0.412,-0C0.412,-0.013 0.412,-0.025 0.411,-0.038C0.41,-0.051 0.41,-0.064 0.41,-0.077L0.408,-0.077C0.403,-0.066 0.395,-0.055 0.386,-0.044C0.376,-0.033 0.364,-0.024 0.351,-0.016C0.338,-0.007 0.323,-0 0.306,0.005C0.289,0.01 0.271,0.012 0.252,0.012C0.221,0.012 0.195,0.007 0.173,-0.002C0.15,-0.011 0.132,-0.024 0.117,-0.041C0.102,-0.058 0.092,-0.078 0.085,-0.102C0.078,-0.125 0.074,-0.151 0.074,-0.179L0.074,-0.468L0.152,-0.468L0.152,-0.187C0.152,-0.148 0.161,-0.117 0.178,-0.094C0.195,-0.071 0.222,-0.06 0.259,-0.06C0.284,-0.06 0.306,-0.064 0.325,-0.073C0.343,-0.082 0.358,-0.094 0.37,-0.11C0.381,-0.126 0.39,-0.145 0.396,-0.167C0.401,-0.189 0.404,-0.213 0.404,-0.24L0.404,-0.468L0.482,-0.468L0.482,-0.111Z" style="fill:rgb(151,140,140);fill-rule:nonzero;"/>
                                        </g>
                                        <g transform="matrix(20,0,0,20,27.8,0)">
                                            <path d="M0.492,-0.085C0.464,-0.049 0.433,-0.024 0.4,-0.01C0.367,0.005 0.328,0.012 0.284,0.012C0.247,0.012 0.214,0.006 0.185,-0.008C0.156,-0.021 0.131,-0.038 0.111,-0.06C0.09,-0.082 0.075,-0.108 0.064,-0.138C0.053,-0.168 0.047,-0.2 0.047,-0.234C0.047,-0.27 0.053,-0.303 0.065,-0.334C0.077,-0.364 0.094,-0.39 0.115,-0.412C0.136,-0.433 0.162,-0.45 0.191,-0.462C0.22,-0.474 0.252,-0.48 0.287,-0.48C0.32,-0.48 0.35,-0.474 0.377,-0.464C0.404,-0.452 0.428,-0.437 0.448,-0.416C0.467,-0.395 0.482,-0.369 0.493,-0.339C0.504,-0.308 0.509,-0.274 0.509,-0.235L0.509,-0.21L0.131,-0.21C0.132,-0.19 0.137,-0.171 0.146,-0.153C0.154,-0.134 0.165,-0.118 0.178,-0.105C0.191,-0.091 0.207,-0.08 0.225,-0.072C0.243,-0.064 0.263,-0.06 0.284,-0.06C0.318,-0.06 0.347,-0.066 0.37,-0.078C0.393,-0.09 0.414,-0.108 0.433,-0.131L0.492,-0.085ZM0.425,-0.276C0.424,-0.316 0.411,-0.348 0.386,-0.372C0.361,-0.396 0.327,-0.408 0.284,-0.408C0.241,-0.408 0.206,-0.396 0.179,-0.372C0.152,-0.348 0.136,-0.316 0.131,-0.276L0.425,-0.276Z" style="fill:rgb(151,140,140);fill-rule:nonzero;"/>
                                        </g>
                                        <g transform="matrix(20,0,0,20,38.92,0)">
                                            <path d="M0.074,-0.357C0.074,-0.378 0.073,-0.398 0.072,-0.417C0.071,-0.436 0.07,-0.453 0.07,-0.468L0.144,-0.468C0.144,-0.455 0.144,-0.443 0.145,-0.43C0.146,-0.417 0.146,-0.404 0.146,-0.391L0.148,-0.391C0.153,-0.402 0.161,-0.413 0.171,-0.424C0.18,-0.435 0.192,-0.444 0.205,-0.453C0.218,-0.461 0.233,-0.468 0.25,-0.473C0.267,-0.478 0.285,-0.48 0.304,-0.48C0.309,-0.48 0.315,-0.48 0.32,-0.479C0.325,-0.478 0.331,-0.477 0.336,-0.475L0.331,-0.396C0.318,-0.4 0.304,-0.402 0.289,-0.402C0.241,-0.402 0.206,-0.387 0.185,-0.356C0.163,-0.325 0.152,-0.282 0.152,-0.228L0.152,-0L0.074,-0L0.074,-0.357Z" style="fill:rgb(151,140,140);fill-rule:nonzero;"/>
                                        </g>
                                        <g transform="matrix(20,0,0,20,45.96,0)">
                                            <path d="M0.246,0.107C0.238,0.127 0.23,0.145 0.222,0.162C0.213,0.178 0.203,0.192 0.192,0.204C0.18,0.215 0.166,0.224 0.15,0.231C0.133,0.237 0.113,0.24 0.09,0.24C0.079,0.24 0.067,0.239 0.055,0.238C0.042,0.237 0.031,0.233 0.02,0.228L0.03,0.16C0.038,0.163 0.046,0.166 0.055,0.167C0.064,0.168 0.074,0.168 0.085,0.168C0.11,0.168 0.129,0.161 0.141,0.147C0.153,0.133 0.163,0.114 0.172,0.091L0.204,0.003L0.01,-0.468L0.101,-0.468L0.246,-0.101L0.248,-0.101L0.387,-0.468L0.472,-0.468L0.246,0.107Z" style="fill:rgb(151,140,140);fill-rule:nonzero;"/>
                                        </g>
                                        <g transform="matrix(20,0,0,20,61.16,0)">
                                            <path d="M0.068,-0.408C0.092,-0.433 0.121,-0.451 0.154,-0.463C0.187,-0.474 0.22,-0.48 0.254,-0.48C0.323,-0.48 0.373,-0.464 0.404,-0.431C0.435,-0.398 0.45,-0.349 0.45,-0.282L0.45,-0.081C0.45,-0.068 0.451,-0.054 0.452,-0.04C0.453,-0.025 0.455,-0.012 0.457,-0L0.382,-0C0.379,-0.011 0.378,-0.023 0.378,-0.036C0.377,-0.049 0.377,-0.06 0.377,-0.07L0.375,-0.07C0.36,-0.046 0.339,-0.026 0.314,-0.011C0.288,0.004 0.257,0.012 0.221,0.012C0.197,0.012 0.174,0.009 0.154,0.003C0.132,-0.003 0.114,-0.012 0.099,-0.024C0.083,-0.035 0.07,-0.05 0.061,-0.067C0.052,-0.084 0.047,-0.104 0.047,-0.127C0.047,-0.166 0.057,-0.196 0.077,-0.218C0.097,-0.24 0.122,-0.256 0.152,-0.267C0.181,-0.278 0.213,-0.284 0.248,-0.287C0.282,-0.29 0.313,-0.291 0.342,-0.291L0.372,-0.291L0.372,-0.305C0.372,-0.339 0.362,-0.365 0.342,-0.382C0.321,-0.399 0.293,-0.408 0.256,-0.408C0.231,-0.408 0.206,-0.404 0.182,-0.396C0.157,-0.387 0.136,-0.374 0.117,-0.357L0.068,-0.408ZM0.294,-0.225C0.244,-0.225 0.204,-0.218 0.175,-0.204C0.146,-0.19 0.131,-0.167 0.131,-0.135C0.131,-0.106 0.141,-0.085 0.161,-0.073C0.18,-0.06 0.205,-0.054 0.234,-0.054C0.257,-0.054 0.277,-0.058 0.294,-0.066C0.311,-0.073 0.325,-0.083 0.336,-0.096C0.347,-0.109 0.356,-0.124 0.362,-0.141C0.368,-0.158 0.371,-0.176 0.372,-0.195L0.372,-0.225L0.294,-0.225Z" style="fill:rgb(151,140,140);fill-rule:nonzero;"/>
                                        </g>
                                        <g transform="matrix(20,0,0,20,77.1,0)">
                                            <path d="M0.084,-0.123C0.099,-0.104 0.116,-0.088 0.135,-0.077C0.153,-0.066 0.176,-0.06 0.204,-0.06C0.216,-0.06 0.228,-0.061 0.241,-0.064C0.253,-0.067 0.264,-0.071 0.274,-0.077C0.284,-0.083 0.292,-0.091 0.298,-0.1C0.304,-0.109 0.307,-0.119 0.307,-0.132C0.307,-0.145 0.304,-0.155 0.299,-0.163C0.293,-0.171 0.285,-0.178 0.276,-0.184C0.267,-0.189 0.256,-0.194 0.244,-0.197C0.232,-0.2 0.22,-0.203 0.207,-0.206C0.185,-0.211 0.164,-0.216 0.144,-0.222C0.124,-0.228 0.107,-0.236 0.092,-0.246C0.077,-0.255 0.065,-0.268 0.056,-0.283C0.047,-0.298 0.042,-0.318 0.042,-0.342C0.042,-0.365 0.047,-0.385 0.057,-0.402C0.067,-0.419 0.08,-0.434 0.097,-0.445C0.114,-0.456 0.132,-0.465 0.153,-0.471C0.174,-0.477 0.195,-0.48 0.217,-0.48C0.25,-0.48 0.281,-0.473 0.31,-0.46C0.338,-0.447 0.36,-0.425 0.376,-0.395L0.311,-0.352C0.301,-0.369 0.288,-0.382 0.272,-0.393C0.255,-0.403 0.235,-0.408 0.212,-0.408C0.201,-0.408 0.191,-0.407 0.18,-0.404C0.169,-0.401 0.159,-0.397 0.15,-0.392C0.141,-0.387 0.134,-0.38 0.129,-0.372C0.123,-0.363 0.12,-0.354 0.12,-0.343C0.12,-0.333 0.123,-0.325 0.13,-0.318C0.136,-0.311 0.145,-0.304 0.156,-0.299C0.167,-0.294 0.179,-0.289 0.194,-0.285C0.208,-0.281 0.223,-0.278 0.238,-0.275C0.259,-0.271 0.278,-0.266 0.297,-0.26C0.316,-0.253 0.332,-0.245 0.346,-0.234C0.36,-0.223 0.371,-0.21 0.379,-0.194C0.387,-0.178 0.391,-0.158 0.391,-0.135C0.391,-0.108 0.386,-0.086 0.375,-0.067C0.364,-0.048 0.35,-0.033 0.333,-0.022C0.315,-0.01 0.295,-0.001 0.273,0.004C0.25,0.009 0.227,0.012 0.204,0.012C0.164,0.012 0.13,0.006 0.101,-0.007C0.072,-0.019 0.045,-0.042 0.022,-0.075L0.084,-0.123Z" style="fill:rgb(151,140,140);fill-rule:nonzero;"/>
                                        </g>
                                        <g transform="matrix(20,0,0,20,85.62,0)">
                                            <path d="M0.081,-0.468L0.159,-0.468L0.159,-0L0.081,-0L0.081,-0.468ZM0.063,-0.651C0.063,-0.666 0.069,-0.68 0.08,-0.691C0.091,-0.702 0.104,-0.708 0.12,-0.708C0.136,-0.708 0.15,-0.702 0.161,-0.691C0.171,-0.68 0.177,-0.666 0.177,-0.651C0.177,-0.634 0.172,-0.621 0.161,-0.61C0.15,-0.599 0.137,-0.594 0.12,-0.594C0.103,-0.594 0.09,-0.599 0.079,-0.61C0.068,-0.621 0.063,-0.634 0.063,-0.651Z" style="fill:rgb(151,140,140);fill-rule:nonzero;"/>
                                        </g>
                                        <g transform="matrix(20,0,0,20,90.42,0)">
                                            <path d="M0.074,-0.357C0.074,-0.378 0.073,-0.398 0.072,-0.417C0.071,-0.436 0.07,-0.453 0.07,-0.468L0.144,-0.468C0.144,-0.455 0.144,-0.443 0.145,-0.43C0.146,-0.417 0.146,-0.404 0.146,-0.391L0.148,-0.391C0.153,-0.402 0.161,-0.413 0.171,-0.424C0.18,-0.435 0.192,-0.444 0.205,-0.453C0.218,-0.461 0.233,-0.468 0.25,-0.473C0.267,-0.478 0.285,-0.48 0.304,-0.48C0.335,-0.48 0.361,-0.475 0.384,-0.466C0.406,-0.457 0.424,-0.444 0.439,-0.427C0.454,-0.41 0.464,-0.39 0.472,-0.367C0.478,-0.343 0.482,-0.317 0.482,-0.289L0.482,-0L0.404,-0L0.404,-0.281C0.404,-0.32 0.395,-0.351 0.378,-0.374C0.361,-0.397 0.334,-0.408 0.297,-0.408C0.272,-0.408 0.25,-0.404 0.232,-0.395C0.213,-0.386 0.198,-0.374 0.187,-0.358C0.175,-0.342 0.166,-0.323 0.161,-0.301C0.155,-0.279 0.152,-0.255 0.152,-0.228L0.152,-0L0.074,-0L0.074,-0.357Z" style="fill:rgb(151,140,140);fill-rule:nonzero;"/>
                                        </g>
                                        <g transform="matrix(20,0,0,20,101.54,0)">
                                            <path d="M0.541,-0.021C0.541,0.064 0.519,0.129 0.476,0.174C0.432,0.218 0.369,0.24 0.286,0.24C0.24,0.24 0.199,0.233 0.162,0.22C0.125,0.207 0.089,0.184 0.056,0.151L0.112,0.087C0.137,0.114 0.163,0.134 0.191,0.148C0.218,0.161 0.25,0.168 0.286,0.168C0.321,0.168 0.349,0.163 0.373,0.153C0.396,0.142 0.414,0.128 0.427,0.111C0.44,0.093 0.45,0.073 0.455,0.05C0.46,0.027 0.463,0.004 0.463,-0.021L0.463,-0.081L0.461,-0.081C0.442,-0.051 0.418,-0.029 0.388,-0.015C0.358,-0.001 0.327,0.006 0.296,0.006C0.259,0.006 0.226,0 0.195,-0.012C0.164,-0.024 0.138,-0.041 0.116,-0.062C0.094,-0.083 0.077,-0.109 0.065,-0.138C0.053,-0.167 0.047,-0.199 0.047,-0.234C0.047,-0.272 0.053,-0.306 0.065,-0.337C0.077,-0.368 0.094,-0.394 0.116,-0.415C0.137,-0.436 0.163,-0.452 0.194,-0.463C0.225,-0.474 0.259,-0.48 0.296,-0.48C0.312,-0.48 0.328,-0.478 0.344,-0.475C0.36,-0.471 0.376,-0.465 0.391,-0.458C0.406,-0.45 0.419,-0.44 0.431,-0.429C0.443,-0.417 0.453,-0.403 0.461,-0.388L0.463,-0.388L0.463,-0.468L0.541,-0.468L0.541,-0.021ZM0.131,-0.234C0.131,-0.21 0.135,-0.188 0.144,-0.168C0.153,-0.147 0.165,-0.13 0.18,-0.115C0.195,-0.099 0.212,-0.088 0.232,-0.079C0.252,-0.07 0.273,-0.066 0.296,-0.066C0.323,-0.066 0.346,-0.071 0.367,-0.08C0.388,-0.089 0.405,-0.102 0.42,-0.118C0.434,-0.133 0.445,-0.151 0.452,-0.172C0.459,-0.192 0.463,-0.213 0.463,-0.236C0.463,-0.261 0.459,-0.285 0.451,-0.306C0.443,-0.327 0.432,-0.345 0.417,-0.36C0.402,-0.375 0.385,-0.387 0.364,-0.396C0.343,-0.404 0.321,-0.408 0.296,-0.408C0.271,-0.408 0.249,-0.404 0.229,-0.395C0.208,-0.386 0.191,-0.373 0.177,-0.358C0.162,-0.342 0.151,-0.324 0.143,-0.303C0.135,-0.282 0.131,-0.259 0.131,-0.234Z" style="fill:rgb(151,140,140);fill-rule:nonzero;"/>
                                        </g>
                                        <g transform="matrix(20,0,0,20,113.76,0)">
                                            <rect x="0.081" y="-0.756" width="0.078" height="0.756" style="fill:rgb(151,140,140);fill-rule:nonzero;"/>
                                        </g>
                                        <g transform="matrix(20,0,0,20,118.56,0)">
                                            <path d="M0.492,-0.085C0.464,-0.049 0.433,-0.024 0.4,-0.01C0.367,0.005 0.328,0.012 0.284,0.012C0.247,0.012 0.214,0.006 0.185,-0.008C0.156,-0.021 0.131,-0.038 0.111,-0.06C0.09,-0.082 0.075,-0.108 0.064,-0.138C0.053,-0.168 0.047,-0.2 0.047,-0.234C0.047,-0.27 0.053,-0.303 0.065,-0.334C0.077,-0.364 0.094,-0.39 0.115,-0.412C0.136,-0.433 0.162,-0.45 0.191,-0.462C0.22,-0.474 0.252,-0.48 0.287,-0.48C0.32,-0.48 0.35,-0.474 0.377,-0.464C0.404,-0.452 0.428,-0.437 0.448,-0.416C0.467,-0.395 0.482,-0.369 0.493,-0.339C0.504,-0.308 0.509,-0.274 0.509,-0.235L0.509,-0.21L0.131,-0.21C0.132,-0.19 0.137,-0.171 0.146,-0.153C0.154,-0.134 0.165,-0.118 0.178,-0.105C0.191,-0.091 0.207,-0.08 0.225,-0.072C0.243,-0.064 0.263,-0.06 0.284,-0.06C0.318,-0.06 0.347,-0.066 0.37,-0.078C0.393,-0.09 0.414,-0.108 0.433,-0.131L0.492,-0.085ZM0.425,-0.276C0.424,-0.316 0.411,-0.348 0.386,-0.372C0.361,-0.396 0.327,-0.408 0.284,-0.408C0.241,-0.408 0.206,-0.396 0.179,-0.372C0.152,-0.348 0.136,-0.316 0.131,-0.276L0.425,-0.276Z" style="fill:rgb(151,140,140);fill-rule:nonzero;"/>
                                        </g>
                                        <g transform="matrix(20,0,0,20,135.24,0)">
                                            <path d="M0.075,-0.708L0.347,-0.708C0.37,-0.708 0.395,-0.705 0.421,-0.7C0.447,-0.695 0.473,-0.686 0.499,-0.675C0.524,-0.663 0.549,-0.648 0.573,-0.629C0.596,-0.61 0.617,-0.588 0.635,-0.562C0.653,-0.535 0.667,-0.505 0.678,-0.471C0.689,-0.436 0.694,-0.397 0.694,-0.354C0.694,-0.311 0.689,-0.272 0.678,-0.238C0.667,-0.203 0.653,-0.173 0.635,-0.147C0.617,-0.12 0.596,-0.098 0.573,-0.079C0.549,-0.06 0.524,-0.045 0.499,-0.034C0.473,-0.022 0.447,-0.013 0.421,-0.008C0.395,-0.003 0.37,-0 0.347,-0L0.075,-0L0.075,-0.708ZM0.159,-0.078L0.319,-0.078C0.36,-0.078 0.397,-0.083 0.432,-0.094C0.467,-0.105 0.497,-0.121 0.522,-0.144C0.547,-0.166 0.567,-0.194 0.582,-0.229C0.597,-0.264 0.604,-0.305 0.604,-0.354C0.604,-0.403 0.597,-0.444 0.582,-0.479C0.567,-0.514 0.547,-0.542 0.522,-0.565C0.497,-0.587 0.467,-0.603 0.432,-0.614C0.397,-0.625 0.36,-0.63 0.319,-0.63L0.159,-0.63L0.159,-0.078Z" style="fill:rgb(151,140,140);fill-rule:nonzero;"/>
                                        </g>
                                        <g transform="matrix(20,0,0,20,150.06,0)">
                                            <path d="M0.088,-0.708L0.194,-0.708L0.604,-0.12L0.606,-0.12L0.606,-0.708L0.69,-0.708L0.69,-0L0.584,-0L0.174,-0.588L0.172,-0.588L0.172,-0L0.088,-0L0.088,-0.708Z" style="fill:rgb(151,140,140);fill-rule:nonzero;"/>
                                        </g>
                                        <g transform="matrix(20,0,0,20,165.62,0)">
                                            <path d="M0.424,-0.583C0.41,-0.606 0.391,-0.622 0.368,-0.633C0.345,-0.643 0.32,-0.648 0.295,-0.648C0.276,-0.648 0.258,-0.646 0.24,-0.641C0.222,-0.636 0.206,-0.629 0.192,-0.62C0.177,-0.611 0.166,-0.598 0.157,-0.583C0.148,-0.568 0.144,-0.55 0.144,-0.529C0.144,-0.513 0.147,-0.499 0.152,-0.487C0.157,-0.474 0.165,-0.463 0.176,-0.453C0.187,-0.443 0.203,-0.434 0.222,-0.425C0.241,-0.416 0.265,-0.408 0.293,-0.399C0.32,-0.39 0.347,-0.381 0.373,-0.371C0.398,-0.361 0.421,-0.348 0.441,-0.333C0.46,-0.318 0.476,-0.299 0.488,-0.276C0.499,-0.253 0.505,-0.224 0.505,-0.189C0.505,-0.154 0.498,-0.123 0.484,-0.097C0.47,-0.071 0.452,-0.05 0.429,-0.033C0.405,-0.016 0.379,-0.003 0.349,0.006C0.319,0.014 0.288,0.018 0.256,0.018C0.235,0.018 0.215,0.016 0.194,0.013C0.173,0.009 0.154,0.003 0.135,-0.005C0.116,-0.012 0.098,-0.022 0.081,-0.035C0.064,-0.047 0.05,-0.062 0.038,-0.08L0.11,-0.139C0.125,-0.113 0.147,-0.093 0.174,-0.08C0.201,-0.067 0.23,-0.06 0.261,-0.06C0.279,-0.06 0.297,-0.063 0.316,-0.068C0.334,-0.073 0.35,-0.081 0.365,-0.092C0.38,-0.102 0.392,-0.115 0.401,-0.13C0.41,-0.145 0.415,-0.163 0.415,-0.183C0.415,-0.205 0.411,-0.223 0.404,-0.237C0.397,-0.25 0.385,-0.262 0.37,-0.272C0.355,-0.282 0.335,-0.291 0.312,-0.299C0.289,-0.307 0.261,-0.316 0.23,-0.327C0.205,-0.335 0.181,-0.344 0.16,-0.355C0.139,-0.365 0.12,-0.378 0.105,-0.393C0.089,-0.408 0.077,-0.426 0.068,-0.447C0.058,-0.468 0.054,-0.493 0.054,-0.522C0.054,-0.556 0.061,-0.586 0.074,-0.611C0.087,-0.636 0.105,-0.658 0.128,-0.675C0.151,-0.692 0.176,-0.704 0.205,-0.713C0.234,-0.722 0.264,-0.726 0.295,-0.726C0.335,-0.726 0.372,-0.72 0.405,-0.708C0.438,-0.695 0.467,-0.674 0.493,-0.643L0.424,-0.583Z" style="fill:rgb(151,140,140);fill-rule:nonzero;"/>
                                        </g>
                                        <g transform="matrix(20,0,0,20,182.3,0)">
                                            <path d="M0.084,-0.123C0.099,-0.104 0.116,-0.088 0.135,-0.077C0.153,-0.066 0.176,-0.06 0.204,-0.06C0.216,-0.06 0.228,-0.061 0.241,-0.064C0.253,-0.067 0.264,-0.071 0.274,-0.077C0.284,-0.083 0.292,-0.091 0.298,-0.1C0.304,-0.109 0.307,-0.119 0.307,-0.132C0.307,-0.145 0.304,-0.155 0.299,-0.163C0.293,-0.171 0.285,-0.178 0.276,-0.184C0.267,-0.189 0.256,-0.194 0.244,-0.197C0.232,-0.2 0.22,-0.203 0.207,-0.206C0.185,-0.211 0.164,-0.216 0.144,-0.222C0.124,-0.228 0.107,-0.236 0.092,-0.246C0.077,-0.255 0.065,-0.268 0.056,-0.283C0.047,-0.298 0.042,-0.318 0.042,-0.342C0.042,-0.365 0.047,-0.385 0.057,-0.402C0.067,-0.419 0.08,-0.434 0.097,-0.445C0.114,-0.456 0.132,-0.465 0.153,-0.471C0.174,-0.477 0.195,-0.48 0.217,-0.48C0.25,-0.48 0.281,-0.473 0.31,-0.46C0.338,-0.447 0.36,-0.425 0.376,-0.395L0.311,-0.352C0.301,-0.369 0.288,-0.382 0.272,-0.393C0.255,-0.403 0.235,-0.408 0.212,-0.408C0.201,-0.408 0.191,-0.407 0.18,-0.404C0.169,-0.401 0.159,-0.397 0.15,-0.392C0.141,-0.387 0.134,-0.38 0.129,-0.372C0.123,-0.363 0.12,-0.354 0.12,-0.343C0.12,-0.333 0.123,-0.325 0.13,-0.318C0.136,-0.311 0.145,-0.304 0.156,-0.299C0.167,-0.294 0.179,-0.289 0.194,-0.285C0.208,-0.281 0.223,-0.278 0.238,-0.275C0.259,-0.271 0.278,-0.266 0.297,-0.26C0.316,-0.253 0.332,-0.245 0.346,-0.234C0.36,-0.223 0.371,-0.21 0.379,-0.194C0.387,-0.178 0.391,-0.158 0.391,-0.135C0.391,-0.108 0.386,-0.086 0.375,-0.067C0.364,-0.048 0.35,-0.033 0.333,-0.022C0.315,-0.01 0.295,-0.001 0.273,0.004C0.25,0.009 0.227,0.012 0.204,0.012C0.164,0.012 0.13,0.006 0.101,-0.007C0.072,-0.019 0.045,-0.042 0.022,-0.075L0.084,-0.123Z" style="fill:rgb(151,140,140);fill-rule:nonzero;"/>
                                        </g>
                                        <g transform="matrix(20,0,0,20,190.82,0)">
                                            <path d="M0.492,-0.085C0.464,-0.049 0.433,-0.024 0.4,-0.01C0.367,0.005 0.328,0.012 0.284,0.012C0.247,0.012 0.214,0.006 0.185,-0.008C0.156,-0.021 0.131,-0.038 0.111,-0.06C0.09,-0.082 0.075,-0.108 0.064,-0.138C0.053,-0.168 0.047,-0.2 0.047,-0.234C0.047,-0.27 0.053,-0.303 0.065,-0.334C0.077,-0.364 0.094,-0.39 0.115,-0.412C0.136,-0.433 0.162,-0.45 0.191,-0.462C0.22,-0.474 0.252,-0.48 0.287,-0.48C0.32,-0.48 0.35,-0.474 0.377,-0.464C0.404,-0.452 0.428,-0.437 0.448,-0.416C0.467,-0.395 0.482,-0.369 0.493,-0.339C0.504,-0.308 0.509,-0.274 0.509,-0.235L0.509,-0.21L0.131,-0.21C0.132,-0.19 0.137,-0.171 0.146,-0.153C0.154,-0.134 0.165,-0.118 0.178,-0.105C0.191,-0.091 0.207,-0.08 0.225,-0.072C0.243,-0.064 0.263,-0.06 0.284,-0.06C0.318,-0.06 0.347,-0.066 0.37,-0.078C0.393,-0.09 0.414,-0.108 0.433,-0.131L0.492,-0.085ZM0.425,-0.276C0.424,-0.316 0.411,-0.348 0.386,-0.372C0.361,-0.396 0.327,-0.408 0.284,-0.408C0.241,-0.408 0.206,-0.396 0.179,-0.372C0.152,-0.348 0.136,-0.316 0.131,-0.276L0.425,-0.276Z" style="fill:rgb(151,140,140);fill-rule:nonzero;"/>
                                        </g>
                                        <g transform="matrix(20,0,0,20,201.94,0)">
                                            <path d="M0.074,-0.357C0.074,-0.378 0.073,-0.398 0.072,-0.417C0.071,-0.436 0.07,-0.453 0.07,-0.468L0.144,-0.468C0.144,-0.455 0.144,-0.443 0.145,-0.43C0.146,-0.417 0.146,-0.404 0.146,-0.391L0.148,-0.391C0.153,-0.402 0.161,-0.413 0.171,-0.424C0.18,-0.435 0.192,-0.444 0.205,-0.453C0.218,-0.461 0.233,-0.468 0.25,-0.473C0.267,-0.478 0.285,-0.48 0.304,-0.48C0.309,-0.48 0.315,-0.48 0.32,-0.479C0.325,-0.478 0.331,-0.477 0.336,-0.475L0.331,-0.396C0.318,-0.4 0.304,-0.402 0.289,-0.402C0.241,-0.402 0.206,-0.387 0.185,-0.356C0.163,-0.325 0.152,-0.282 0.152,-0.228L0.152,-0L0.074,-0L0.074,-0.357Z" style="fill:rgb(151,140,140);fill-rule:nonzero;"/>
                                        </g>
                                        <g transform="matrix(20,0,0,20,208.98,0)">
                                            <path d="M0.287,-0L0.201,-0L0.01,-0.468L0.101,-0.468L0.247,-0.101L0.249,-0.101L0.388,-0.468L0.472,-0.468L0.287,-0Z" style="fill:rgb(151,140,140);fill-rule:nonzero;"/>
                                        </g>
                                        <g transform="matrix(20,0,0,20,218.62,0)">
                                            <path d="M0.492,-0.085C0.464,-0.049 0.433,-0.024 0.4,-0.01C0.367,0.005 0.328,0.012 0.284,0.012C0.247,0.012 0.214,0.006 0.185,-0.008C0.156,-0.021 0.131,-0.038 0.111,-0.06C0.09,-0.082 0.075,-0.108 0.064,-0.138C0.053,-0.168 0.047,-0.2 0.047,-0.234C0.047,-0.27 0.053,-0.303 0.065,-0.334C0.077,-0.364 0.094,-0.39 0.115,-0.412C0.136,-0.433 0.162,-0.45 0.191,-0.462C0.22,-0.474 0.252,-0.48 0.287,-0.48C0.32,-0.48 0.35,-0.474 0.377,-0.464C0.404,-0.452 0.428,-0.437 0.448,-0.416C0.467,-0.395 0.482,-0.369 0.493,-0.339C0.504,-0.308 0.509,-0.274 0.509,-0.235L0.509,-0.21L0.131,-0.21C0.132,-0.19 0.137,-0.171 0.146,-0.153C0.154,-0.134 0.165,-0.118 0.178,-0.105C0.191,-0.091 0.207,-0.08 0.225,-0.072C0.243,-0.064 0.263,-0.06 0.284,-0.06C0.318,-0.06 0.347,-0.066 0.37,-0.078C0.393,-0.09 0.414,-0.108 0.433,-0.131L0.492,-0.085ZM0.425,-0.276C0.424,-0.316 0.411,-0.348 0.386,-0.372C0.361,-0.396 0.327,-0.408 0.284,-0.408C0.241,-0.408 0.206,-0.396 0.179,-0.372C0.152,-0.348 0.136,-0.316 0.131,-0.276L0.425,-0.276Z" style="fill:rgb(151,140,140);fill-rule:nonzero;"/>
                                        </g>
                                        <g transform="matrix(20,0,0,20,229.74,0)">
                                            <path d="M0.074,-0.357C0.074,-0.378 0.073,-0.398 0.072,-0.417C0.071,-0.436 0.07,-0.453 0.07,-0.468L0.144,-0.468C0.144,-0.455 0.144,-0.443 0.145,-0.43C0.146,-0.417 0.146,-0.404 0.146,-0.391L0.148,-0.391C0.153,-0.402 0.161,-0.413 0.171,-0.424C0.18,-0.435 0.192,-0.444 0.205,-0.453C0.218,-0.461 0.233,-0.468 0.25,-0.473C0.267,-0.478 0.285,-0.48 0.304,-0.48C0.309,-0.48 0.315,-0.48 0.32,-0.479C0.325,-0.478 0.331,-0.477 0.336,-0.475L0.331,-0.396C0.318,-0.4 0.304,-0.402 0.289,-0.402C0.241,-0.402 0.206,-0.387 0.185,-0.356C0.163,-0.325 0.152,-0.282 0.152,-0.228L0.152,-0L0.074,-0L0.074,-0.357Z" style="fill:rgb(151,140,140);fill-rule:nonzero;"/>
                                        </g>
                                    </g>
                                </g>
                            </g>
                        </g>
                    </g>
                    <g id="g-root-cr_2_cr-2_1hjford1t9hude-stroke" transform="matrix(1,0,0,1,398,98)">
                        <g id="cr_2_cr-2_1hjford1t9hude-stroke">
                            <g>
                                <path d="M10,64C10,93.823 34.177,118 64,118C93.823,118 118,93.823 118,64C118,34.177 93.823,10 64,10C34.177,10 10,34.177 10,64" style="fill:none;stroke:rgb(195,230,159);stroke-width:2px;"/>
                            </g>
                        </g>
                    </g>
                    <g id="g-root-cr_1_cr-1_1hjford1t9hudf-stroke" transform="matrix(1,0,0,1,74,98)">
                        <g id="cr_1_cr-1_1hjford1t9hudf-stroke">
                            <g>
                                <path d="M10,64C10,93.823 34.177,118 64,118C93.823,118 118,93.823 118,64C118,34.177 93.823,10 64,10C34.177,10 10,34.177 10,64" style="fill:none;stroke:rgb(126,214,223);stroke-width:2px;"/>
                            </g>
                        </g>
                    </g>
                    <g id="g-root-ic_ques_1q7kzyx1t9jbpk-stroke" transform="matrix(1,0,0,1,92,116)">
                        <g id="ic_ques_1q7kzyx1t9jbpk-stroke">
                            <g>
                                <path d="M74.5,23.5C74.5,26.814 71.814,29.5 68.5,29.5L17.5,29.5C14.186,29.5 11.5,26.814 11.5,23.5L11.5,17.5C11.5,14.186 14.186,11.5 17.5,11.5L68.5,11.5C71.814,11.5 74.5,14.186 74.5,17.5L74.5,23.5ZM17.5,47.5C14.186,47.5 11.5,44.814 11.5,41.5L11.5,35.5C11.5,32.186 14.186,29.5 17.5,29.5L68.5,29.5C71.814,29.5 74.5,32.186 74.5,35.5L74.5,40M24.25,19.75C23.836,19.75 23.5,20.086 23.5,20.5C23.5,20.914 23.836,21.25 24.25,21.25C24.664,21.25 25,20.914 25,20.5C25,20.086 24.664,19.75 24.25,19.75M35.5,20.5C35.5,20.086 35.164,19.75 34.75,19.75C34.336,19.75 34,20.086 34,20.5C34,20.914 34.336,21.25 34.75,21.25C35.164,21.25 35.5,20.914 35.5,20.5M24.25,37.75C23.836,37.75 23.5,38.086 23.5,38.5C23.5,38.914 23.836,39.25 24.25,39.25C24.664,39.25 25,38.914 25,38.5C25,38.086 24.664,37.75 24.25,37.75M34.75,37.75C34.336,37.75 34,38.086 34,38.5C34,38.914 34.336,39.25 34.75,39.25C35.164,39.25 35.5,38.914 35.5,38.5C35.5,38.086 35.164,37.75 34.75,37.75M37,65.5L17.5,65.5C14.186,65.5 11.5,62.814 11.5,59.5L11.5,53.5C11.5,50.186 14.186,47.5 17.5,47.5L41.5,47.5M24.25,55.75C23.836,55.75 23.5,56.086 23.5,56.5C23.5,56.914 23.836,57.25 24.25,57.25C24.664,57.25 25,56.914 25,56.5C25,56.086 24.664,55.75 24.25,55.75M34.75,55.75C34.336,55.75 34,56.086 34,56.5C34,56.914 34.336,57.25 34.75,57.25C35.164,57.25 35.5,56.914 35.5,56.5C35.5,56.086 35.164,55.75 34.75,55.75M44.5,62.5C44.5,72.441 52.559,80.5 62.5,80.5C72.441,80.5 80.5,72.441 80.5,62.5C80.5,52.559 72.441,44.5 62.5,44.5C52.559,44.5 44.5,52.559 44.5,62.5ZM56.875,58.126C56.875,55.019 59.393,52.501 62.5,52.501C65.607,52.501 68.125,55.019 68.125,58.126C68.125,61.233 65.607,63.751 62.5,63.751L62.5,66.751M62.5,72.751C62.086,72.751 61.75,73.087 61.75,73.501C61.75,73.915 62.086,74.251 62.5,74.251C62.914,74.251 63.25,73.915 63.25,73.501C63.25,73.087 62.914,72.751 62.5,72.751" style="fill:none;stroke:rgb(126,214,223);stroke-width:2px;"/>
                            </g>
                        </g>
                    </g>
                    <g id="g-root-ic_ligh_58bo91t9m2a2-stroke" transform="matrix(1,0,0,1,254,116)">
                        <g id="ic_ligh_58bo91t9m2a2-stroke">
                            <g>
                                <path d="M43.716,60.25L41.79,75.448C41.602,76.932 43.444,77.733 44.395,76.578C47.02,73.391 50.812,68.769 54.857,63.834M69.832,45.546C71.38,43.655 72.706,42.033 73.705,40.812C74.506,39.833 73.809,38.363 72.544,38.363L69.158,38.363M25.08,52.912L19.495,52.912C18.224,52.912 17.528,51.429 18.343,50.452L22.779,45.133M35.113,30.346C39.877,24.637 44.504,19.092 47.565,15.429C48.526,14.279 50.384,15.095 50.191,16.581L48.589,28.889M40.897,54.802L46.692,35.309C46.978,34.347 46.258,33.381 45.255,33.381L42.439,33.381C41.771,33.381 41.183,33.823 40.998,34.465L36.395,50.413C36.289,50.778 35.77,50.773 35.672,50.406L31.423,34.494C31.248,33.838 30.654,33.381 29.974,33.381L26.995,33.381C25.996,33.381 25.277,34.338 25.554,35.298L31.18,54.769C31.736,56.694 33.499,58.02 35.503,58.02L36.584,58.02C38.575,58.02 40.33,56.711 40.897,54.802ZM55.995,52.898C54.672,52.898 53.316,52.649 52.158,52.296C51.213,52.008 50.137,52.531 49.935,53.497L49.495,55.604C49.357,56.263 49.675,56.938 50.312,57.157C51.677,57.626 53.664,58.02 55.716,58.02C62.197,58.02 65.5,54.656 65.5,50.398C65.5,47.325 63.797,44.949 59.739,43.285C56.777,42.036 55.727,41.491 55.727,40.328C55.727,39.26 56.759,38.468 58.704,38.468C59.831,38.468 60.803,38.637 61.609,38.862C62.527,39.119 63.545,38.638 63.765,37.711L64.244,35.694C64.409,34.998 64.062,34.274 63.381,34.053C62.162,33.659 60.618,33.382 58.744,33.382C52.777,33.382 49.47,36.688 49.47,40.844C49.47,43.874 51.57,46.228 55.603,47.924C58.157,48.945 59.221,49.665 59.221,50.874C59.221,52.084 58.113,52.898 55.995,52.898Z" style="fill:none;stroke:rgb(151,140,140);stroke-width:2px;"/>
                            </g>
                        </g>
                    </g>
                    <g id="g-root-ic_exch_18f21ax1t9kpah-stroke" transform="matrix(1,0,0,1,416,116)">
                        <g id="ic_exch_18f21ax1t9kpah-stroke">
                            <g>
                                <path d="M23.5,35.5L23.5,28.75C23.499,25.765 24.685,22.901 26.797,20.791C28.909,18.681 31.774,17.497 34.759,17.5L40,17.5M29.509,29.5L23.509,35.5L17.509,29.5M35.509,13L40.009,17.5L35.509,22M80.5,17.5C80.5,20.814 77.814,23.5 74.5,23.5L59.5,23.5C56.186,23.5 53.5,20.814 53.5,17.5C53.5,14.186 56.186,11.5 59.5,11.5L74.5,11.5C77.814,11.5 80.5,14.186 80.5,17.5ZM61.75,16.75C61.336,16.75 61,17.086 61,17.5C61,17.914 61.336,18.25 61.75,18.25C62.164,18.25 62.5,17.914 62.5,17.5C62.5,17.086 62.164,16.75 61.75,16.75M80.5,29.5C80.5,32.814 77.814,35.5 74.5,35.5L59.5,35.5C56.186,35.5 53.5,32.814 53.5,29.5C53.5,26.186 56.186,23.5 59.5,23.5L74.5,23.5C77.814,23.5 80.5,26.186 80.5,29.5ZM61.75,28.75C61.336,28.75 61,29.086 61,29.5C61,29.914 61.336,30.25 61.75,30.25C62.164,30.25 62.5,29.914 62.5,29.5C62.5,29.086 62.164,28.75 61.75,28.75M80.5,41.5C80.5,44.814 77.814,47.5 74.5,47.5L59.5,47.5C56.186,47.5 53.5,44.814 53.5,41.5C53.5,38.186 56.186,35.5 59.5,35.5L74.5,35.5C77.814,35.5 80.5,38.186 80.5,41.5ZM61.75,40.75C61.336,40.75 61,41.086 61,41.5C61,41.914 61.336,42.25 61.75,42.25C62.164,42.25 62.5,41.914 62.5,41.5C62.5,41.086 62.164,40.75 61.75,40.75M38.5,50.5C38.5,53.814 35.814,56.5 32.5,56.5L17.5,56.5C14.186,56.5 11.5,53.814 11.5,50.5C11.5,47.186 14.186,44.5 17.5,44.5L32.5,44.5C35.814,44.5 38.5,47.186 38.5,50.5ZM19.75,49.75C19.336,49.75 19,50.086 19,50.5C19,50.914 19.336,51.25 19.75,51.25C20.164,51.25 20.5,50.914 20.5,50.5C20.5,50.086 20.164,49.75 19.75,49.75M38.5,62.5C38.5,65.814 35.814,68.5 32.5,68.5L17.5,68.5C14.186,68.5 11.5,65.814 11.5,62.5C11.5,59.186 14.186,56.5 17.5,56.5L32.5,56.5C35.814,56.5 38.5,59.186 38.5,62.5ZM19.75,61.75C19.336,61.75 19,62.086 19,62.5C19,62.914 19.336,63.25 19.75,63.25C20.164,63.25 20.5,62.914 20.5,62.5C20.5,62.086 20.164,61.75 19.75,61.75M38.5,74.5C38.5,77.814 35.814,80.5 32.5,80.5L17.5,80.5C14.186,80.5 11.5,77.814 11.5,74.5C11.5,71.186 14.186,68.5 17.5,68.5L32.5,68.5C35.814,68.5 38.5,71.186 38.5,74.5ZM19.75,73.75C19.336,73.75 19,74.086 19,74.5C19,74.914 19.336,75.25 19.75,75.25C20.164,75.25 20.5,74.914 20.5,74.5C20.5,74.086 20.164,73.75 19.75,73.75" style="fill:none;stroke:rgb(195,230,159);stroke-width:2px;"/>
                            </g>
                        </g>
                    </g>
                </g>
            </g>
        </g>
    </g>
</svg>
