<?xml version="1.0" encoding="UTF-8" standalone="no"?>
<!DOCTYPE svg PUBLIC "-//W3C//DTD SVG 1.1//EN" "http://www.w3.org/Graphics/SVG/1.1/DTD/svg11.dtd">
<svg width="100%" height="100%" viewBox="0 0 888 644" version="1.1" xmlns="http://www.w3.org/2000/svg" xmlns:xlink="http://www.w3.org/1999/xlink" xml:space="preserve" xmlns:serif="http://www.serif.com/" style="fill-rule:evenodd;clip-rule:evenodd;stroke-linecap:round;stroke-linejoin:round;">
    <g id="items">
        <g id="blend">
            <g transform="matrix(1,0,0,1,434,374)">
                <path d="M10,10L105,10C174.036,10 226,60.964 226,130L250,130L178,209.5L106,130L130,130C130,116.193 118.807,106 105,106L10,106L10,10Z" style="fill:rgb(252,92,101);"/>
            </g>
            <g transform="matrix(1,0,0,1,218,350)">
                <path d="M226,130L131,130C61.965,130 10,79.036 10,10L106,10C106,23.807 117.193,34 131,34L226,34L226,130Z" style="fill:rgb(241,144,102);"/>
            </g>
            <g transform="matrix(1,0,0,1,218,230)">
                <path d="M226,10L131,10C61.965,10 10,60.964 10,130L106,130C106,116.193 117.193,106 131,106L226,106L226,10Z" style="fill:rgb(247,215,148);"/>
            </g>
            <g transform="matrix(1,0,0,1,434,206)">
                <path d="M10,130L105,130C174.036,130 226,79.036 226,10L130,10C130,23.807 118.807,34 105,34L10,34L10,130Z" style="fill:rgb(195,230,159);"/>
            </g>
            <g transform="matrix(1,0,0,1,434,86)">
                <path d="M10,10L105,10C174.036,10 226,60.964 226,130L130,130C130,116.193 118.807,106 105,106L10,106L10,10Z" style="fill:rgb(135,220,198);"/>
            </g>
            <g transform="matrix(1,0,0,1,218,86)">
                <rect x="10" y="10" width="216" height="96" style="fill:rgb(126,214,223);"/>
            </g>
            <g transform="matrix(1,0,0,1,686,132)">
                <text x="0px" y="0px" style="font-family:'Avenir-Black', 'Avenir', sans-serif;font-weight:800;font-size:20px;fill:rgb(151,140,140);">Recursive Resolver</text>
            </g>
            <g transform="matrix(1,0,0,1,50.57,174)">
                <text x="0px" y="0px" style="font-family:'Avenir-Roman', 'Avenir', sans-serif;font-size:15px;fill:rgb(151,140,140);">User initiates sear<tspan x="118.665px 125.895px " y="0px 0px ">ch</tspan> in</text>
            </g>
            <g transform="matrix(1,0,0,1,116.7,192)">
                <text x="0px" y="0px" style="font-family:'Avenir-Roman', 'Avenir', sans-serif;font-size:15px;fill:rgb(151,140,140);">web br<tspan x="46.965px 55.875px " y="0px 0px ">ow</tspan>ser</text>
            </g>
            <g id="g-root-tx_querysen_qnsgnd1ttmnes-fill" transform="matrix(1,0,0,1,674,134)">
                <g transform="matrix(1,0,0,1,12,28)">
                    <text x="0px" y="0px" style="font-family:'Avenir-Roman', 'Avenir', sans-serif;font-size:15px;fill:rgb(151,140,140);">Query sent to r<tspan x="101.76px 110.1px " y="0px 0px ">ec</tspan>ursive</text>
                </g>
                <g transform="matrix(1,0,0,1,12,46)">
                    <text x="0px" y="0px" style="font-family:'Avenir-Roman', 'Avenir', sans-serif;font-size:15px;fill:rgb(151,140,140);">DNS r<tspan x="40.305px 48.645px " y="0px 0px ">es</tspan>olver</text>
                </g>
            </g>
            <g transform="matrix(1,0,0,1,43.77,276)">
                <text x="0px" y="0px" style="font-family:'Avenir-Black', 'Avenir', sans-serif;font-weight:800;font-size:20px;fill:rgb(151,140,140);">TLD Server Query</text>
            </g>
            <g transform="matrix(1,0,0,1,686,276)">
                <text x="0px" y="0px" style="font-family:'Avenir-Black', 'Avenir', sans-serif;font-weight:800;font-size:20px;fill:rgb(151,140,140);">Root Server Query</text>
            </g>
            <g transform="matrix(1,0,0,1,29.05,306)">
                <text x="0px" y="0px" style="font-family:'Avenir-Roman', 'Avenir', sans-serif;font-size:15px;fill:rgb(151,140,140);">Root server dir<tspan x="99.255px 107.595px " y="0px 0px ">ec</tspan>ts to TLD</text>
            </g>
            <g transform="matrix(1,0,0,1,160.88,324)">
                <text x="0px" y="0px" style="font-family:'Avenir-Roman', 'Avenir', sans-serif;font-size:15px;fill:rgb(151,140,140);">server</text>
            </g>
            <g transform="matrix(1,0,0,1,686,306)">
                <text x="0px" y="0px" style="font-family:'Avenir-Roman', 'Avenir', sans-serif;font-size:15px;fill:rgb(151,140,140);">Resolver queries r<tspan x="120.06px 128.97px " y="0px 0px ">oo</tspan>t DNS</text>
            </g>
            <g transform="matrix(1,0,0,1,686,324)">
                <text x="0px" y="0px" style="font-family:'Avenir-Roman', 'Avenir', sans-serif;font-size:15px;fill:rgb(151,140,140);">server</text>
            </g>
            <g transform="matrix(1,0,0,1,83.65,120)">
                <text x="0px" y="0px" style="font-family:'Avenir-Black', 'Avenir', sans-serif;font-weight:800;font-size:20px;fill:rgb(151,140,140);">W<tspan x="19.64px 31.12px " y="0px 0px ">eb</tspan> Br<tspan x="70.38px 82.58px " y="0px 0px ">ow</tspan>ser</text>
            </g>
            <g transform="matrix(1,0,0,1,139.43,144)">
                <text x="0px" y="0px" style="font-family:'Avenir-Black', 'Avenir', sans-serif;font-weight:800;font-size:20px;fill:rgb(151,140,140);">Sear<tspan x="41.48px 51.12px " y="0px 0px ">ch</tspan></text>
            </g>
            <g transform="matrix(1,0,0,1,27.37,408)">
                <text x="0px" y="0px" style="font-family:'Avenir-Black', 'Avenir', sans-serif;font-weight:800;font-size:20px;fill:rgb(151,140,140);">Authoritative Name</text>
            </g>
            <g transform="matrix(1,0,0,1,84.95,432)">
                <text x="0px" y="0px" style="font-family:'Avenir-Black', 'Avenir', sans-serif;font-weight:800;font-size:20px;fill:rgb(151,140,140);">Server Query</text>
            </g>
            <g transform="matrix(1,0,0,1,178.763,66.5321)">
                <g transform="matrix(36,0,0,36,525.24,0)">
                </g>
                <text x="0px" y="0px" style="font-family:'Avenir-Black', 'Avenir', sans-serif;font-weight:800;font-size:36px;fill:rgb(151,140,140);">DNS Query Resolution Pr<tspan x="431.928px 453.888px " y="0px 0px ">oc</tspan>ess</text>
            </g>
            <g transform="matrix(1,0,0,1,686,408)">
                <text x="0px" y="0px" style="font-family:'Avenir-Black', 'Avenir', sans-serif;font-weight:800;font-size:20px;fill:rgb(151,140,140);">IP Addr<tspan x="72.24px 83.72px " y="0px 0px ">es</tspan>s</text>
            </g>
            <g transform="matrix(1,0,0,1,686,432)">
                <text x="0px" y="0px" style="font-family:'Avenir-Black', 'Avenir', sans-serif;font-weight:800;font-size:20px;fill:rgb(151,140,140);">Retur<tspan x="52.56px 64.04px " y="0px 0px ">ne</tspan>d</text>
            </g>
            <g transform="matrix(1,0,0,1,686,462)">
                <text x="0px" y="0px" style="font-family:'Avenir-Roman', 'Avenir', sans-serif;font-size:15px;fill:rgb(151,140,140);">IP addr<tspan x="48.09px 56.43px " y="0px 0px ">es</tspan>s r<tspan x="78.39px 86.73px " y="0px 0px ">et</tspan>urned to</text>
            </g>
            <g transform="matrix(1,0,0,1,686,480)">
                <text x="0px" y="0px" style="font-family:'Avenir-Roman', 'Avenir', sans-serif;font-size:15px;fill:rgb(151,140,140);">r<tspan x="5.01px 13.35px " y="0px 0px ">es</tspan>olver</text>
            </g>
            <g transform="matrix(1,0,0,1,64.02,462)">
                <text x="0px" y="0px" style="font-family:'Avenir-Roman', 'Avenir', sans-serif;font-size:15px;fill:rgb(151,140,140);">TLD server dir<tspan x="94.215px 102.555px " y="0px 0px ">ec</tspan>ts to</text>
            </g>
            <g transform="matrix(1,0,0,1,73.55,480)">
                <text x="0px" y="0px" style="font-family:'Avenir-Roman', 'Avenir', sans-serif;font-size:15px;fill:rgb(151,140,140);">authoritative server</text>
            </g>
            <g id="g-root-cp_6_g-6_4jtbgp1ttcufb-stroke" transform="matrix(1,0,0,1,434,374)">
                <g id="cp_6_g-6_4jtbgp1ttcufb-stroke">
                    <g>
                        <path d="M10,10L105,10C174.036,10 226,60.964 226,130L250,130L178,209.5L106,130L130,130C130,116.193 118.807,106 105,106L10,106L10,10Z" style="fill:none;stroke:rgb(44,44,44);stroke-width:2px;"/>
                    </g>
                </g>
            </g>
            <g id="g-root-cp_5_g-5_1cymts91ttcu89-stroke" transform="matrix(1,0,0,1,218,350)">
                <g id="cp_5_g-5_1cymts91ttcu89-stroke">
                    <g>
                        <path d="M226,130L131,130C61.965,130 10,79.036 10,10L106,10C106,23.807 117.193,34 131,34L226,34L226,130Z" style="fill:none;stroke:rgb(44,44,44);stroke-width:2px;"/>
                    </g>
                </g>
            </g>
            <g id="g-root-cp_4_g-4_zn6bex1ttcvt7-stroke" transform="matrix(1,0,0,1,218,230)">
                <g id="cp_4_g-4_zn6bex1ttcvt7-stroke">
                    <g>
                        <path d="M226,10L131,10C61.965,10 10,60.964 10,130L106,130C106,116.193 117.193,106 131,106L226,106L226,10Z" style="fill:none;stroke:rgb(44,44,44);stroke-width:2px;"/>
                    </g>
                </g>
            </g>
            <g id="g-root-cp_3_g-3_mcca4p1ttcu8d-stroke" transform="matrix(1,0,0,1,434,206)">
                <g id="cp_3_g-3_mcca4p1ttcu8d-stroke">
                    <g>
                        <path d="M10,130L105,130C174.036,130 226,79.036 226,10L130,10C130,23.807 118.807,34 105,34L10,34L10,130Z" style="fill:none;stroke:rgb(44,44,44);stroke-width:2px;"/>
                    </g>
                </g>
            </g>
            <g id="g-root-cp_2_g-2_hwis091ttcv0n-stroke" transform="matrix(1,0,0,1,434,86)">
                <g id="cp_2_g-2_hwis091ttcv0n-stroke">
                    <g>
                        <path d="M10,10L105,10C174.036,10 226,60.964 226,130L130,130C130,116.193 118.807,106 105,106L10,106L10,10Z" style="fill:none;stroke:rgb(44,44,44);stroke-width:2px;"/>
                    </g>
                </g>
            </g>
            <g id="g-root-cp_1_g-1_4loqq11ttctft-stroke" transform="matrix(1,0,0,1,218,86)">
                <g id="cp_1_g-1_4loqq11ttctft-stroke">
                    <g>
                        <rect x="10" y="10" width="216" height="96" style="fill:none;stroke:rgb(44,44,44);stroke-width:2px;"/>
                    </g>
                </g>
            </g>
            <g id="g-root-ic_1_1cuvz9l1tth1xc-stroke" transform="matrix(1,0,0,1,512,104)">
                <g id="ic_1_1cuvz9l1tth1xc-stroke">
                    <g>
                        <path d="M57.5,48.75L68.75,48.75L68.75,37.5M67.895,48.75C65.617,42.304 59.27,38.214 52.459,38.803C45.648,39.392 40.097,44.512 38.961,51.254C37.824,57.995 41.39,64.652 47.631,67.441C53.872,70.231 61.21,68.448 65.475,63.105M23.75,61.25L31.25,61.25M31.253,48.75L31.253,61.25M18.125,60C17.78,60 17.5,60.28 17.5,60.625C17.5,60.97 17.78,61.25 18.125,61.25C18.47,61.25 18.75,60.97 18.75,60.625C18.75,60.28 18.47,60 18.125,60M11.875,60C11.53,60 11.25,60.28 11.25,60.625C11.25,60.97 11.53,61.25 11.875,61.25C12.22,61.25 12.5,60.97 12.5,60.625C12.5,60.28 12.22,60 11.875,60M20.625,41.875C20.28,41.875 20,42.155 20,42.5C20,42.845 20.28,43.125 20.625,43.125C20.97,43.125 21.25,42.845 21.25,42.5C21.25,42.155 20.97,41.875 20.625,41.875M26.875,41.875C26.53,41.875 26.25,42.155 26.25,42.5C26.25,42.845 26.53,43.125 26.875,43.125C27.22,43.125 27.5,42.845 27.5,42.5C27.5,42.155 27.22,41.875 26.875,41.875M41.25,36.25L17.5,36.25C14.048,36.25 11.25,39.048 11.25,42.5C11.25,45.952 14.048,48.75 17.5,48.75L33.75,48.75M20.625,29.375C20.28,29.375 20,29.655 20,30C20,30.345 20.28,30.625 20.625,30.625C20.97,30.625 21.25,30.345 21.25,30C21.25,29.655 20.97,29.375 20.625,29.375M26.875,29.375C26.53,29.375 26.25,29.655 26.25,30C26.25,30.345 26.53,30.625 26.875,30.625C27.22,30.625 27.5,30.345 27.5,30C27.5,29.655 27.22,29.375 26.875,29.375M53.75,30C53.75,26.548 50.952,23.75 47.5,23.75L17.5,23.75C14.048,23.75 11.25,26.548 11.25,30C11.25,33.452 14.048,36.25 17.5,36.25L41.25,36.25M20.625,16.875C20.28,16.875 20,17.155 20,17.5C20,17.845 20.28,18.125 20.625,18.125C20.97,18.125 21.25,17.845 21.25,17.5C21.25,17.155 20.97,16.875 20.625,16.875M26.875,16.875C26.53,16.875 26.25,17.155 26.25,17.5C26.25,17.845 26.53,18.125 26.875,18.125C27.22,18.125 27.5,17.845 27.5,17.5C27.5,17.155 27.22,16.875 26.875,16.875M53.75,17.5C53.75,14.048 50.952,11.25 47.5,11.25L17.5,11.25C14.048,11.25 11.25,14.048 11.25,17.5C11.25,20.952 14.048,23.75 17.5,23.75L47.5,23.75C50.952,23.75 53.75,20.952 53.75,17.5Z" style="fill:none;stroke:rgb(44,44,44);stroke-width:2px;"/>
                    </g>
                </g>
            </g>
            <g id="g-root-ic_1_hye79l1ttcu10-stroke" transform="matrix(1,0,0,1,296,104)">
                <g id="ic_1_hye79l1ttcu10-stroke">
                    <g>
                        <path d="M41.292,52.585C41.292,58.838 46.362,63.908 52.615,63.908C58.868,63.908 63.937,58.838 63.937,52.585C63.937,46.332 58.868,41.263 52.615,41.263C46.362,41.263 41.292,46.332 41.292,52.585ZM68.79,68.762L60.672,60.643M11.29,21.26L61.29,21.26M18.79,15.635C18.445,15.635 18.165,15.915 18.165,16.26C18.165,16.605 18.445,16.885 18.79,16.885C19.135,16.885 19.415,16.605 19.415,16.26C19.415,15.915 19.135,15.635 18.79,15.635M23.79,15.635C23.445,15.635 23.165,15.915 23.165,16.26C23.165,16.605 23.445,16.885 23.79,16.885C24.135,16.885 24.415,16.605 24.415,16.26C24.415,15.915 24.135,15.635 23.79,15.635M28.79,15.635C28.445,15.635 28.165,15.915 28.165,16.26C28.165,16.605 28.445,16.885 28.79,16.885C29.135,16.885 29.415,16.605 29.415,16.26C29.415,15.915 29.135,15.635 28.79,15.635M31.29,51.25L16.29,51.25C13.529,51.25 11.29,49.011 11.29,46.25L11.29,16.25C11.29,13.489 13.529,11.25 16.29,11.25L56.29,11.25C59.051,11.25 61.29,13.489 61.29,16.25L61.29,31.25" style="fill:none;stroke:rgb(44,44,44);stroke-width:2px;"/>
                    </g>
                </g>
            </g>
            <g id="g-root-ic_1_18gxweh1ttea68-stroke" transform="matrix(1,0,0,1,296,248)">
                <g id="ic_1_18gxweh1ttea68-stroke">
                    <g>
                        <path d="M68.75,63.75C68.75,66.511 66.511,68.75 63.75,68.75L16.25,68.75C13.489,68.75 11.25,66.511 11.25,63.75L11.25,53.75C11.25,50.989 13.489,48.75 16.25,48.75L63.75,48.75C66.511,48.75 68.75,50.989 68.75,53.75L68.75,63.75ZM18.75,61.25L61.25,61.25M52.03,55.625C51.685,55.625 51.405,55.905 51.405,56.25C51.405,56.595 51.685,56.875 52.03,56.875C52.375,56.875 52.655,56.595 52.655,56.25C52.655,55.905 52.375,55.625 52.03,55.625M59.427,55.625C59.082,55.625 58.802,55.905 58.802,56.25C58.802,56.595 59.082,56.875 59.427,56.875C59.773,56.875 60.052,56.595 60.052,56.25C60.053,56.084 59.988,55.925 59.87,55.807C59.753,55.69 59.593,55.624 59.427,55.625M38.75,11.25L38.75,41.25M25,25L38.75,11.25L52.5,25" style="fill:none;stroke:rgb(44,44,44);stroke-width:2px;"/>
                    </g>
                </g>
            </g>
            <g id="g-root-ic_subt_1lwrqdl1tth1xo-stroke" transform="matrix(1,0,0,1,512,248)">
                <g id="ic_subt_1lwrqdl1tth1xo-stroke">
                    <g>
                        <path d="M63.75,21.25C63.75,24.011 61.511,26.25 58.75,26.25L16.25,26.25C13.489,26.25 11.25,24.011 11.25,21.25L11.25,16.25C11.25,13.489 13.489,11.25 16.25,11.25L58.75,11.25C61.511,11.25 63.75,13.489 63.75,16.25L63.75,21.25ZM16.25,41.25C13.489,41.25 11.25,39.011 11.25,36.25L11.25,31.25C11.25,28.489 13.489,26.25 16.25,26.25L58.75,26.25C61.511,26.25 63.75,28.489 63.75,31.25L63.75,35M21.875,18.125C21.53,18.125 21.25,18.405 21.25,18.75C21.25,19.095 21.53,19.375 21.875,19.375C22.22,19.375 22.5,19.095 22.5,18.75C22.5,18.405 22.22,18.125 21.875,18.125M30.625,18.125C30.28,18.125 30,18.405 30,18.75C30,19.095 30.28,19.375 30.625,19.375C30.97,19.375 31.25,19.095 31.25,18.75C31.25,18.405 30.97,18.125 30.625,18.125M21.875,33.125C21.53,33.125 21.25,33.405 21.25,33.75C21.25,34.095 21.53,34.375 21.875,34.375C22.22,34.375 22.5,34.095 22.5,33.75C22.5,33.405 22.22,33.125 21.875,33.125M30.625,33.125C30.28,33.125 30,33.405 30,33.75C30,34.095 30.28,34.375 30.625,34.375C30.97,34.375 31.25,34.095 31.25,33.75C31.25,33.405 30.97,33.125 30.625,33.125M32.5,56.25L16.25,56.25C13.489,56.25 11.25,54.011 11.25,51.25L11.25,46.25C11.25,43.489 13.489,41.25 16.25,41.25L36.25,41.25M21.875,48.125C21.53,48.125 21.25,48.405 21.25,48.75C21.25,49.095 21.53,49.375 21.875,49.375C22.22,49.375 22.5,49.095 22.5,48.75C22.5,48.405 22.22,48.125 21.875,48.125M30.625,48.125C30.28,48.125 30,48.405 30,48.75C30,49.095 30.28,49.375 30.625,49.375C30.97,49.375 31.25,49.095 31.25,48.75C31.25,48.405 30.97,48.125 30.625,48.125M38.75,53.75C38.75,62.034 45.466,68.75 53.75,68.75C62.034,68.75 68.75,62.034 68.75,53.75C68.75,45.466 62.034,38.75 53.75,38.75C45.466,38.75 38.75,45.466 38.75,53.75L38.75,53.75ZM61.25,53.75L46.25,53.75" style="fill:none;stroke:rgb(44,44,44);stroke-width:2px;"/>
                    </g>
                </g>
            </g>
            <g id="g-root-ic_2_hsrxhl1ttfojw-stroke" transform="matrix(1,0,0,1,296,392)">
                <g id="ic_2_hsrxhl1ttfojw-stroke">
                    <g>
                        <path d="M40.005,11.25L40.005,41.25M26.255,25L40.005,11.25L53.755,25M12.5,58.75C12.5,64.273 16.977,68.75 22.5,68.75L57.5,68.75C63.023,68.75 67.5,64.273 67.5,58.75C67.5,53.227 63.023,48.75 57.5,48.75L22.5,48.75C16.977,48.75 12.5,53.227 12.5,58.75ZM20,58.75L37.5,58.75M45,58.75C45,60.131 46.119,61.25 47.5,61.25C48.881,61.25 50,60.131 50,58.75C50,57.369 48.881,56.25 47.5,56.25C46.119,56.25 45,57.369 45,58.75ZM55,58.75C55,60.131 56.119,61.25 57.5,61.25C58.881,61.25 60,60.131 60,58.75C60,57.369 58.881,56.25 57.5,56.25C56.119,56.25 55,57.369 55,58.75Z" style="fill:none;stroke:rgb(44,44,44);stroke-width:2px;"/>
                    </g>
                </g>
            </g>
            <g id="g-root-ic_off_zof9l51ttigaw-stroke" transform="matrix(1,0,0,1,512,392)">
                <g id="ic_off_zof9l51ttigaw-stroke">
                    <g>
                        <path d="M50.195,17.688C37.889,14.037 24.572,17.419 15.5,26.5M41.47,28.78C34.423,28.428 27.557,31.079 22.575,36.075M35.252,60C35.252,62.761 37.491,65 40.252,65C43.014,65 45.252,62.761 45.252,60C45.252,57.239 43.014,55 40.252,55C37.491,55 35.252,57.239 35.252,60ZM65,27.75C63.894,26.641 62.713,25.607 61.467,24.657M57.93,36.075C56.583,34.727 55.088,33.536 53.472,32.525M50.86,46.893C48.955,44.983 46.569,43.625 43.955,42.963M64.003,12.5L16.503,67.5" style="fill:none;stroke:rgb(44,44,44);stroke-width:2px;"/>
                    </g>
                </g>
            </g>
        </g>
    </g>
</svg>
