<svg xmlns="http://www.w3.org/2000/svg" viewBox="0 0 800 320" style="font-family: -apple-system, BlinkMacSystemFont, 'Segoe UI', Roboto, sans-serif; font-size: 11px;">
  <!-- example.com -->
  <rect x="350" y="10" width="100" height="36" rx="4" fill="#f5f5f5" stroke="#333" stroke-width="1.5"/>
  <text x="400" y="33" text-anchor="middle" fill="#333">example.com</text>

  <!-- prod.example.com (ENT - dashed) -->
  <rect x="115" y="75" width="150" height="36" rx="4" fill="#f5f5f5" stroke="#333" stroke-width="1.5" stroke-dasharray="5 5"/>
  <text x="190" y="98" text-anchor="middle" fill="#333">prod.example.com</text>

  <!-- network.example.com (ENT - dashed) -->
  <rect x="535" y="75" width="150" height="36" rx="4" fill="#f5f5f5" stroke="#333" stroke-width="1.5" stroke-dasharray="5 5"/>
  <text x="610" y="98" text-anchor="middle" fill="#333">network.example.com</text>

  <!-- *.prod.example.com -->
  <rect x="10" y="145" width="130" height="46" rx="4" fill="#f5f5f5" stroke="#333" stroke-width="1.5"/>
  <text x="75" y="163" text-anchor="middle" fill="#333">*.prod.example.com</text>
  <text x="75" y="178" text-anchor="middle" fill="#666" font-size="10">A 192.168.0.11</text>

  <!-- us.prod.example.com (ENT - dashed) -->
  <rect x="150" y="145" width="140" height="36" rx="4" fill="#f5f5f5" stroke="#333" stroke-width="1.5" stroke-dasharray="5 5"/>
  <text x="220" y="168" text-anchor="middle" fill="#333">us.prod.example.com</text>

  <!-- eu.prod.example.com -->
  <rect x="300" y="145" width="130" height="46" rx="4" fill="#f5f5f5" stroke="#333" stroke-width="1.5"/>
  <text x="365" y="163" text-anchor="middle" fill="#333">eu.prod.example.com</text>
  <text x="365" y="178" text-anchor="middle" fill="#666" font-size="10">A 192.168.0.21</text>

  <!-- retails.network.example.com (ENT - dashed) -->
  <rect x="500" y="145" width="220" height="36" rx="4" fill="#f5f5f5" stroke="#333" stroke-width="1.5" stroke-dasharray="5 5"/>
  <text x="610" y="168" text-anchor="middle" fill="#333">retails.network.example.com</text>

  <!-- app.us.prod.example.com -->
  <rect x="115" y="225" width="175" height="46" rx="4" fill="#f5f5f5" stroke="#333" stroke-width="1.5"/>
  <text x="202" y="243" text-anchor="middle" fill="#333">app.us.prod.example.com</text>
  <text x="202" y="258" text-anchor="middle" fill="#666" font-size="10">A 192.168.0.41</text>

  <!-- app.eu.prod.example.com -->
  <rect x="300" y="225" width="175" height="46" rx="4" fill="#f5f5f5" stroke="#333" stroke-width="1.5"/>
  <text x="387" y="243" text-anchor="middle" fill="#333">app.eu.prod.example.com</text>
  <text x="387" y="258" text-anchor="middle" fill="#666" font-size="10">A 192.168.0.22</text>

  <!-- srv1.retails.network.example.com -->
  <rect x="450" y="225" width="160" height="46" rx="4" fill="#f5f5f5" stroke="#333" stroke-width="1.5"/>
  <text x="530" y="238" text-anchor="middle" fill="#333" font-size="9">srv1.retails.network</text>
  <text x="530" y="250" text-anchor="middle" fill="#333" font-size="9">.example.com</text>
  <text x="530" y="263" text-anchor="middle" fill="#666" font-size="10">A 192.168.1.10</text>

  <!-- srv2.retails.network.example.com -->
  <rect x="620" y="225" width="160" height="46" rx="4" fill="#f5f5f5" stroke="#333" stroke-width="1.5"/>
  <text x="700" y="238" text-anchor="middle" fill="#333" font-size="9">srv2.retails.network</text>
  <text x="700" y="250" text-anchor="middle" fill="#333" font-size="9">.example.com</text>
  <text x="700" y="263" text-anchor="middle" fill="#666" font-size="10">A 192.168.1.20</text>

  <!-- Arrows -->
  <line x1="370" y1="46" x2="230" y2="75" stroke="#333" stroke-width="1.5" marker-end="url(#arrow3)"/>
  <line x1="430" y1="46" x2="570" y2="75" stroke="#333" stroke-width="1.5" marker-end="url(#arrow3)"/>
  <line x1="145" y1="111" x2="85" y2="145" stroke="#333" stroke-width="1.5" marker-end="url(#arrow3)"/>
  <line x1="190" y1="111" x2="210" y2="145" stroke="#333" stroke-width="1.5" marker-end="url(#arrow3)"/>
  <line x1="235" y1="111" x2="340" y2="145" stroke="#333" stroke-width="1.5" marker-end="url(#arrow3)"/>
  <line x1="610" y1="111" x2="610" y2="145" stroke="#333" stroke-width="1.5" marker-end="url(#arrow3)"/>
  <line x1="220" y1="181" x2="210" y2="225" stroke="#333" stroke-width="1.5" marker-end="url(#arrow3)"/>
  <line x1="365" y1="191" x2="380" y2="225" stroke="#333" stroke-width="1.5" marker-end="url(#arrow3)"/>
  <line x1="560" y1="181" x2="540" y2="225" stroke="#333" stroke-width="1.5" marker-end="url(#arrow3)"/>
  <line x1="660" y1="181" x2="690" y2="225" stroke="#333" stroke-width="1.5" marker-end="url(#arrow3)"/>

  <defs>
    <marker id="arrow3" markerWidth="10" markerHeight="10" refX="9" refY="3" orient="auto" markerUnits="strokeWidth">
      <path d="M0,0 L0,6 L9,3 z" fill="#333"/>
    </marker>
  </defs>
</svg>

