<svg width="170" height="21" fill="none" xmlns="http://www.w3.org/2000/svg"><path fill="#fff" d="M0 0h170v21H0z"/><path d="M9.737 1.59c-.415 0-.83.022-1.224.11v4.064c-.568-.218-1.224-.328-2.098-.328-3.103 0-5.638 2.12-5.638 5.53 0 3.496 2.317 5.42 5.726 5.42 1.682 0 3.409-.46 4.48-1.028V1.699a6.134 6.134 0 0 0-1.246-.109zM6.46 14.222c-1.88 0-3.169-1.268-3.169-3.3 0-2.01 1.377-3.3 3.213-3.3.743 0 1.42.087 2.01.459v5.813c-.655.24-1.333.35-2.054.328zM18.684 5.393c-2.23 0-4.043.874-4.961 1.639v9.025c.415.088.83.11 1.224.11.415 0 .852-.022 1.245-.11V8.234c.481-.284 1.333-.569 2.295-.569 1.595 0 2.513.722 2.513 2.623v5.77c.437.087.83.109 1.246.109.393 0 .83-.022 1.245-.11v-6.36c0-2.381-1.464-4.304-4.807-4.304zM29.771 16.407c2.841 0 4.502-1.311 4.502-3.475 0-2.054-1.639-2.819-3.89-3.169-1.77-.284-2.229-.612-2.229-1.289 0-.656.568-1.07 1.88-1.07 1.245 0 2.316.37 3.037.786.503-.393.83-1.005.94-1.77-.677-.481-2.01-1.006-3.89-1.006-2.622 0-4.349 1.312-4.349 3.235 0 2.185 1.748 2.863 3.584 3.147 1.858.284 2.448.677 2.448 1.377 0 .699-.525 1.245-1.989 1.245-1.639 0-2.557-.568-3.19-1.027-.525.328-.94.918-1.137 1.705.59.502 1.967 1.31 4.283 1.31zM37.72 4.147c.853 0 1.574-.7 1.574-1.574A1.58 1.58 0 0 0 37.721 1c-.896 0-1.617.7-1.617 1.573 0 .875.72 1.574 1.617 1.574zm0 12.02c.416 0 .831-.022 1.224-.11V5.72a5.795 5.795 0 0 0-1.223-.109 6 6 0 0 0-1.246.11v10.336c.415.088.852.11 1.246.11zM53.524 5.393c-1.399 0-2.667.546-3.519 1.202-.765-.743-1.901-1.202-3.387-1.202-2.164 0-4.043.917-4.874 1.639v9.025c.416.088.83.11 1.224.11.415 0 .852-.022 1.246-.11V8.234a4.234 4.234 0 0 1 2.12-.569c1.682 0 2.316 1.071 2.316 2.557v5.835c.415.088.83.11 1.268.11.393 0 .83-.022 1.224-.11V9.48c0-.328-.044-.655-.11-.961.503-.416 1.202-.853 2.208-.853 1.682 0 2.338 1.071 2.338 2.557v5.835c.393.088.808.11 1.245.11.394 0 .831-.022 1.224-.11V9.48c0-2.25-1.53-4.086-4.523-4.086zM65.328 5.414c-1.967 0-3.606.765-4.61 1.596V20.1c.436.088.83.11 1.245.11.415 0 .83-.022 1.224-.11v-4.02c.655.218 1.355.305 2.229.305 2.884 0 5.485-2.032 5.485-5.529 0-3.584-2.404-5.442-5.573-5.442zm-.087 8.764c-.809 0-1.464-.131-2.054-.415V8.19a4.121 4.121 0 0 1 2.032-.503c1.901 0 3.19 1.202 3.19 3.19 0 2.055-1.289 3.3-3.168 3.3zM74.407 16.167c.415 0 .852-.022 1.246-.11V1.721a6.21 6.21 0 0 0-1.268-.11c-.415 0-.83.023-1.224.11v14.336c.437.088.853.11 1.246.11zM87.85 10.091c0-2.775-1.968-4.677-4.743-4.677-2.95 0-5.201 2.317-5.201 5.53 0 3.387 2.229 5.441 5.332 5.441 2.076 0 3.431-.765 4.305-1.464-.087-.634-.524-1.333-1.07-1.683-.678.48-1.552 1.071-3.06 1.071-1.727 0-2.776-1.049-2.972-2.754h7.32c.066-.568.088-.918.088-1.464zm-7.387-.175c.174-1.42 1.114-2.491 2.644-2.491 1.683.022 2.316 1.268 2.316 2.491h-4.96z" fill="#000"/><path d="M102.458 13.39c0-.456-.161-.807-.484-1.053-.317-.247-.894-.496-1.728-.747-.835-.252-1.499-.531-1.992-.84-.944-.592-1.416-1.366-1.416-2.319 0-.834.34-1.522 1.018-2.063.683-.54 1.567-.81 2.653-.81.721 0 1.364.132 1.928.398a3.154 3.154 0 0 1 1.33 1.138 2.89 2.89 0 0 1 .484 1.629h-1.793c0-.54-.171-.963-.512-1.266-.337-.309-.82-.463-1.451-.463-.588 0-1.046.126-1.373.377-.323.252-.484.603-.484 1.053 0 .38.175.697.526.953.351.252.93.498 1.736.74.807.237 1.454.51 1.942.818.489.304.847.655 1.075 1.053.227.394.341.856.341 1.387 0 .864-.332 1.551-.996 2.063-.659.508-1.555.762-2.689.762-.75 0-1.44-.138-2.07-.413-.626-.28-1.115-.664-1.466-1.153-.346-.488-.519-1.057-.519-1.707h1.8c0 .588.194 1.043.583 1.366.39.323.946.484 1.672.484.626 0 1.096-.126 1.409-.377.317-.256.476-.593.476-1.01zM114.871 5.7v6.921c0 1.1-.354 1.973-1.06 2.618-.702.64-1.639.96-2.81.96-1.186 0-2.127-.315-2.825-.946-.697-.635-1.045-1.515-1.045-2.639V5.7h1.792v6.93c0 .692.176 1.22.527 1.586.351.365.868.548 1.551.548 1.384 0 2.077-.73 2.077-2.191V5.699h1.793zM120.055 12.209v3.848h-1.8V5.7h3.963c1.157 0 2.075.302 2.753.904.683.602 1.024 1.399 1.024 2.39 0 1.015-.334 1.805-1.003 2.37-.664.564-1.596.846-2.796.846h-2.141zm0-1.444h2.163c.64 0 1.128-.15 1.465-.449.337-.303.505-.74.505-1.309 0-.56-.17-1.005-.512-1.337-.341-.337-.811-.51-1.408-.52h-2.213v3.615zM130.831 12.209v3.848h-1.8V5.7h3.963c1.157 0 2.075.302 2.753.904.683.602 1.024 1.399 1.024 2.39 0 1.015-.334 1.805-1.003 2.37-.664.564-1.596.846-2.796.846h-2.141zm0-1.444h2.163c.64 0 1.129-.15 1.465-.449.337-.303.505-.74.505-1.309 0-.56-.17-1.005-.512-1.337-.341-.337-.811-.51-1.408-.52h-2.213v3.615zM148.074 11.149c0 1.015-.176 1.906-.527 2.675-.351.763-.853 1.351-1.508 1.764-.649.408-1.399.612-2.248.612-.839 0-1.589-.204-2.248-.612-.654-.413-1.162-.998-1.522-1.757-.356-.76-.536-1.634-.541-2.625v-.584c0-1.01.178-1.901.534-2.675.36-.773.865-1.363 1.515-1.77.655-.413 1.404-.62 2.248-.62.844 0 1.591.204 2.241.612.654.403 1.159.986 1.515 1.75.356.759.536 1.643.541 2.654v.576zm-1.8-.54c0-1.149-.218-2.028-.654-2.64-.432-.612-1.046-.918-1.843-.918-.778 0-1.387.306-1.828.918-.437.607-.659 1.468-.669 2.582v.598c0 1.138.221 2.018.662 2.639.445.621 1.062.932 1.849.932.797 0 1.409-.304 1.836-.91.431-.608.647-1.495.647-2.661v-.54zM155.129 12.066h-2.006v3.991h-1.8V5.7h3.643c1.195 0 2.117.268 2.767.804.65.536.975 1.312.975 2.327 0 .692-.169 1.273-.505 1.742-.332.465-.797.823-1.395 1.075l2.326 4.318v.092h-1.927l-2.078-3.99zm-2.006-1.444h1.85c.607 0 1.081-.152 1.423-.455.341-.308.512-.728.512-1.26 0-.554-.159-.983-.477-1.287-.313-.303-.782-.46-1.408-.47h-1.9v3.472zM169 7.15h-3.23v8.907h-1.785V7.151h-3.202V5.699H169v1.452z" fill="#898989"/></svg>