<svg width="197" height="24" viewBox="0 0 197 24" xmlns="http://www.w3.org/2000/svg"><title>dnsimple-logo-support</title><g fill="none" fill-rule="evenodd"><path d="M11.25 1.675c-.475 0-.95.025-1.4.125v4.65c-.65-.25-1.4-.375-2.4-.375C3.9 6.075 1 8.5 1 12.4c0 4 2.65 6.2 6.55 6.2 1.925 0 3.9-.525 5.125-1.175V1.8c-.475-.1-.975-.125-1.425-.125zM7.5 16.125c-2.15 0-3.625-1.45-3.625-3.775 0-2.3 1.575-3.775 3.675-3.775.85 0 1.625.1 2.3.525v6.65c-.75.275-1.525.4-2.35.375zm13.975-10.1c-2.55 0-4.625 1-5.675 1.875v10.325c.475.1.95.125 1.4.125.475 0 .975-.025 1.425-.125v-8.95c.55-.325 1.525-.65 2.625-.65 1.825 0 2.875.825 2.875 3v6.6c.5.1.95.125 1.425.125.45 0 .95-.025 1.425-.125V10.95c0-2.725-1.675-4.925-5.5-4.925zm12.675 12.6c3.25 0 5.15-1.5 5.15-3.975 0-2.35-1.875-3.225-4.45-3.625-2.025-.325-2.55-.7-2.55-1.475 0-.75.65-1.225 2.15-1.225 1.425 0 2.65.425 3.475.9.575-.45.95-1.15 1.075-2.025-.775-.55-2.3-1.15-4.45-1.15-3 0-4.975 1.5-4.975 3.7 0 2.5 2 3.275 4.1 3.6 2.125.325 2.8.775 2.8 1.575 0 .8-.6 1.425-2.275 1.425-1.875 0-2.925-.65-3.65-1.175-.6.375-1.075 1.05-1.3 1.95.675.575 2.25 1.5 4.9 1.5zM43.25 4.6c.975 0 1.8-.8 1.8-1.8S44.225 1 43.25 1c-1.025 0-1.85.8-1.85 1.8s.825 1.8 1.85 1.8zm0 13.75c.475 0 .95-.025 1.4-.125V6.4c-.45-.1-.95-.125-1.4-.125-.475 0-.95.025-1.425.125v11.825c.475.1.975.125 1.425.125zM61.325 6.025c-1.6 0-3.05.625-4.025 1.375-.875-.85-2.175-1.375-3.875-1.375-2.475 0-4.625 1.05-5.575 1.875v10.325c.475.1.95.125 1.4.125.475 0 .975-.025 1.425-.125v-8.95c.625-.375 1.5-.65 2.425-.65 1.925 0 2.65 1.225 2.65 2.925v6.675c.475.1.95.125 1.45.125.45 0 .95-.025 1.4-.125V10.7c0-.375-.05-.75-.125-1.1.575-.475 1.375-.975 2.525-.975 1.925 0 2.675 1.225 2.675 2.925v6.675c.45.1.925.125 1.425.125.45 0 .95-.025 1.4-.125V10.7c0-2.575-1.75-4.675-5.175-4.675zm13.5.025c-2.25 0-4.125.875-5.275 1.825V22.85c.5.1.95.125 1.425.125.475 0 .95-.025 1.4-.125v-4.6c.75.25 1.55.35 2.55.35 3.3 0 6.275-2.325 6.275-6.325 0-4.1-2.75-6.225-6.375-6.225zm-.1 10.025c-.925 0-1.675-.15-2.35-.475V9.225c.725-.4 1.5-.575 2.325-.575 2.175 0 3.65 1.375 3.65 3.65 0 2.35-1.475 3.775-3.625 3.775zM85.2 18.35c.475 0 .975-.025 1.425-.125v-16.4c-.475-.1-.975-.125-1.45-.125s-.95.025-1.4.125v16.4c.5.1.975.125 1.425.125zm15.375-6.95c0-3.175-2.25-5.35-5.425-5.35-3.375 0-5.95 2.65-5.95 6.325 0 3.875 2.55 6.225 6.1 6.225 2.375 0 3.925-.875 4.925-1.675-.1-.725-.6-1.525-1.225-1.925-.775.55-1.775 1.225-3.5 1.225-1.975 0-3.175-1.2-3.4-3.15h8.375c.075-.65.1-1.05.1-1.675zm-8.45-.2c.2-1.625 1.275-2.85 3.025-2.85 1.925.025 2.65 1.45 2.65 2.85h-5.675z" fill="#000"/><rect fill="#E35050" x="111" y="1" width="84" height="21" rx="2"/><path d="M121.682 16.224c2.044 0 3.332-1.036 3.318-2.856-.014-1.652-1.162-2.352-2.912-2.786-1.54-.378-1.82-.7-1.82-1.288 0-.588.574-1.05 1.54-1.05 1.008 0 1.722.322 2.282.728.42-.238.728-.798.77-1.288-.574-.448-1.512-.896-2.996-.896-1.904 0-3.15 1.064-3.15 2.618.014 1.778 1.33 2.366 2.772 2.702 1.666.406 1.946.84 1.946 1.428 0 .714-.532 1.218-1.736 1.218-1.022 0-1.862-.392-2.422-.896-.406.238-.728.672-.826 1.246.532.504 1.54 1.12 3.234 1.12zm10.596.014c2.198 0 3.71-1.358 3.71-3.822v-5.39c-.266-.056-.532-.084-.784-.084-.266 0-.518.028-.784.084v5.404c0 1.386-.728 2.31-2.128 2.31-1.386 0-2.128-.924-2.128-2.31V7.026c-.28-.056-.546-.084-.812-.084s-.532.028-.798.084v5.418c0 2.492 1.512 3.794 3.724 3.794zm10.582-9.422c-1.092 0-2.058.126-2.8.308V16c.28.056.532.084.798.084.28 0 .532-.028.798-.084v-3.094c.378.028.784.042 1.26.042 2.38 0 3.752-1.246 3.752-3.178 0-1.764-1.148-2.954-3.808-2.954zm.056 4.76c-.476 0-.896-.014-1.26-.042V8.272c.406-.042.826-.07 1.246-.07 1.428 0 2.114.616 2.114 1.582 0 1.036-.588 1.792-2.1 1.792zm10.008-4.76c-1.092 0-2.058.126-2.8.308V16c.28.056.532.084.798.084.28 0 .532-.028.798-.084v-3.094c.378.028.784.042 1.26.042 2.38 0 3.752-1.246 3.752-3.178 0-1.764-1.148-2.954-3.808-2.954zm.056 4.76c-.476 0-.896-.014-1.26-.042V8.272c.406-.042.826-.07 1.246-.07 1.428 0 2.114.616 2.114 1.582 0 1.036-.588 1.792-2.1 1.792zm11.268 4.648c2.674 0 4.592-2.03 4.592-4.732 0-2.8-1.918-4.746-4.592-4.746-2.674 0-4.592 2.016-4.592 4.746 0 2.772 1.918 4.732 4.592 4.732zm0-1.484c-1.75 0-2.884-1.33-2.884-3.248 0-1.96 1.134-3.262 2.884-3.262s2.884 1.302 2.884 3.262c0 1.918-1.134 3.248-2.884 3.248zm12.934-2.394c1.036-.462 1.75-1.358 1.75-2.702 0-1.68-1.078-2.786-3.57-2.786-.952 0-2.044.112-2.87.294V16c.28.056.532.084.798.084.28 0 .532-.028.798-.084v-3.332c.448.028.896.028 1.316.028h.21l2.002 3.332c.14.028.35.028.504.028.462 0 .91-.042 1.26-.14l-2.198-3.57zm-3.094-1.036V8.3c.434-.042.882-.07 1.344-.07 1.288 0 1.89.56 1.89 1.498 0 .91-.532 1.61-1.876 1.61-.434 0-.896 0-1.358-.028zm14.81-3.584c0-.238-.028-.476-.084-.714h-7.028c-.056.238-.084.476-.084.714s.028.476.084.714h2.73v7.574c.266.042.532.084.784.084.28 0 .532-.042.798-.084V8.44h2.716c.056-.252.084-.476.084-.714z" fill="#FFF"/></g></svg>