<svg width="170" height="21" viewBox="0 0 170 21" fill="none" xmlns="http://www.w3.org/2000/svg">
<rect width="170" height="21" fill="white"/>
<path d="M9.73706 1.59005C9.32184 1.59005 8.90662 1.61191 8.51325 1.69932V5.76413C7.94505 5.5456 7.28943 5.43633 6.41528 5.43633C3.31204 5.43633 0.776993 7.55615 0.776993 10.9653C0.776993 14.462 3.0935 16.3851 6.5027 16.3851C8.18544 16.3851 9.91189 15.9262 10.9827 15.358V1.69932C10.5675 1.61191 10.1304 1.59005 9.73706 1.59005ZM6.45899 14.2216C4.57956 14.2216 3.29018 12.954 3.29018 10.9216C3.29018 8.91109 4.66697 7.62171 6.5027 7.62171C7.24573 7.62171 7.92319 7.70912 8.51325 8.08064V13.8938C7.85763 14.1342 7.18016 14.2434 6.45899 14.2216Z" fill="black"/>
<path d="M18.6836 5.39262C16.4546 5.39262 14.6407 6.26677 13.7228 7.03166V16.0573C14.138 16.1447 14.5533 16.1666 14.9466 16.1666C15.3619 16.1666 15.7989 16.1447 16.1923 16.0573V8.23362C16.6731 7.94952 17.5254 7.66542 18.487 7.66542C20.0823 7.66542 21.0001 8.38659 21.0001 10.2879V16.0573C21.4372 16.1447 21.8306 16.1666 22.2458 16.1666C22.6392 16.1666 23.0763 16.1447 23.4915 16.0573V9.69782C23.4915 7.31576 22.0273 5.39262 18.6836 5.39262Z" fill="black"/>
<path d="M29.7714 16.4069C32.6124 16.4069 34.2733 15.0957 34.2733 12.9322C34.2733 10.8779 32.6342 10.113 30.3833 9.76338C28.6131 9.47928 28.1542 9.15148 28.1542 8.47401C28.1542 7.81839 28.7224 7.40317 30.0336 7.40317C31.2793 7.40317 32.3501 7.77469 33.0713 8.18991C33.574 7.79654 33.9018 7.18463 34.011 6.41975C33.3336 5.93896 32.0005 5.41447 30.121 5.41447C27.4986 5.41447 25.7721 6.7257 25.7721 8.64884C25.7721 10.8342 27.5204 11.5117 29.3562 11.7958C31.2137 12.0799 31.8038 12.4733 31.8038 13.1726C31.8038 13.8719 31.2793 14.4183 29.8151 14.4183C28.1761 14.4183 27.2582 13.8501 26.6244 13.3911C26.0999 13.7189 25.6847 14.309 25.488 15.0957C26.0781 15.5984 27.4549 16.4069 29.7714 16.4069Z" fill="black"/>
<path d="M37.7207 4.14695C38.573 4.14695 39.2942 3.44763 39.2942 2.57348C39.2942 1.69932 38.573 1 37.7207 1C36.8247 1 36.1035 1.69932 36.1035 2.57348C36.1035 3.44763 36.8247 4.14695 37.7207 4.14695ZM37.7207 16.1666C38.1359 16.1666 38.5512 16.1447 38.9445 16.0573V5.72043C38.5512 5.63301 38.1141 5.61116 37.7207 5.61116C37.3055 5.61116 36.8903 5.63301 36.4751 5.72043V16.0573C36.8903 16.1447 37.3274 16.1666 37.7207 16.1666Z" fill="black"/>
<path d="M53.5236 5.39262C52.125 5.39262 50.8574 5.93896 50.0051 6.59458C49.2402 5.85155 48.1038 5.39262 46.6178 5.39262C44.4543 5.39262 42.5748 6.31048 41.7444 7.03166V16.0573C42.1596 16.1447 42.5748 16.1666 42.9682 16.1666C43.3834 16.1666 43.8205 16.1447 44.2139 16.0573V8.23362C44.7602 7.90581 45.5251 7.66542 46.3337 7.66542C48.0164 7.66542 48.6502 8.73625 48.6502 10.2223V16.0573C49.0654 16.1447 49.4806 16.1666 49.9177 16.1666C50.3111 16.1666 50.7482 16.1447 51.1415 16.0573V9.47929C51.1415 9.15148 51.0978 8.82367 51.0323 8.51772C51.5349 8.10249 52.2342 7.66542 53.2395 7.66542C54.9222 7.66542 55.5779 8.73625 55.5779 10.2223V16.0573C55.9712 16.1447 56.3864 16.1666 56.8235 16.1666C57.2169 16.1666 57.654 16.1447 58.0473 16.0573V9.47929C58.0473 7.22834 56.5176 5.39262 53.5236 5.39262Z" fill="black"/>
<path d="M65.3282 5.41447C63.3614 5.41447 61.7224 6.17936 60.7171 7.0098V20.1002C61.1542 20.1877 61.5475 20.2095 61.9628 20.2095C62.378 20.2095 62.7932 20.1877 63.1866 20.1002V16.0791C63.8422 16.2977 64.5415 16.3851 65.4157 16.3851C68.3004 16.3851 70.901 14.3527 70.901 10.8561C70.901 7.27205 68.4971 5.41447 65.3282 5.41447ZM65.2408 14.1779C64.4322 14.1779 63.7766 14.0467 63.1866 13.7626V8.18991C63.8203 7.84025 64.4978 7.68727 65.219 7.68727C67.1203 7.68727 68.4096 8.88923 68.4096 10.8779C68.4096 12.9322 67.1203 14.1779 65.2408 14.1779Z" fill="black"/>
<path d="M74.407 16.1666C74.8222 16.1666 75.2593 16.1447 75.6526 16.0573V1.72118C75.2374 1.63376 74.8004 1.61191 74.3851 1.61191C73.9699 1.61191 73.5547 1.63376 73.1613 1.72118V16.0573C73.5984 16.1447 74.0136 16.1666 74.407 16.1666Z" fill="black"/>
<path d="M87.8491 10.0912C87.8491 7.31576 85.8823 5.41447 83.1068 5.41447C80.1566 5.41447 77.9056 7.73098 77.9056 10.9435C77.9056 14.3308 80.1347 16.3851 83.238 16.3851C85.3141 16.3851 86.669 15.6202 87.5432 14.9209C87.4558 14.2871 87.0187 13.5878 86.4723 13.2381C85.7949 13.7189 84.9207 14.309 83.4128 14.309C81.6863 14.309 80.6374 13.26 80.4407 11.5554H87.7617C87.8273 10.9872 87.8491 10.6375 87.8491 10.0912ZM80.4625 9.91636C80.6374 8.49586 81.5771 7.42502 83.1068 7.42502C84.7896 7.44688 85.4234 8.69255 85.4234 9.91636H80.4625Z" fill="black"/>
<path d="M102.458 13.3896C102.458 12.9343 102.297 12.5833 101.974 12.3367C101.657 12.0901 101.08 11.8411 100.246 11.5898C99.4111 11.3384 98.7471 11.0586 98.2539 10.7503C97.3101 10.1575 96.8383 9.38447 96.8383 8.43121C96.8383 7.59652 97.1773 6.90884 97.8555 6.36819C98.5385 5.82753 99.423 5.55721 100.509 5.55721C101.23 5.55721 101.873 5.69 102.437 5.95558C103.001 6.22117 103.445 6.60057 103.767 7.0938C104.09 7.58229 104.251 8.12531 104.251 8.72288H102.458C102.458 8.18223 102.287 7.76014 101.946 7.45661C101.609 7.14834 101.126 6.99421 100.495 6.99421C99.9067 6.99421 99.449 7.11989 99.1218 7.37124C98.7993 7.6226 98.6381 7.97355 98.6381 8.4241C98.6381 8.8035 98.8135 9.12126 99.1645 9.37736C99.5154 9.62871 100.094 9.87533 100.9 10.1172C101.707 10.3543 102.354 10.627 102.842 10.9353C103.331 11.2388 103.689 11.5898 103.917 11.9881C104.144 12.3818 104.258 12.8442 104.258 13.3754C104.258 14.2385 103.926 14.9262 103.262 15.4384C102.603 15.9458 101.707 16.1996 100.573 16.1996C99.8237 16.1996 99.1337 16.062 98.5029 15.787C97.8769 15.5071 97.3884 15.123 97.0374 14.6345C96.6912 14.146 96.5181 13.5769 96.5181 12.9272H98.3179C98.3179 13.5153 98.5124 13.9705 98.9013 14.293C99.2902 14.6155 99.8474 14.7768 100.573 14.7768C101.199 14.7768 101.669 14.6511 101.982 14.3998C102.299 14.1437 102.458 13.8069 102.458 13.3896Z" fill="#898989"/>
<path d="M114.871 5.69948V12.6213C114.871 13.7216 114.517 14.5942 113.811 15.2392C113.109 15.8794 112.172 16.1996 111.001 16.1996C109.815 16.1996 108.874 15.8842 108.176 15.2534C107.479 14.6179 107.131 13.7382 107.131 12.6142V5.69948H108.923V12.6284C108.923 13.3208 109.099 13.8496 109.45 14.2148C109.801 14.58 110.318 14.7626 111.001 14.7626C112.385 14.7626 113.078 14.0322 113.078 12.5715V5.69948H114.871Z" fill="#898989"/>
<path d="M120.055 12.2087V16.0573H118.255V5.69948H122.218C123.375 5.69948 124.293 6.00064 124.971 6.60294C125.654 7.20525 125.995 8.00201 125.995 8.99321C125.995 10.0081 125.661 10.7978 124.992 11.3621C124.328 11.9265 123.396 12.2087 122.196 12.2087H120.055ZM120.055 10.7646H122.218C122.858 10.7646 123.346 10.6152 123.683 10.3164C124.02 10.0129 124.188 9.57655 124.188 9.00744C124.188 8.44781 124.018 8.00201 123.676 7.67003C123.335 7.3333 122.865 7.1602 122.268 7.15071H120.055V10.7646Z" fill="#898989"/>
<path d="M130.831 12.2087V16.0573H129.031V5.69948H132.994C134.151 5.69948 135.069 6.00064 135.747 6.60294C136.43 7.20525 136.771 8.00201 136.771 8.99321C136.771 10.0081 136.437 10.7978 135.768 11.3621C135.104 11.9265 134.172 12.2087 132.972 12.2087H130.831ZM130.831 10.7646H132.994C133.634 10.7646 134.123 10.6152 134.459 10.3164C134.796 10.0129 134.964 9.57655 134.964 9.00744C134.964 8.44781 134.794 8.00201 134.452 7.67003C134.111 7.3333 133.641 7.1602 133.044 7.15071H130.831V10.7646Z" fill="#898989"/>
<path d="M148.074 11.1487C148.074 12.1636 147.898 13.0552 147.547 13.8235C147.196 14.5871 146.694 15.1752 146.039 15.5878C145.39 15.9956 144.64 16.1996 143.791 16.1996C142.952 16.1996 142.202 15.9956 141.543 15.5878C140.889 15.1752 140.381 14.5895 140.021 13.8306C139.665 13.0718 139.485 12.1968 139.48 11.2056V10.6223C139.48 9.61211 139.658 8.72051 140.014 7.94747C140.374 7.17443 140.879 6.58397 141.529 6.17611C142.184 5.76351 142.933 5.55721 143.777 5.55721C144.621 5.55721 145.368 5.76114 146.018 6.169C146.672 6.57212 147.177 7.15546 147.533 7.91901C147.889 8.67783 148.069 9.56232 148.074 10.5725V11.1487ZM146.274 10.6081C146.274 9.46035 146.056 8.5806 145.62 7.96881C145.188 7.35702 144.574 7.05112 143.777 7.05112C142.999 7.05112 142.39 7.35702 141.949 7.96881C141.512 8.57586 141.29 9.43664 141.28 10.5511V11.1487C141.28 12.2869 141.501 13.1667 141.942 13.788C142.387 14.4092 143.004 14.7199 143.791 14.7199C144.588 14.7199 145.2 14.4164 145.627 13.8093C146.058 13.2023 146.274 12.3154 146.274 11.1487V10.6081Z" fill="#898989"/>
<path d="M155.129 12.0664H153.123V16.0573H151.323V5.69948H154.966C156.161 5.69948 157.083 5.96744 157.733 6.50335C158.383 7.03926 158.708 7.81468 158.708 8.82959C158.708 9.52201 158.539 10.103 158.203 10.5725C157.871 11.0373 157.406 11.3953 156.808 11.6467L159.134 15.9648V16.0573H157.207L155.129 12.0664ZM153.123 10.6223H154.973C155.58 10.6223 156.054 10.4705 156.396 10.167C156.737 9.85873 156.908 9.43901 156.908 8.90784C156.908 8.35296 156.749 7.92375 156.431 7.62023C156.118 7.3167 155.649 7.1602 155.023 7.15071H153.123V10.6223Z" fill="#898989"/>
<path d="M169 7.15071H165.77V16.0573H163.985V7.15071H160.783V5.69948H169V7.15071Z" fill="#898989"/>
</svg>
